<?xml version="1.0" encoding="UTF-8"?>
<svg xmlns="http://www.w3.org/2000/svg" width="108" height="115" viewBox="0 0 108 115" fill="none">
  <g clip-path="url(#clip0_237_3175)">
    <path d="M45.3542 73.2226C45.3542 73.2226 43.0355 41.7887 8.30444 43.5099C8.30444 43.5099 19.6348 66.3624 30.5102 65.9266C30.5102 65.9266 24.9464 66.2309 21.5314 63.904C21.5314 63.904 32.6671 80.1841 45.3514 73.2226H45.3542Z" fill="#2A3EF4"></path>
    <path d="M67.5351 62.3743C67.5351 62.3743 80.9183 24.9683 40.0205 9.21713C40.0205 9.21713 41.4046 41.3335 54.1574 46.3874C54.1574 46.3874 47.5905 43.8961 44.847 39.4725C44.847 39.4725 49.361 63.9201 67.5323 62.3743H67.5351Z" fill="#FCACDB"></path>
    <path d="M91.5087 75.925C91.5087 75.925 113.07 51.0415 86.2026 26.5994C86.2026 26.5994 77.6349 51.8281 85.9723 59.5599C85.9723 59.5599 81.6474 55.6652 80.8526 51.4225C80.8526 51.4225 77.0045 71.6631 91.5087 75.9222V75.925Z" fill="#FF6707"></path>
    <path d="M88.8145 23.6391C88.0663 22.9594 87.1043 22.5976 86.1176 22.5976C85.786 22.5976 85.4489 22.6387 85.1172 22.7237C83.8099 23.0608 82.7602 24.0365 82.3271 25.3137C82.234 25.5851 80.0578 32.0451 78.9176 39.5822C78.4352 42.7724 78.2132 45.6859 78.2461 48.3143C77.5335 48.8953 77.0183 49.7175 76.8346 50.6768C76.7908 50.9125 75.7575 56.4818 76.7003 62.6814C77.2841 66.5157 78.501 69.832 80.3181 72.5344C82.5683 75.8809 85.6709 78.2325 89.5518 79.5316C89.4888 79.8057 89.4257 80.077 89.3627 80.3402C89.1763 81.2145 88.8776 82.2477 88.6008 83.1714C86.8138 81.0884 83.6591 79.0602 78.0872 78.1804C76.6291 77.9475 75.0751 77.8132 73.4525 77.7611C73.4744 77.0951 73.4717 76.4291 73.4443 75.7823C73.4224 74.5708 73.2607 73.1977 73.1373 71.9973C73.099 71.7232 72.7646 69.6649 72.7235 69.3771C72.6358 68.7878 72.4165 67.9025 72.3014 67.3188C72.1616 66.576 71.9259 65.603 71.6902 64.6958C71.8108 64.4766 71.9149 64.2464 72.0027 64.0052C72.1561 63.5749 75.7411 53.3518 73.8061 40.9608C71.9972 29.3728 64.9561 13.6764 41.676 4.70863C41.1142 4.49211 40.5249 4.38522 39.9411 4.38522C38.9435 4.38522 37.9541 4.69493 37.1209 5.29516C35.7971 6.24621 35.0434 7.79748 35.1119 9.4255C35.1283 9.77083 35.5011 17.9877 37.5128 26.9637C38.3625 30.7624 39.3848 34.1363 40.5715 37.0799C40.0206 38.0419 39.8014 39.193 40.0151 40.3523C40.0645 40.6182 41.2567 46.9357 44.7567 53.2915C46.9109 57.2026 49.5037 60.3572 52.4665 62.6677C56.3912 65.7264 60.8834 67.2776 65.8222 67.2776C66.1867 67.2776 66.554 67.2694 66.9268 67.2502C66.9733 67.5956 67.0145 67.9437 67.061 68.2451C67.2392 69.3442 67.3817 70.9229 67.4639 72.0493C67.4886 72.285 67.516 72.7537 67.516 72.9922C67.5379 73.8582 67.5763 74.9052 67.5215 75.7686C67.516 75.9056 67.5023 76.3222 67.4968 76.451L67.4749 76.6675C67.4393 77.0595 67.3927 77.5254 67.3296 77.9694C64.6821 78.2161 61.944 78.6573 59.1923 79.2959C57.3505 79.7235 55.5553 80.2278 53.8204 80.7979C53.349 79.8441 52.8173 78.9204 52.2609 78.0215C51.3071 76.4921 50.2245 74.9902 49.0898 73.5485C49.1063 73.3485 49.109 73.1456 49.0953 72.9428C49.0706 72.6002 48.4183 64.4738 43.4219 56.331C38.7434 48.7035 29.3097 39.6096 10.9328 39.6096C9.98454 39.6096 9.00882 39.6343 8.03311 39.6836C6.74221 39.7466 5.56916 40.4565 4.91685 41.572C4.26181 42.6875 4.21522 44.0579 4.78804 45.2145C4.90863 45.4556 7.76451 51.1866 12.0429 56.997C13.923 59.5514 15.7895 61.7276 17.6395 63.5201C17.5491 64.3944 17.7601 65.3016 18.2891 66.0717C18.3768 66.2005 20.4817 69.2565 23.9049 72.2987C28.6848 76.5442 33.8237 78.7916 38.7654 78.7916C41.402 78.7916 43.9865 78.164 46.4532 76.9306C46.5957 77.1581 46.7382 77.3829 46.8753 77.6076C47.4454 78.4847 48.0675 79.6413 48.5718 80.5676C48.6787 80.8006 48.9336 81.3296 49.0487 81.5762C49.1775 81.8558 49.3091 82.1436 49.4352 82.4368C46.5437 83.662 43.9317 85.0735 41.7391 86.6165C33.8786 92.1446 33.7744 97.5768 34.413 100.326C35.0516 103.072 37.5375 107.907 47.0288 109.406C48.8925 109.702 50.9124 109.847 53.0365 109.847C57.0682 109.847 61.4808 109.321 65.9236 108.291C72.7043 106.717 78.9039 104.116 83.3768 100.97C88.5459 97.3357 90.3603 93.7425 90.8153 90.925C90.8537 90.851 90.8948 90.777 90.9304 90.7057C91.9034 88.7872 92.531 86.7124 93.0244 84.6349C93.4547 82.8014 93.7671 80.8883 94.0001 78.9835C94.159 78.8519 94.3125 78.7094 94.4523 78.5477C94.699 78.2626 100.534 71.4409 102.76 61.2863C104.84 51.7923 104.108 37.5513 88.8145 23.6391ZM18.3603 48.4266L23.3019 52.4446C23.9734 52.9763 25.0725 53.9548 25.7193 54.5111C26.5717 55.2649 28.4847 56.8847 29.296 57.6575C31.0939 59.3267 33.3167 61.374 35.0132 63.1336C35.6409 63.7722 36.6248 64.7315 37.2141 65.3975C39.2642 67.5983 41.5335 70.1445 43.337 72.5399C43.6384 72.9264 43.9427 73.3265 44.2469 73.7376C42.3695 74.5928 40.5304 74.9573 38.7654 74.9573C30.1922 74.9573 23.3156 66.4225 21.7753 64.356C22.2796 64.6191 22.7894 64.863 23.3211 65.0987C23.7569 65.2879 24.1982 65.4715 24.6449 65.6414C24.9793 65.7702 25.3191 65.8908 25.659 66.0004C25.7741 66.0388 25.8865 66.0745 26.0016 66.1101C26.7663 66.3458 27.5419 66.5404 28.3258 66.6747C28.6218 66.724 28.9178 66.7679 29.2165 66.8008C29.7071 66.8528 30.2004 66.883 30.6965 66.883C31.1542 66.883 31.6119 66.8583 32.0697 66.8062C32.2204 66.7843 32.33 66.7185 32.404 66.6281C32.4397 66.5842 32.4671 66.5322 32.4835 66.4801C32.5054 66.417 32.5137 66.3458 32.5109 66.28C32.5109 66.2115 32.4917 66.143 32.4616 66.0827C32.4534 66.0662 32.4479 66.0525 32.4397 66.0388C32.4232 66.0114 32.404 65.9867 32.3821 65.9621C32.2999 65.8662 32.1738 65.8031 32.0121 65.8031H31.971C31.7654 65.8113 31.5599 65.8141 31.3543 65.8113C31.3214 65.8113 31.2858 65.8086 31.2502 65.8086C31.0775 65.8059 30.9048 65.7976 30.7349 65.7867C30.691 65.7867 30.6499 65.7812 30.6088 65.7784C30.4362 65.7647 30.2635 65.7483 30.0908 65.7291C30.0579 65.7236 30.0223 65.7209 29.9894 65.7182C29.7838 65.6907 29.5783 65.6633 29.3755 65.6277C29.0247 65.5674 28.6738 65.4934 28.3285 65.4084C28.0873 65.3481 27.8489 65.2824 27.6132 65.2111C27.5063 65.181 27.3994 65.1481 27.2952 65.1152C27.1253 65.0604 26.9554 65.0028 26.7882 64.9425H26.7854C26.6183 64.8822 26.4483 64.8219 26.2839 64.7561H26.2811C26.114 64.6904 25.9468 64.6218 25.7823 64.5533C25.4973 64.4355 25.215 64.3094 24.9354 64.1778C24.8066 64.1175 24.6805 64.0545 24.5545 63.9915C24.1488 63.7914 23.7514 63.5803 23.3622 63.3611C15.1454 57.4712 8.22222 43.5124 8.22222 43.5124C9.1486 43.4658 10.0503 43.4439 10.9328 43.4439C34.561 43.4439 42.0077 59.5405 44.2935 68.0642C43.7974 67.5599 43.2712 67.0282 42.8573 66.5952C41.8131 65.5016 39.8534 63.7393 38.7516 62.6841C38.3515 62.336 37.3429 61.459 36.9236 61.0972C35.5093 59.8392 33.4784 58.1728 31.9655 56.9806C31.2666 56.4215 30.1566 55.5115 29.4413 54.9935C27.9777 53.9164 25.7467 52.2007 24.2831 51.1784L19.0236 47.5167C18.9989 47.5003 18.9743 47.4838 18.9496 47.4729C18.9304 47.4619 18.9112 47.4537 18.8893 47.4482C18.8591 47.4372 18.829 47.429 18.7961 47.4235C18.7084 47.4098 18.618 47.4153 18.533 47.4427C18.5138 47.4482 18.4946 47.4537 18.4782 47.4619C18.4535 47.4729 18.4316 47.4838 18.4097 47.4975C18.3576 47.5304 18.3083 47.5715 18.2671 47.6236C18.0643 47.8675 18.1109 48.2348 18.3603 48.4266ZM67.3105 51.6005C66.7596 50.3315 65.4769 47.1768 64.8931 45.9791C63.5638 43.1095 61.9248 39.6781 60.4174 36.8661C59.0333 34.0924 57.0655 30.7103 55.5471 27.9969C54.8482 26.7088 51.1865 20.775 50.3396 19.3498C50.1779 19.1032 49.9614 19.0045 49.7531 19.0045C49.5667 19.0045 49.3858 19.084 49.2488 19.2155C49.2323 19.2292 49.2159 19.2457 49.1995 19.2649C49.1858 19.2813 49.1693 19.3005 49.1556 19.3197H49.1529C49.1282 19.358 49.1035 19.3992 49.0843 19.4403C49.0761 19.4622 49.0652 19.4841 49.0597 19.506C49.0021 19.6732 49.0076 19.8651 49.1118 20.0597C49.5119 20.849 52.8529 27.4022 53.2065 28.1066C54.3247 30.5404 55.928 33.8183 56.9969 36.2796C58.2138 39.1217 59.7295 42.6135 60.7847 45.5105C61.0423 46.1902 61.5987 47.6263 61.8481 48.3006C62.0482 48.8926 63.213 52.3459 63.435 53.001C64.0298 54.8072 64.5779 56.8655 65.1124 58.6881C65.3371 59.6199 65.7838 61.4727 66.0168 62.4429C65.9538 62.4429 65.8853 62.4429 65.8222 62.4429C50.7233 62.4429 45.7653 43.9236 44.9074 40.144C46.9191 42.6902 49.2762 44.9459 52.0444 46.6643C53.1352 47.3111 54.3 47.8483 55.5197 48.2348C55.5498 48.243 55.5827 48.2512 55.6156 48.2567C55.6403 48.2567 55.6649 48.2622 55.6923 48.2622H55.7115C55.7115 48.2622 55.7307 48.2595 55.7389 48.2595C55.7472 48.2595 55.7554 48.2595 55.7636 48.2595C55.7855 48.2567 55.8075 48.2567 55.8266 48.2512C55.8815 48.2403 55.9335 48.2266 55.9829 48.2046C56.1254 48.1389 56.2405 48.021 56.3008 47.862C56.4296 47.5359 56.2679 47.1686 55.9417 47.0426C54.8564 46.6232 53.8259 46.0723 52.8529 45.4091C50.7206 43.8961 48.8596 41.9804 47.2782 39.8782C40.7908 28.9041 39.9411 9.2172 39.9411 9.2172C70.3006 20.9148 70.7446 44.5402 68.9604 55.9391C68.4287 54.4865 67.8751 52.9681 67.3105 51.6005ZM63.5063 97.8783C63.2541 97.9359 63.002 97.9934 62.7526 98.0483C62.0071 98.21 61.278 98.3525 60.5709 98.4758C59.6034 98.643 58.6716 98.7773 57.7808 98.8815C57.6273 98.9006 57.4766 98.9171 57.3258 98.9308C57.0271 98.9609 56.7311 98.9911 56.4406 99.0157C56.2953 99.0267 56.15 99.0377 56.0075 99.0486C54.9715 99.1254 53.9958 99.161 53.0886 99.161C50.8302 99.161 48.9747 98.9472 47.5714 98.643C47.4152 98.6101 47.2645 98.5745 47.122 98.5389C46.9931 98.5087 46.8698 98.4758 46.7492 98.4402C46.2641 98.3086 45.853 98.1634 45.5186 98.0181C45.4254 97.977 45.3405 97.9359 45.2582 97.8948C45.2199 97.8756 45.1815 97.8537 45.1431 97.8345C46.4806 95.9379 51.8662 91.9692 61.6097 89.7081C65.6605 88.768 69.166 88.4227 72.0273 88.4227C76.0425 88.4227 78.7806 89.0997 79.9701 89.752C78.6353 91.6486 73.2497 95.6172 63.5063 97.8783ZM94.5236 71.3998C94.5318 70.6598 94.5373 69.8759 94.551 69.2537C94.5948 67.6723 94.4523 64.9233 94.4222 63.3309C94.3865 62.7773 94.2933 61.385 94.2495 60.8067C94.1399 58.8333 93.8795 56.1035 93.6465 54.1055C93.5424 53.1737 93.3998 51.6827 93.2546 50.77C92.9723 48.8926 92.5995 45.9764 92.2789 44.1401L91.114 37.5485C91.1086 37.5129 91.0976 37.48 91.0866 37.4471C91.062 37.3813 91.0263 37.3238 90.9825 37.2717C90.8756 37.1429 90.7111 37.0634 90.5357 37.0634C90.5165 37.0634 90.4974 37.0634 90.4754 37.0662C90.1465 37.099 89.9081 37.4005 89.952 37.7294L90.618 44.3484C90.6646 44.7458 90.7358 45.6091 90.7577 46.0038C90.9222 48.539 91.1853 51.7457 91.2319 54.2809C91.3141 56.2351 91.3717 58.9622 91.3333 60.8944C91.3251 61.8317 91.3388 63.2652 91.2812 64.1915C91.21 66.0827 91.0757 68.8837 90.8701 70.7447C90.8016 71.6958 90.6481 73.0278 90.5056 73.9871C90.4426 74.4968 90.3713 75.0176 90.2918 75.5438C78.4818 71.0928 80.2003 55.2128 80.6772 51.9979C80.6991 52.0719 80.721 52.1431 80.7457 52.2171C81.2226 53.7026 81.8228 55.1443 82.5464 56.5256C83.5386 58.3729 84.7911 60.1051 86.4493 61.4206C86.5561 61.5056 86.6685 61.5412 86.7754 61.5412C87.2002 61.5412 87.5264 60.9657 87.1153 60.6094C85.6818 59.313 84.6321 57.6466 83.8263 55.8925C83.3412 54.8017 82.9219 53.656 82.5902 52.4939C80.8663 42.0708 86.1176 26.6019 86.1176 26.6019C106.062 44.743 99.3226 63.1281 94.5236 71.3998Z" fill="#1E1D1E"></path>
    <path d="M32.4616 66.0826C32.489 66.1429 32.5054 66.2114 32.5109 66.28C32.5109 66.2114 32.4917 66.1429 32.4616 66.0826ZM31.505 65.814C31.6613 65.814 31.8148 65.8113 31.971 65.8031C31.7654 65.8113 31.5599 65.814 31.3543 65.8113C31.4064 65.8113 31.4557 65.814 31.505 65.814ZM29.3755 65.6277C29.0246 65.5674 28.6738 65.4934 28.3285 65.4084C28.6766 65.4961 29.0246 65.5701 29.3755 65.6277ZM25.659 66.0004C25.3191 65.888 24.9793 65.7674 24.6449 65.6414C24.9793 65.7702 25.3191 65.8908 25.659 66.0004ZM72.0273 88.4226C69.1659 88.4226 65.6605 88.768 61.6096 89.708C51.8662 91.9692 46.4806 95.9378 45.1431 97.8344C45.1815 97.8536 45.2199 97.8755 45.2582 97.8947C45.3404 97.9358 45.4254 97.9769 45.5186 98.0181C45.853 98.1633 46.2641 98.3086 46.7492 98.4401C46.8698 98.4758 46.9931 98.5087 47.1219 98.5388C47.2645 98.5744 47.4152 98.6101 47.5714 98.643C48.9747 98.9472 50.8302 99.161 53.0886 99.161C53.9958 99.161 54.9715 99.1253 56.0075 99.0486C56.15 99.0376 56.2953 99.0267 56.4406 99.0157C56.7311 98.991 57.0271 98.9609 57.3258 98.9307C57.4766 98.917 57.6273 98.9006 57.7808 98.8814C58.6715 98.7773 59.6034 98.6429 60.5709 98.4758C61.278 98.3524 62.0071 98.2099 62.7526 98.0482C63.002 97.9934 63.2541 97.9358 63.5063 97.8783C73.2497 95.6171 78.6353 91.6485 79.9701 89.7519C78.7806 89.0996 76.0425 88.4226 72.0273 88.4226ZM72.0273 88.4226C69.1659 88.4226 65.6605 88.768 61.6096 89.708C51.8662 91.9692 46.4806 95.9378 45.1431 97.8344C45.1815 97.8536 45.2199 97.8755 45.2582 97.8947C45.3404 97.9358 45.4254 97.9769 45.5186 98.0181C45.853 98.1633 46.2641 98.3086 46.7492 98.4401C46.8698 98.4758 46.9931 98.5087 47.1219 98.5388C47.2645 98.5744 47.4152 98.6101 47.5714 98.643C48.9747 98.9472 50.8302 99.161 53.0886 99.161C53.9958 99.161 54.9715 99.1253 56.0075 99.0486C56.15 99.0376 56.2953 99.0267 56.4406 99.0157C56.7311 98.991 57.0271 98.9609 57.3258 98.9307C57.4766 98.917 57.6273 98.9006 57.7808 98.8814C58.6715 98.7773 59.6034 98.6429 60.5709 98.4758C61.278 98.3524 62.0071 98.2099 62.7526 98.0482C63.002 97.9934 63.2541 97.9358 63.5063 97.8783C73.2497 95.6171 78.6353 91.6485 79.9701 89.7519C78.7806 89.0996 76.0425 88.4226 72.0273 88.4226ZM32.5109 66.28C32.5109 66.2114 32.4917 66.1429 32.4616 66.0826C32.489 66.1429 32.5054 66.2114 32.5109 66.28ZM31.505 65.814C31.6613 65.814 31.8148 65.8113 31.971 65.8031C31.7654 65.8113 31.5599 65.814 31.3543 65.8113C31.4064 65.8113 31.4557 65.814 31.505 65.814ZM29.3755 65.6277C29.0246 65.5674 28.6738 65.4934 28.3285 65.4084C28.6766 65.4961 29.0246 65.5701 29.3755 65.6277ZM25.659 66.0004C25.3191 65.888 24.9793 65.7674 24.6449 65.6414C24.9793 65.7702 25.3191 65.8908 25.659 66.0004ZM106.523 42.9259C104.22 34.7885 99.2541 27.2103 91.7636 20.394C90.2151 18.988 88.2115 18.2123 86.1176 18.2123C85.4105 18.2123 84.7061 18.3001 84.0209 18.4782C81.2719 19.1881 79.0875 21.2162 78.1749 23.9049C78.1091 24.0968 77.0457 27.2514 75.9932 31.7052C74.4173 27.2158 72.1781 23.0361 69.2948 19.2127C63.2569 11.2042 54.4946 4.94703 43.252 0.616612C42.1913 0.208237 41.0758 -6.10352e-05 39.9411 -6.10352e-05C37.9979 -6.10352e-05 36.1369 0.600167 34.561 1.7321C32.0285 3.55198 30.5978 6.50104 30.7321 9.61456C30.7458 9.97634 31.135 18.5632 33.2317 27.9229C33.9772 31.2529 34.8625 34.3198 35.8683 37.0688C35.512 38.3899 35.4518 39.7849 35.7039 41.1471C35.7286 41.2924 35.7998 41.6651 35.9286 42.2215C35.4956 41.931 35.0571 41.6487 34.6131 41.3746C27.9832 37.2936 20.0157 35.2243 10.9328 35.2243C9.91327 35.2243 8.86355 35.2517 7.81658 35.3038C5.03744 35.4408 2.5406 36.9565 1.13458 39.3546C-0.274172 41.7528 -0.375581 44.6717 0.860506 47.1631C0.986581 47.418 4.00417 53.4751 8.50999 59.5952C10.1243 61.7906 11.7578 63.753 13.3803 65.4522C13.5914 66.554 14.0272 67.6092 14.6685 68.5466C14.9207 68.9166 17.2393 72.2411 20.9915 75.5766C26.5854 80.5484 32.7329 83.1768 38.7653 83.1768C38.8476 83.1768 38.9298 83.1741 39.0093 83.1741C34.9474 86.0738 32.1875 89.3545 30.8007 92.9257C29.4522 96.401 29.6989 99.4076 30.1401 101.318C30.5841 103.228 31.6887 106.035 34.4294 108.559C37.2935 111.198 41.3033 112.942 46.3436 113.739C48.4183 114.065 50.6712 114.232 53.0365 114.232C57.408 114.232 62.2071 113.654 66.913 112.563C74.2309 110.864 80.9759 108.022 85.9011 104.558C90.9825 100.981 94.0439 96.8806 95.0059 92.3556C95.9241 90.4755 96.6531 88.3294 97.2917 85.6462V85.6325C97.6316 84.1854 97.9248 82.6122 98.1633 80.9431C99.7337 79.0053 104.884 72.0876 107.043 62.2236C108.474 55.6978 108.299 49.205 106.523 42.9259ZM102.76 61.2863C100.534 71.4408 94.699 78.2626 94.4523 78.5476C94.3125 78.7093 94.159 78.8519 94.0001 78.9834C93.7671 80.8883 93.4546 82.8013 93.0243 84.6349C92.531 86.7124 91.9034 88.7872 90.9304 90.7057C90.8948 90.7769 90.8537 90.8509 90.8153 90.9249C90.3603 93.7425 88.5459 97.3356 83.3768 100.97C78.9039 104.116 72.7043 106.717 65.9236 108.29C61.4808 109.321 57.0682 109.847 53.0365 109.847C50.9124 109.847 48.8925 109.702 47.0288 109.406C37.5375 107.907 35.0516 103.072 34.413 100.326C33.7744 97.5768 33.8785 92.1446 41.7391 86.6165C43.9317 85.0734 46.5436 83.6619 49.4352 82.4368C49.3091 82.1435 49.1775 81.8557 49.0487 81.5762C48.9336 81.3295 48.6787 80.8005 48.5718 80.5676C48.0675 79.6412 47.4454 78.4846 46.8753 77.6076C46.7382 77.3828 46.5957 77.1581 46.4532 76.9306C43.9865 78.1639 41.402 78.7916 38.7653 78.7916C33.8237 78.7916 28.6848 76.5441 23.9049 72.2987C20.4817 69.2564 18.3768 66.2005 18.2891 66.0717C17.7601 65.3015 17.549 64.3943 17.6395 63.52C15.7895 61.7275 13.923 59.5514 12.0428 56.997C7.7645 51.1865 4.90862 45.4556 4.78803 45.2144C4.21521 44.0578 4.2618 42.6874 4.91684 41.5719C5.56915 40.4564 6.7422 39.7466 8.0331 39.6835C9.00881 39.6342 9.98453 39.6095 10.9328 39.6095C29.3097 39.6095 38.7434 48.7034 43.4219 56.331C48.4183 64.4738 49.0706 72.6002 49.0953 72.9428C49.109 73.1456 49.1063 73.3484 49.0898 73.5485C50.2245 74.9901 51.3071 76.4921 52.2609 78.0214C52.8173 78.9204 53.349 79.844 53.8204 80.7978C55.5553 80.2277 57.3505 79.7234 59.1923 79.2959C61.944 78.6573 64.6821 78.216 67.3296 77.9693C67.3927 77.5253 67.4393 77.0594 67.4749 76.6675L67.4968 76.4509C67.5023 76.3221 67.516 75.9055 67.5215 75.7685C67.5763 74.9052 67.5379 73.8582 67.516 72.9921C67.516 72.7537 67.4886 72.285 67.4639 72.0493C67.3817 70.9228 67.2392 69.3441 67.061 68.2451C67.0144 67.9436 66.9733 67.5955 66.9267 67.2502C66.554 67.2694 66.1867 67.2776 65.8222 67.2776C60.8833 67.2776 56.3912 65.7263 52.4664 62.6676C49.5037 60.3572 46.9109 57.2025 44.7567 53.2915C41.2567 46.9356 40.0645 40.6181 40.0151 40.3523C39.8014 39.1929 40.0206 38.0418 40.5715 37.0798C39.3848 34.1362 38.3624 30.7623 37.5128 26.9636C35.5011 17.9876 35.1283 9.77078 35.1119 9.42544C35.0434 7.79743 35.7971 6.24615 37.1209 5.2951C37.9541 4.69488 38.9435 4.38517 39.9411 4.38517C40.5249 4.38517 41.1142 4.49206 41.676 4.70858C64.9561 13.6764 71.9972 29.3728 73.8061 40.9607C75.7411 53.3517 72.1561 63.5748 72.0026 64.0051C71.9149 64.2463 71.8108 64.4765 71.6902 64.6958C71.9259 65.603 72.1616 66.576 72.3014 67.3187C72.4165 67.9025 72.6358 68.7878 72.7235 69.377C72.7646 69.6648 73.099 71.7231 73.1373 71.9972C73.2607 73.1977 73.4224 74.5708 73.4443 75.7822C73.4717 76.429 73.4744 77.095 73.4525 77.761C75.075 77.8131 76.6291 77.9474 78.0872 78.1804C83.6591 79.0602 86.8138 81.0883 88.6007 83.1713C88.8776 82.2477 89.1763 81.2144 89.3627 80.3401C89.4257 80.077 89.4887 79.8056 89.5518 79.5316C85.6709 78.2324 82.5683 75.8809 80.3181 72.5344C78.501 69.832 77.2841 66.5157 76.7003 62.6813C75.7575 56.4817 76.7908 50.9125 76.8346 50.6768C77.0183 49.7175 77.5335 48.8953 78.2461 48.3142C78.2132 45.6858 78.4352 42.7724 78.9176 39.5821C80.0578 32.045 82.2339 25.585 82.3271 25.3137C82.7602 24.0365 83.8099 23.0608 85.1172 22.7237C85.4489 22.6387 85.786 22.5976 86.1176 22.5976C87.1043 22.5976 88.0663 22.9594 88.8145 23.6391C104.108 37.5512 104.84 51.7922 102.76 61.2863ZM63.139 73.3457C63.1445 73.5786 63.15 73.8253 63.1554 74.0692C61.5055 74.3214 59.8501 74.642 58.2001 75.023C57.4382 75.2012 56.6763 75.393 55.9171 75.5958C55.1853 74.431 54.3439 73.2141 53.4065 71.9698C53.3243 71.2024 53.1434 69.8786 52.7789 68.1711C55.9417 70.0238 59.3704 71.1448 63.0239 71.523C63.0486 71.8163 63.0705 72.1013 63.0897 72.3617L63.0951 72.4412L63.1034 72.5207C63.1143 72.6194 63.128 72.8962 63.1308 72.9948V73.1127L63.139 73.3457ZM61.6096 89.708C51.8662 91.9692 46.4806 95.9378 45.1431 97.8344C45.1815 97.8536 45.2199 97.8755 45.2582 97.8947C45.3404 97.9358 45.4254 97.9769 45.5186 98.0181C45.853 98.1633 46.2641 98.3086 46.7492 98.4401C46.8698 98.4758 46.9931 98.5087 47.1219 98.5388C47.2645 98.5744 47.4152 98.6101 47.5714 98.643C48.9747 98.9472 50.8302 99.161 53.0886 99.161C53.9958 99.161 54.9715 99.1253 56.0075 99.0486C56.15 99.0376 56.2953 99.0267 56.4406 99.0157C56.7311 98.991 57.0271 98.9609 57.3258 98.9307C57.4766 98.917 57.6273 98.9006 57.7808 98.8814C58.6715 98.7773 59.6034 98.6429 60.5709 98.4758C61.278 98.3524 62.0071 98.2099 62.7526 98.0482C63.002 97.9934 63.2541 97.9358 63.5063 97.8783C73.2497 95.6171 78.6353 91.6485 79.9701 89.7519C78.7806 89.0996 76.0425 88.4226 72.0273 88.4226C69.1659 88.4226 65.6605 88.768 61.6096 89.708ZM32.5109 66.28C32.5109 66.2114 32.4917 66.1429 32.4616 66.0826C32.489 66.1429 32.5054 66.2114 32.5109 66.28ZM31.505 65.814C31.6613 65.814 31.8148 65.8113 31.971 65.8031C31.7654 65.8113 31.5599 65.814 31.3543 65.8113C31.4064 65.8113 31.4557 65.814 31.505 65.814ZM29.3755 65.6277C29.0246 65.5674 28.6738 65.4934 28.3285 65.4084C28.6766 65.4961 29.0246 65.5701 29.3755 65.6277ZM25.659 66.0004C25.3191 65.888 24.9793 65.7674 24.6449 65.6414C24.9793 65.7702 25.3191 65.8908 25.659 66.0004ZM32.4616 66.0826C32.489 66.1429 32.5054 66.2114 32.5109 66.28C32.5109 66.2114 32.4917 66.1429 32.4616 66.0826ZM31.505 65.814C31.6613 65.814 31.8148 65.8113 31.971 65.8031C31.7654 65.8113 31.5599 65.814 31.3543 65.8113C31.4064 65.8113 31.4557 65.814 31.505 65.814ZM29.3755 65.6277C29.0246 65.5674 28.6738 65.4934 28.3285 65.4084C28.6766 65.4961 29.0246 65.5701 29.3755 65.6277ZM25.659 66.0004C25.3191 65.888 24.9793 65.7674 24.6449 65.6414C24.9793 65.7702 25.3191 65.8908 25.659 66.0004ZM72.0273 88.4226C69.1659 88.4226 65.6605 88.768 61.6096 89.708C51.8662 91.9692 46.4806 95.9378 45.1431 97.8344C45.1815 97.8536 45.2199 97.8755 45.2582 97.8947C45.3404 97.9358 45.4254 97.9769 45.5186 98.0181C45.853 98.1633 46.2641 98.3086 46.7492 98.4401C46.8698 98.4758 46.9931 98.5087 47.1219 98.5388C47.2645 98.5744 47.4152 98.6101 47.5714 98.643C48.9747 98.9472 50.8302 99.161 53.0886 99.161C53.9958 99.161 54.9715 99.1253 56.0075 99.0486C56.15 99.0376 56.2953 99.0267 56.4406 99.0157C56.7311 98.991 57.0271 98.9609 57.3258 98.9307C57.4766 98.917 57.6273 98.9006 57.7808 98.8814C58.6715 98.7773 59.6034 98.6429 60.5709 98.4758C61.278 98.3524 62.0071 98.2099 62.7526 98.0482C63.002 97.9934 63.2541 97.9358 63.5063 97.8783C73.2497 95.6171 78.6353 91.6485 79.9701 89.7519C78.7806 89.0996 76.0425 88.4226 72.0273 88.4226ZM72.0273 88.4226C69.1659 88.4226 65.6605 88.768 61.6096 89.708C51.8662 91.9692 46.4806 95.9378 45.1431 97.8344C45.1815 97.8536 45.2199 97.8755 45.2582 97.8947C45.3404 97.9358 45.4254 97.9769 45.5186 98.0181C45.853 98.1633 46.2641 98.3086 46.7492 98.4401C46.8698 98.4758 46.9931 98.5087 47.1219 98.5388C47.2645 98.5744 47.4152 98.6101 47.5714 98.643C48.9747 98.9472 50.8302 99.161 53.0886 99.161C53.9958 99.161 54.9715 99.1253 56.0075 99.0486C56.15 99.0376 56.2953 99.0267 56.4406 99.0157C56.7311 98.991 57.0271 98.9609 57.3258 98.9307C57.4766 98.917 57.6273 98.9006 57.7808 98.8814C58.6715 98.7773 59.6034 98.6429 60.5709 98.4758C61.278 98.3524 62.0071 98.2099 62.7526 98.0482C63.002 97.9934 63.2541 97.9358 63.5063 97.8783C73.2497 95.6171 78.6353 91.6485 79.9701 89.7519C78.7806 89.0996 76.0425 88.4226 72.0273 88.4226ZM32.4616 66.0826C32.489 66.1429 32.5054 66.2114 32.5109 66.28C32.5109 66.2114 32.4917 66.1429 32.4616 66.0826ZM31.505 65.814C31.6613 65.814 31.8148 65.8113 31.971 65.8031C31.7654 65.8113 31.5599 65.814 31.3543 65.8113C31.4064 65.8113 31.4557 65.814 31.505 65.814ZM29.3755 65.6277C29.0246 65.5674 28.6738 65.4934 28.3285 65.4084C28.6766 65.4961 29.0246 65.5701 29.3755 65.6277ZM25.659 66.0004C25.3191 65.888 24.9793 65.7674 24.6449 65.6414C24.9793 65.7702 25.3191 65.8908 25.659 66.0004ZM72.0273 88.4226C69.1659 88.4226 65.6605 88.768 61.6096 89.708C51.8662 91.9692 46.4806 95.9378 45.1431 97.8344C45.1815 97.8536 45.2199 97.8755 45.2582 97.8947C45.3404 97.9358 45.4254 97.9769 45.5186 98.0181C45.853 98.1633 46.2641 98.3086 46.7492 98.4401C46.8698 98.4758 46.9931 98.5087 47.1219 98.5388C47.2645 98.5744 47.4152 98.6101 47.5714 98.643C48.9747 98.9472 50.8302 99.161 53.0886 99.161C53.9958 99.161 54.9715 99.1253 56.0075 99.0486C56.15 99.0376 56.2953 99.0267 56.4406 99.0157C56.7311 98.991 57.0271 98.9609 57.3258 98.9307C57.4766 98.917 57.6273 98.9006 57.7808 98.8814C58.6715 98.7773 59.6034 98.6429 60.5709 98.4758C61.278 98.3524 62.0071 98.2099 62.7526 98.0482C63.002 97.9934 63.2541 97.9358 63.5063 97.8783C73.2497 95.6171 78.6353 91.6485 79.9701 89.7519C78.7806 89.0996 76.0425 88.4226 72.0273 88.4226ZM32.4616 66.0826C32.489 66.1429 32.5054 66.2114 32.5109 66.28C32.5109 66.2114 32.4917 66.1429 32.4616 66.0826ZM31.505 65.814C31.6613 65.814 31.8148 65.8113 31.971 65.8031C31.7654 65.8113 31.5599 65.814 31.3543 65.8113C31.4064 65.8113 31.4557 65.814 31.505 65.814ZM29.3755 65.6277C29.0246 65.5674 28.6738 65.4934 28.3285 65.4084C28.6766 65.4961 29.0246 65.5701 29.3755 65.6277ZM25.659 66.0004C25.3191 65.888 24.9793 65.7674 24.6449 65.6414C24.9793 65.7702 25.3191 65.8908 25.659 66.0004ZM72.0273 88.4226C69.1659 88.4226 65.6605 88.768 61.6096 89.708C51.8662 91.9692 46.4806 95.9378 45.1431 97.8344C45.1815 97.8536 45.2199 97.8755 45.2582 97.8947C45.3404 97.9358 45.4254 97.9769 45.5186 98.0181C45.853 98.1633 46.2641 98.3086 46.7492 98.4401C46.8698 98.4758 46.9931 98.5087 47.1219 98.5388C47.2645 98.5744 47.4152 98.6101 47.5714 98.643C48.9747 98.9472 50.8302 99.161 53.0886 99.161C53.9958 99.161 54.9715 99.1253 56.0075 99.0486C56.15 99.0376 56.2953 99.0267 56.4406 99.0157C56.7311 98.991 57.0271 98.9609 57.3258 98.9307C57.4766 98.917 57.6273 98.9006 57.7808 98.8814C58.6715 98.7773 59.6034 98.6429 60.5709 98.4758C61.278 98.3524 62.0071 98.2099 62.7526 98.0482C63.002 97.9934 63.2541 97.9358 63.5063 97.8783C73.2497 95.6171 78.6353 91.6485 79.9701 89.7519C78.7806 89.0996 76.0425 88.4226 72.0273 88.4226ZM32.4616 66.0826C32.489 66.1429 32.5054 66.2114 32.5109 66.28C32.5109 66.2114 32.4917 66.1429 32.4616 66.0826ZM31.505 65.814C31.6613 65.814 31.8148 65.8113 31.971 65.8031C31.7654 65.8113 31.5599 65.814 31.3543 65.8113C31.4064 65.8113 31.4557 65.814 31.505 65.814ZM29.3755 65.6277C29.0246 65.5674 28.6738 65.4934 28.3285 65.4084C28.6766 65.4961 29.0246 65.5701 29.3755 65.6277ZM25.659 66.0004C25.3191 65.888 24.9793 65.7674 24.6449 65.6414C24.9793 65.7702 25.3191 65.8908 25.659 66.0004Z" fill="#EFEAE8"></path>
  </g>
  <defs>
    <clipPath id="clip0_237_3175">
      <rect width="108" height="114.233" fill="white"></rect>
    </clipPath>
  </defs>
</svg>
