<?xml version="1.0" encoding="UTF-8"?>
<svg xmlns="http://www.w3.org/2000/svg" width="58" height="65" viewBox="0 0 58 65" fill="none">
  <g clip-path="url(#clip0_237_3190)">
    <path d="M52.4088 52.3801C51.1619 52.6519 49.9312 51.8646 49.6575 50.6172C49.5549 50.1539 49.2837 49.5196 49.0789 49.0494L49.0157 48.8991C48.9726 48.8152 48.8312 48.5392 48.7862 48.4474C48.5129 47.8659 48.1142 47.1972 47.7889 46.6429C47.7035 46.4874 47.5178 46.1927 47.4185 46.049C46.9629 45.3438 46.3036 44.3648 45.7941 43.7144C45.6572 43.5357 45.5038 43.3233 45.3518 43.1169C43.8448 44.0417 42.2565 44.7054 40.62 45.0979C28.7606 47.9428 18.6425 35.764 18.2167 35.2442C17.6655 34.5681 17.3942 33.7411 17.4081 32.9169C15.582 31.4264 13.7099 29.595 11.7966 27.426C7.27585 22.3037 4.09304 17.0887 3.96092 16.8691C3.33227 15.8346 3.26574 14.5523 3.78668 13.4599C4.25622 12.4761 5.14266 11.7651 6.18949 11.514C6.30426 11.4865 6.42244 11.4644 6.54204 11.4483C24.8955 8.947 35.0925 16.6424 40.4169 23.5382C46.1093 30.9133 47.4375 38.8515 47.49 39.1844C47.5208 39.3738 47.5367 39.5627 47.5354 39.7493C48.0122 40.2548 48.5143 40.8045 48.8709 41.2361C49.1549 41.5743 49.615 42.0712 49.8835 42.4235C50.0131 42.5976 50.9663 43.8159 51.0895 43.9811C51.6006 44.7171 52.1967 45.5541 52.6432 46.3349C53.2004 47.2545 53.7182 48.2632 54.0721 49.286C54.5732 50.5919 53.7872 52.0892 52.4088 52.3801Z" fill="#1E1D1E"></path>
    <path d="M6.18943 11.5141C6.3042 11.4866 6.42238 11.4645 6.54198 11.4484C24.8954 8.94711 35.0925 16.6425 40.4168 23.5383C46.1092 30.9134 47.4374 38.8516 47.49 39.1845C47.5207 39.3739 47.5367 39.5628 47.5353 39.7495C48.0122 40.2549 48.5142 40.8046 48.8708 41.2363C49.1548 41.5744 49.6149 42.0713 49.8835 42.4236C50.0131 42.5977 50.9662 43.8161 51.0895 43.9812C51.6006 44.7172 52.1966 45.5542 52.6431 46.335C53.2003 47.2546 53.7182 48.2633 54.072 49.2862C54.5664 50.5727 53.8098 52.0441 52.4701 52.3655C52.4503 52.3702 52.4305 52.3749 52.4088 52.3802C51.1619 52.6521 49.9311 51.8647 49.6574 50.6174C49.5548 50.1541 49.2836 49.5197 49.0789 49.0495L49.0157 48.8992C48.9726 48.8153 48.8311 48.5393 48.7861 48.4475C48.5129 47.866 48.1141 47.1973 47.7888 46.643C47.7035 46.4876 47.5178 46.1929 47.4185 46.0492C46.9629 45.3439 46.3036 44.365 45.7941 43.7145C45.6571 43.5358 45.5037 43.3234 45.3517 43.117C43.8448 44.0418 42.2564 44.7055 40.6199 45.0981C28.7605 47.9429 18.6425 35.7641 18.2166 35.2443C17.6654 34.5682 17.3941 33.7412 17.408 32.917C15.582 31.4265 13.7098 29.5951 11.7966 27.4261C7.27579 22.3038 4.09299 17.0888 3.96086 16.8692C3.33222 15.8347 3.26568 14.5524 3.78662 13.46C4.25617 12.4762 5.1426 11.7652 6.18943 11.5141ZM5.66763 9.33581C3.94996 9.74785 2.52867 10.8992 1.76642 12.4955C0.916503 14.2762 1.0228 16.3448 2.04686 18.034C2.07455 18.0797 5.37301 23.5329 10.1179 28.9093C11.8529 30.8761 13.58 32.5998 15.2678 34.0461C15.4456 34.9981 15.8604 35.8996 16.4818 36.6593C16.7896 37.0357 19.5853 40.3814 23.8764 43.2868C29.6742 47.2149 35.6444 48.595 41.1417 47.2763C42.3568 46.9849 43.5489 46.5628 44.7022 46.0139C44.9641 46.3908 45.2507 46.8184 45.5395 47.2642L45.559 47.293L45.5785 47.3219C45.6461 47.4208 45.789 47.6504 45.8288 47.7204L45.8438 47.7482L45.8608 47.7756L45.9385 47.9077C46.2279 48.3995 46.5537 48.9558 46.7621 49.3979L46.7704 49.4148L46.7786 49.4317C46.8183 49.5101 46.9224 49.7176 46.9883 49.8441L47.0182 49.9165L47.0215 49.9304L47.0288 49.9433C47.1346 50.1839 47.4141 50.8267 47.4736 51.1014C48.0102 53.5421 50.4338 55.0987 52.8811 54.5703C52.9187 54.5613 52.9563 54.5523 52.9939 54.5433C54.2525 54.2413 55.3257 53.4017 55.9352 52.242C56.5436 51.0868 56.6313 49.7318 56.1796 48.5188C55.8132 47.4697 55.2732 46.3511 54.5751 45.1931C54.1339 44.4257 53.5912 43.645 53.1107 42.9582L52.9316 42.6996L52.9092 42.6673L52.8853 42.6374C52.82 42.5484 52.6513 42.3334 52.2852 41.8621C52.0551 41.5655 51.7378 41.1579 51.6822 41.0833L51.6759 41.0743L51.6666 41.0619C51.4473 40.7753 51.1769 40.4674 50.9152 40.17C50.7975 40.037 50.6852 39.909 50.592 39.7994C50.3564 39.5146 50.0547 39.1723 49.6943 38.7772C49.5689 38.0178 48.0932 29.8134 42.1912 22.1662C38.7025 17.6486 34.359 14.2009 29.285 11.9231C22.6624 8.95506 14.9094 8.04655 6.23825 9.22825C6.04749 9.25307 5.85364 9.29119 5.66565 9.33629L5.66763 9.33581Z" fill="#EFEAE8"></path>
    <path d="M41.1058 38.1906C41.5859 38.7183 42.5402 39.7668 43.0398 40.3149C41.9499 40.9282 40.862 41.3483 39.7835 41.607C35.4933 42.6361 31.3596 41.1128 28.0686 39.0711C27.1275 38.4885 26.256 37.8642 25.4694 37.2446C25.4204 37.2061 25.3709 37.1656 25.3219 37.1271C25.032 36.8951 24.7529 36.6647 24.4851 36.4378C24.351 36.3234 24.2218 36.212 24.0965 36.0997C24.0118 36.0258 23.9291 35.9514 23.8469 35.8789C23.8068 35.8425 23.7667 35.8061 23.7266 35.7696C23.6463 35.6967 23.5685 35.6253 23.4908 35.554C23.3753 35.4476 23.2643 35.3423 23.1562 35.2405C23.0833 35.1722 23.0129 35.1053 22.9444 35.0379C22.7728 34.8718 22.611 34.7117 22.4595 34.5596C22.3988 34.4987 22.3407 34.4394 22.2825 34.38C21.8725 33.9612 21.5526 33.6128 21.3343 33.3657C22.6866 33.9355 24.0792 34.3679 25.5203 34.6881C27.3571 35.0704 29.2684 35.2046 31.1254 34.824C31.3673 34.7765 31.5323 34.5484 31.5002 34.3006C31.4658 34.0346 31.2148 33.8519 30.9518 33.8982C30.1018 34.01 29.2404 34.0219 28.3794 33.9394C27.5186 33.8402 26.6624 33.6728 25.8206 33.4434C24.785 33.1473 23.7536 32.7728 22.7575 32.327C22.7575 32.327 22.7531 32.326 22.7506 32.3245C14.6091 27.497 7.02563 15.0054 7.02563 15.0054C30.9583 11.7458 39.7054 26.9632 42.6257 35.0221C41.7569 34.2693 40.8539 33.4787 39.9988 32.7918C39.1866 32.1616 37.2228 30.5679 36.4144 29.9975C34.5238 28.6041 32.2298 26.9598 30.2419 25.6672C28.3489 24.3602 25.8576 22.8617 23.8991 21.6395C22.9838 21.0507 18.4766 18.5009 17.4165 17.8757C16.7801 17.5425 16.3332 18.4287 16.8728 18.7767C17.416 19.149 21.9341 22.2156 22.4155 22.5482C24.0155 23.7328 26.2304 25.2914 27.8073 26.5109C29.6174 27.9257 31.8527 29.6573 33.574 31.1647C33.9862 31.5139 34.8615 32.2504 35.2653 32.5996C35.6063 32.9136 37.6018 34.7446 37.98 35.0916C39.0116 36.0524 40.1061 37.197 41.1058 38.1906Z" fill="#EFEAE8"></path>
  </g>
  <defs>
    <clipPath id="clip0_237_3190">
      <rect width="45.851" height="54.9999" fill="white" transform="matrix(0.972413 -0.233264 0.232958 0.972487 0 10.6954)"></rect>
    </clipPath>
  </defs>
</svg>
