<?xml version="1.0" encoding="UTF-8"?>
<svg xmlns="http://www.w3.org/2000/svg" width="83" height="88" viewBox="0 0 83 88" fill="none">
  <path d="M33.852 57.003C33.852 57.003 31.932 30.9741 3.17285 32.3993C3.17285 32.3993 12.555 51.3224 21.5604 50.9616C21.5604 50.9616 16.9533 51.2135 14.1255 49.2867C14.1255 49.2867 23.3465 62.7675 33.8497 57.003H33.852Z" fill="white"></path>
  <path d="M5.41733 32.3425C32.0318 32.3425 33.8519 57.0029 33.8519 57.0029C32 58.0197 30.1912 58.4373 28.4641 58.4373C20.387 58.4373 14.1277 49.2866 14.1277 49.2866C16.37 50.814 19.7288 50.9729 21.0247 50.9729C21.3629 50.9729 21.5603 50.9615 21.5603 50.9615C21.4741 50.9661 21.3901 50.9661 21.3061 50.9661C12.3779 50.9661 3.17279 32.3993 3.17279 32.3993C3.93989 32.3607 4.68655 32.3425 5.41733 32.3425ZM5.41733 29.1675C4.63208 29.1675 3.82414 29.1879 3.0162 29.2288C1.94726 29.281 0.975911 29.871 0.435769 30.7924C-0.104373 31.7139 -0.145224 32.8486 0.329102 33.8086C0.42896 34.0083 2.79379 38.7539 6.33648 43.5652C7.89336 45.6804 9.43889 47.4824 10.9708 48.9666C10.8982 49.6906 11.0729 50.4418 11.5087 51.0795C11.5813 51.1862 13.3266 53.7167 16.1589 56.2358C20.1169 59.7536 24.3722 61.6123 28.4641 61.6123C30.8471 61.6123 33.1734 60.9973 35.3816 59.7854C36.4709 59.1862 37.1109 58.0083 37.0202 56.7692C36.9997 56.4855 36.4619 49.7587 32.3223 43.0137C28.4483 36.6977 20.6344 29.1697 5.4196 29.1697L5.41733 29.1675Z" fill="#1E1D1E"></path>
  <path d="M38.062 67.0047C37.8782 65.9743 37.4334 64.8918 36.9772 63.9182C36.8819 63.7139 36.6731 63.2759 36.5823 63.0853C36.167 62.3182 35.6518 61.3582 35.1775 60.6319C34.3173 59.2226 33.2666 57.7406 32.2475 56.4356C30.7565 54.4543 28.8751 52.3437 27.1775 50.5213C26.6895 49.9698 25.877 49.1777 25.3551 48.6489C24.2907 47.5482 22.7247 46.0549 21.5832 45.0087C20.1329 43.6152 18.1834 41.9721 16.6651 40.6444C16.4314 40.4356 15.9071 39.9931 15.6575 39.7956L11.5656 36.4685C11.3568 36.3096 11.3205 36.0078 11.4861 35.8035C11.6405 35.6129 11.9151 35.5789 12.1148 35.715L16.4677 38.7471C17.6796 39.5959 19.527 41.0166 20.7389 41.9085C21.3312 42.3374 22.2504 43.0909 22.8314 43.5539C24.0841 44.5389 25.7636 45.9187 26.9346 46.9627C27.5111 47.4711 28.3962 48.2064 28.9386 48.7352C30.0824 49.795 31.7346 51.3565 32.79 52.4799C33.6819 53.3559 34.6941 54.5315 35.5338 55.4665C36.9953 57.1845 38.4388 59.0569 39.6348 60.9769C39.8663 61.3173 40.1432 61.837 40.3497 62.1911C41.0192 63.378 41.6206 64.6285 41.9951 65.9539C42.4422 67.2271 41.7182 68.5729 40.3519 68.7681C39.2331 68.9156 38.2073 68.1258 38.0597 67.007L38.062 67.0047Z" fill="#1E1D1E"></path>
  <path d="M14.2527 47.9431C16.7763 49.6044 19.7539 50.9797 22.8359 50.8571C23.3761 50.8208 23.46 51.6106 22.9199 51.6855C20.4234 51.9692 17.9406 51.2656 15.6756 50.2739C14.9063 49.9312 14.1936 49.5749 13.4606 49.1323C12.639 48.5899 13.4356 47.3893 14.2549 47.9408L14.2527 47.9431Z" fill="#1E1D1E"></path>
  <path d="M52.2191 48.0204C52.2191 48.0204 63.3011 17.0463 29.4355 4.00342C29.4355 4.00342 30.5816 30.5975 41.1416 34.7824C41.1416 34.7824 35.7039 32.7194 33.4321 29.0565C33.4321 29.0565 37.17 49.3004 52.2168 48.0204H52.2191Z" fill="white"></path>
  <path d="M29.4355 4.00114C63.2988 17.0462 52.2168 48.0182 52.2168 48.0182C51.7561 48.0567 51.3067 48.0772 50.8664 48.0772C36.9453 48.0772 33.4321 29.0542 33.4321 29.0542C35.7039 32.7149 41.1371 34.7779 41.1416 34.7801C30.5816 30.5929 29.4355 4.00114 29.4355 4.00114ZM29.4355 0C28.6094 0 27.7901 0.256453 27.1002 0.751205C26.004 1.53872 25.3799 2.82553 25.4389 4.17362C25.4502 4.45957 25.7612 11.2613 27.4247 18.6962C28.1305 21.8417 28.9748 24.6355 29.9575 27.0729C29.5013 27.8718 29.3198 28.825 29.4968 29.7827C29.5376 30.0028 30.5249 35.234 33.423 40.497C35.2068 43.7356 37.3538 46.3478 39.8071 48.261C43.0571 50.7938 46.7768 52.0783 50.8641 52.0783C51.4202 52.0783 51.9876 52.0533 52.5549 52.0057C54.1163 51.874 55.4554 50.8414 55.9841 49.3662C56.1112 49.0099 59.0798 40.5469 57.4775 30.2843C55.9796 20.6888 50.1493 7.69135 30.8721 0.2678C30.4068 0.088509 29.9189 0 29.4332 0H29.4355Z" fill="#1E1D1E"></path>
  <path d="M51.9604 61.6942C52.1102 61.1881 52.1851 60.4211 52.2373 59.8537L52.2555 59.6721C52.26 59.5655 52.2714 59.2205 52.2736 59.107C52.319 58.3921 52.2873 57.5252 52.2691 56.808C52.2691 56.6106 52.2464 56.2225 52.226 56.0273C52.1602 55.0945 52.0399 53.785 51.8924 52.875C51.8197 52.3915 51.7539 51.7606 51.6609 51.2908C51.4748 50.3649 51.2524 49.0281 51.0413 48.1226C50.8507 47.3351 50.4694 45.7487 50.2787 44.9612C49.8362 43.452 49.3823 41.7476 48.8898 40.2542C48.706 39.7118 47.7414 36.85 47.5758 36.3598C47.3692 35.8015 46.9085 34.6123 46.6952 34.0494C45.8214 31.6506 44.5664 28.7592 43.5587 26.4057C42.6736 24.3677 41.346 21.6557 40.42 19.6381C40.1273 19.0548 37.3607 13.6307 37.0294 12.9748C36.6912 12.3462 37.6036 11.722 38.0461 12.387C38.7451 13.5672 41.7795 18.4806 42.3582 19.5473C43.6132 21.7941 45.245 24.5947 46.3911 26.8914C47.6393 29.2222 48.9965 32.0613 50.0949 34.4375C50.5783 35.4293 51.6404 38.0392 52.0966 39.0923C52.7207 40.5969 53.3244 42.3286 53.8963 43.8537C54.3707 45.3629 55.0243 47.2262 55.4056 48.7558C55.6711 49.709 56.0478 51.1433 56.2294 52.1079C56.3247 52.5913 56.5063 53.3243 56.5789 53.8123C56.6129 54.0506 56.8898 55.755 56.9216 55.9819C57.0237 56.9759 57.1576 58.113 57.1758 59.1161C57.2257 60.3121 57.1916 61.5762 56.9851 62.7655C56.7741 64.311 55.2013 65.3504 53.6989 64.892C52.3349 64.4903 51.5542 63.0559 51.9582 61.692L51.9604 61.6942Z" fill="#1E1D1E"></path>
  <path d="M34.2651 27.5722C35.8016 30.0164 37.7647 32.2905 40.1295 33.9699C40.9329 34.5169 41.7885 34.973 42.6872 35.3225C42.9573 35.4269 43.0912 35.7311 42.9845 36.0011C42.8847 36.2598 42.5987 36.3938 42.3377 36.3098C41.3278 35.9898 40.3633 35.5472 39.46 35.0094C36.7865 33.3503 34.5715 31.0831 32.74 28.5367C32.0682 27.4928 33.6024 26.5146 34.2651 27.5699V27.5722Z" fill="#1E1D1E"></path>
  <path d="M72.0681 59.2388C72.0681 59.2388 89.9223 38.634 67.6743 18.3945C67.6743 18.3945 60.5799 39.2853 67.4837 45.6876C67.4837 45.6876 63.9024 42.4626 63.2443 38.9494C63.2443 38.9494 60.0579 55.7097 72.0681 59.2365V59.2388Z" fill="white"></path>
  <path d="M67.6744 18.3968C89.9223 38.6362 72.0681 59.2411 72.0681 59.2411C60.0579 55.7142 63.2443 38.954 63.2443 38.954C63.9024 42.4649 67.4792 45.6876 67.4837 45.6921C60.5822 39.2876 67.6744 18.3991 67.6744 18.3991M67.6744 15.0811C67.3975 15.0811 67.1206 15.1151 66.846 15.1854C65.7634 15.4646 64.8942 16.2703 64.5356 17.3301C64.4585 17.5548 62.6565 22.904 61.7124 29.1452C61.3129 31.7869 61.1268 34.1994 61.1563 36.3758C60.564 36.8547 60.1396 37.5378 59.9875 38.3321C59.9512 38.525 59.0934 43.1389 59.8741 48.2725C60.3575 51.4499 61.3651 54.1937 62.8698 56.4337C64.8511 59.3795 67.6312 61.3948 71.1331 62.4229C71.4417 62.5137 71.7549 62.5568 72.0681 62.5568C73.0145 62.5568 73.9336 62.1506 74.5736 61.413C74.7779 61.1769 79.6119 55.5282 81.4525 47.1196C83.1751 39.2581 82.5691 27.4657 69.9053 15.9457C69.288 15.3829 68.4891 15.0833 67.6744 15.0833V15.0811Z" fill="#1E1D1E"></path>
  <path d="M67.7675 69.7261C68.3962 68.8297 68.8682 67.704 69.2541 66.6487C69.3335 66.4286 69.506 65.9497 69.5809 65.7432C69.8419 64.8694 70.1732 63.78 70.3616 62.8949C70.7724 61.22 71.0946 59.35 71.3102 57.632C71.4282 56.8376 71.5553 55.7369 71.6121 54.9471C71.78 53.4061 71.8935 51.089 71.9525 49.5208C72.0002 48.7537 71.9888 47.5667 71.9956 46.7905C72.0274 45.1905 71.9775 42.9324 71.9117 41.3142C71.8753 39.2127 71.6552 36.5596 71.519 34.4581C71.5009 34.1312 71.4419 33.4164 71.4055 33.0873L70.8541 27.6064C70.8177 27.3364 71.0152 27.0844 71.2875 27.0595C71.5417 27.0345 71.7709 27.2115 71.8163 27.4589L72.7809 32.9148C73.0464 34.4376 73.3551 36.8524 73.5888 38.407C73.7068 39.1605 73.8271 40.3974 73.9111 41.169C74.104 42.8235 74.3219 45.0839 74.4126 46.7179C74.4467 47.1968 74.5261 48.3497 74.5556 48.8081C74.5806 50.1267 74.6963 52.403 74.6623 53.7103C74.6441 54.5386 74.6441 55.7074 74.6214 56.5244C74.5783 57.228 74.4966 58.6464 74.4535 59.35C74.2583 61.6989 73.936 64.1477 73.3982 66.4467C72.9897 68.167 72.4699 69.885 71.6643 71.4737C71.5258 71.7483 71.342 72.0683 71.1536 72.3315C69.3403 74.5012 66.1312 72.0388 67.7721 69.7216L67.7675 69.7261Z" fill="#1E1D1E"></path>
  <path d="M64.3338 38.0552C64.6243 39.6212 65.1281 41.1917 65.7772 42.651C66.4422 44.1035 67.3137 45.4833 68.5006 46.5568C68.9273 46.9267 68.3962 47.5781 67.9491 47.2286C66.5761 46.1392 65.5389 44.7049 64.7174 43.1752C64.1159 42.0291 63.6189 40.8377 63.2263 39.6076C63.0924 39.1923 62.9744 38.7928 62.8677 38.3435C62.7701 37.9418 63.0175 37.5378 63.4192 37.4402C63.8436 37.3358 64.2703 37.624 64.3338 38.0552Z" fill="#1E1D1E"></path>
  <path d="M40.2815 87.3282C38.5226 87.3282 36.85 87.2079 35.3067 86.9628C27.4474 85.7214 25.389 81.718 24.8602 79.4439C24.3314 77.1699 24.4176 72.6695 30.9266 68.0919C34.6327 65.4865 39.764 63.3327 45.381 62.03C50.9958 60.7273 56.5538 60.3983 61.027 61.1063C68.8863 62.3478 70.9447 66.3512 71.4735 68.6252C72.0023 70.8993 71.9161 75.3997 65.4071 79.9773C61.701 82.5827 56.5697 84.7364 50.9549 86.0391C47.2761 86.8924 43.6244 87.3282 40.2837 87.3282H40.2815ZM33.7453 77.381C35.4315 78.3024 40.8806 79.2896 48.9487 77.4173C57.0168 75.5449 61.4764 72.2587 62.5816 70.6882C60.8954 69.7668 55.444 68.7795 47.3782 70.6519C39.3101 72.5242 34.8505 75.8105 33.743 77.381H33.7453Z" fill="#1E1D1E"></path>
</svg>
