<?xml version="1.0" encoding="UTF-8"?>
<svg xmlns="http://www.w3.org/2000/svg" width="25" height="25" viewBox="0 0 25 25" fill="none">
  <path d="M12.5026 2.23093C15.8072 2.23093 16.1991 2.24331 17.5049 2.30313C20.859 2.45577 22.4257 4.04723 22.5784 7.37661C22.6382 8.68133 22.6496 9.07327 22.6496 12.3779C22.6496 15.6835 22.6372 16.0744 22.5784 17.3792C22.4247 20.7055 20.8621 22.3 17.5049 22.4527C16.1991 22.5125 15.8093 22.5249 12.5026 22.5249C9.19797 22.5249 8.80604 22.5125 7.50131 22.4527C4.13893 22.299 2.58048 20.7003 2.42783 17.3781C2.36801 16.0734 2.35563 15.6825 2.35563 12.3769C2.35563 9.07224 2.36904 8.68133 2.42783 7.37558C2.58151 4.04723 4.14409 2.45474 7.50131 2.3021C8.80707 2.24331 9.19797 2.23093 12.5026 2.23093ZM12.5026 0C9.14124 0 8.72043 0.0144397 7.40023 0.0742611C2.90537 0.280542 0.407306 2.77448 0.201025 7.27347C0.140172 8.5947 0.125732 9.01551 0.125732 12.3769C0.125732 15.7382 0.140172 16.1601 0.199994 17.4802C0.406275 21.9751 2.90021 24.4732 7.3992 24.6795C8.72043 24.7393 9.14124 24.7537 12.5026 24.7537C15.8639 24.7537 16.2858 24.7393 17.606 24.6795C22.0967 24.4732 24.601 21.9792 24.8042 17.4802C24.865 16.1601 24.8794 15.7382 24.8794 12.3769C24.8794 9.01551 24.865 8.5947 24.8052 7.2745C24.603 2.78376 22.106 0.281574 17.607 0.0752926C16.2858 0.0144397 15.8639 0 12.5026 0ZM12.5026 6.02134C8.99272 6.02134 6.14707 8.86699 6.14707 12.3769C6.14707 15.8867 8.99272 18.7334 12.5026 18.7334C16.0125 18.7334 18.8581 15.8878 18.8581 12.3769C18.8581 8.86699 16.0125 6.02134 12.5026 6.02134ZM12.5026 16.5025C10.2242 16.5025 8.37697 14.6563 8.37697 12.3769C8.37697 10.0985 10.2242 8.25124 12.5026 8.25124C14.781 8.25124 16.6282 10.0985 16.6282 12.3769C16.6282 14.6563 14.781 16.5025 12.5026 16.5025ZM19.1098 4.28549C18.2888 4.28549 17.6235 4.95074 17.6235 5.77071C17.6235 6.59068 18.2888 7.25593 19.1098 7.25593C19.9297 7.25593 20.594 6.59068 20.594 5.77071C20.594 4.95074 19.9297 4.28549 19.1098 4.28549Z" fill="#1E1D1E"></path>
</svg>
