<?xml version="1.0" encoding="UTF-8"?>
<svg xmlns="http://www.w3.org/2000/svg" width="37" height="31" viewBox="0 0 37 31" fill="none">
  <g clip-path="url(#clip0_237_3145)">
    <path d="M31.1613 5.34674C27.7139 1.89929 23.129 0 18.254 0C13.3791 0 8.7942 1.89929 5.34674 5.34674C1.89929 8.7942 0 13.3777 0 18.254C0 22.2288 1.28246 26.2294 3.42983 28.9543C4.01141 29.6931 4.75161 30.2137 5.51214 30.4184C6.44619 30.6706 7.62155 30.2761 8.18822 29.521C8.6505 28.9028 8.78336 27.9294 8.57865 26.6253C8.4824 25.9989 8.36988 25.3726 8.26007 24.7667C8.03367 23.5086 7.79914 22.2085 7.70425 20.9016C7.47649 17.7321 7.96453 14.6236 9.08025 12.1495C10.4169 9.18734 12.5223 7.32466 15.3394 6.61022C17.5125 6.05847 20.0191 6.41908 21.8791 7.5497C23.1968 8.34954 24.12 9.47203 24.5769 10.8196C24.3952 10.8331 24.2122 10.8535 24.0305 10.8819C21.349 11.2981 19.0905 13.0917 18.2757 15.4492C18.2107 15.6417 18.1578 15.8206 18.1171 15.9941C17.7701 17.4664 17.9422 19.1257 18.5889 20.5478C19.2898 22.0906 20.4733 23.2063 21.9225 23.6916C23.2686 24.1417 24.8751 24.1512 26.4517 23.716L26.5168 23.6984C26.5412 23.6903 26.567 23.6835 26.5914 23.6753L26.6307 23.6659H26.632C26.632 23.6659 26.6415 23.6618 26.647 23.6604C26.7459 24.0427 26.8069 24.4033 26.8449 24.7178C26.8828 25.031 26.8978 25.2954 26.9018 25.4865C26.9072 25.6831 26.9005 25.801 26.9005 25.8064L26.8978 25.923C26.8978 26.0857 26.8937 26.2633 26.8896 26.4504C26.8598 27.9254 26.8151 30.1541 28.6398 30.8333C28.938 30.9444 29.262 31 29.5969 31C29.9575 31 30.3317 30.9349 30.699 30.8061C32.033 30.3371 33.2057 29.1658 34.1858 27.3207C35.6825 24.4982 36.5067 21.2785 36.5067 18.254C36.5067 13.3777 34.6088 8.7942 31.1613 5.34674ZM30.0659 23.7933C29.5128 24.5714 28.7659 25.0879 27.8413 25.332C27.7993 24.158 27.4509 21.3341 25.1489 19.7453C23.5276 18.6268 22.4851 18.921 22.1109 19.0986C21.6459 19.3209 21.3585 19.7344 21.3205 20.2306C21.2677 20.9274 21.7056 21.6459 22.5217 22.2017C23.0599 22.5678 23.5479 22.847 23.9885 23.0585C23.3622 23.045 22.7657 22.9501 22.2302 22.7711C19.6178 21.8954 18.4831 18.6756 19.062 16.2165C19.0959 16.0741 19.1393 15.9277 19.1949 15.7664C19.893 13.7437 21.8493 12.2023 24.1796 11.8404C26.9628 11.4079 30.2747 13.3004 30.9973 17.2156C31.3715 19.2369 31.3226 22.0255 30.0659 23.7933Z" fill="#1E1D1E"></path>
    <path d="M26.9005 25.8061L26.8978 25.9227C26.8978 26.0853 26.8937 26.2629 26.8896 26.45L26.9018 25.4861C26.9073 25.6827 26.9005 25.8007 26.9005 25.8061Z" fill="#1E1D1E"></path>
    <path d="M13.5429 21.1602C14.9294 21.0943 15.9689 19.2621 15.8647 17.0679C15.7604 14.8736 14.5519 13.1482 13.1654 13.2141C11.7788 13.28 10.7393 15.1122 10.8435 17.3064C10.9478 19.5007 12.1563 21.2261 13.5429 21.1602Z" fill="#1E1D1E"></path>
  </g>
  <defs>
    <clipPath id="clip0_237_3145">
      <rect width="36.5067" height="31" fill="white"></rect>
    </clipPath>
  </defs>
</svg>
