<?xml version="1.0" encoding="UTF-8"?>
<svg xmlns="http://www.w3.org/2000/svg" width="191" height="40" viewBox="0 0 191 40" fill="none">
  <g clip-path="url(#clip0_237_3150)">
    <path d="M180.201 1.06235C180.201 0.480585 179.484 0.359535 179.2 0.359535H54.2465C54.167 0.359535 54.0839 0.350502 54.0044 0.334241C53.0649 0.12105 52.017 0 50.8282 0C49.6394 0 48.6746 0.12105 47.755 0.330628C47.6719 0.350502 47.5906 0.359535 47.5075 0.359535H1.13281C0.507686 0.359535 0 0.867221 0 1.49234C0.012647 9.62073 0.0794953 26.6905 0.0505879 33.7168C0.0469745 34.0944 0.234872 34.4431 0.545627 34.6563L6.8655 38.9653C7.0552 39.0954 7.27743 39.1622 7.50688 39.1622H52.2934C52.382 39.1622 52.4687 39.1749 52.5536 39.1966C53.4262 39.4098 54.3603 39.52 55.354 39.52C56.8247 39.52 58.0984 39.2905 59.2095 38.8822C59.336 38.837 59.4697 38.8099 59.6088 38.8118C59.6088 38.8118 86.6733 38.7106 87.3075 38.7106L105.973 38.7033H105.976L171.596 38.7955C172.479 38.8027 172.778 38.5136 172.778 38.5136C172.778 38.5136 177.502 35.332 178.301 34.79C178.451 34.5967 178.888 34.5425 178.888 33.7385C178.888 31.4133 178.725 29.5813 178.687 24.2605V24.2533C178.667 21.8811 178.655 17.3842 178.649 15.3679C178.649 14.7391 178.761 14.4085 179.115 13.9677C179.208 13.8539 180.198 12.6271 180.198 12.0273V11.9929C180.165 10.6939 180.198 1.06054 180.198 1.06054L180.201 1.06235ZM134.916 14.3941C134.903 14.3904 134.891 14.3868 134.878 14.385V14.2766C134.891 14.273 134.903 14.2694 134.916 14.2676V14.3941ZM148.728 14.3941C148.716 14.3904 148.703 14.3868 148.694 14.385V14.2766C148.703 14.273 148.716 14.2694 148.728 14.2676V14.3941Z" fill="#1E1D1E"></path>
    <path d="M14.3469 2.1991C14.6432 2.1991 14.8817 2.4412 14.8763 2.7375C14.8329 4.96878 14.7661 11.4766 14.7661 17.3158C14.7661 23.7875 14.7661 28.2772 14.8365 31.9737C14.842 32.27 14.6035 32.5121 14.3072 32.5121H9.72717C9.467 32.5121 9.24659 32.3242 9.20503 32.0694C8.81659 29.6539 8.0939 26.2211 7.44349 23.2166C6.95568 20.5083 6.54917 17.4784 6.1824 14.4865H6.0198C6.1824 17.9626 6.30526 21.034 6.30526 23.54C6.3414 27.5671 6.34501 30.5121 6.37211 31.9737C6.37753 32.27 6.13904 32.5121 5.84274 32.5121H2.36483C2.07033 32.5121 1.83365 32.2718 1.83546 31.9791C1.87159 28.0278 1.87159 23.5436 1.87159 17.3574C1.87159 11.1712 1.87159 6.7231 1.83546 2.73388C1.83365 2.43939 2.07033 2.2009 2.36483 2.2009H7.42903C7.69281 2.2009 7.91504 2.39241 7.95298 2.65439C8.25651 4.78269 9.04604 8.96161 9.7633 13.3158C10.0885 15.2959 10.4553 17.9644 10.7389 20.5499H10.8618C10.7389 17.6808 10.5763 14.8515 10.5763 12.7087C10.5384 9.36993 10.4643 5.56861 10.3884 2.74292C10.3812 2.44481 10.6197 2.2009 10.9178 2.2009H14.3469V2.1991Z" fill="#EFEAE8"></path>
    <path d="M23.7925 31.9881C23.7834 30.8734 23.7491 29.0901 23.6877 26.9239C23.6805 26.6366 23.4456 26.409 23.1583 26.409H21.5829C21.2974 26.409 21.0625 26.6366 21.0535 26.9221C20.9885 29.0251 20.9252 30.7939 20.9108 31.9917C20.9072 32.2808 20.6723 32.512 20.3814 32.512H16.329C16.0146 32.512 15.7707 32.241 15.8032 31.9303C16.5927 24.2716 17.9116 7.17293 18.1573 2.69952C18.1736 2.41948 18.4049 2.20087 18.6849 2.20087H26.4375C26.7139 2.20087 26.9434 2.41406 26.9651 2.68868C27.3138 7.19461 28.6399 24.2283 29.4674 31.9285C29.5017 32.241 29.256 32.5139 28.9416 32.5139H24.3237C24.0328 32.5139 23.7961 32.2808 23.7943 31.9899L23.7925 31.9881ZM23.4076 19.7964C23.2848 16.6961 23.0933 13.482 22.9018 10.6996C22.9018 10.6906 22.9018 10.6816 22.8982 10.6725C22.7374 9.41867 22.6561 7.44755 22.5748 5.95702H22.3308C22.2495 7.45297 22.1267 9.39338 22.0056 10.6852C21.7762 13.5073 21.5811 16.6889 21.4239 19.7892C21.4076 20.0909 21.6497 20.3439 21.9532 20.3439H22.8801C23.18 20.3439 23.4221 20.0945 23.4095 19.7946L23.4076 19.7964Z" fill="#EFEAE8"></path>
    <path d="M42.2136 2.19907C42.5081 2.19907 42.7466 2.43936 42.743 2.73386C42.7086 5.59207 42.7086 8.52256 42.7086 12.7069V24.913C42.7086 30.5301 41.3265 32.8752 36.3635 32.8752C31.4004 32.8752 29.9768 30.5319 29.9768 24.913C29.9768 20.7901 30.0165 15.7783 30.0165 12.7069C30.0165 8.52256 29.9804 5.59207 29.9424 2.73386C29.9388 2.43936 30.1773 2.19727 30.4718 2.19727H34.8531C35.1458 2.19727 35.3842 2.43575 35.3824 2.72844C35.3445 8.88209 35.3445 18.0837 35.3445 23.6989C35.3445 25.0738 35.6697 25.5978 36.4827 25.5978C37.2957 25.5978 37.5812 25.072 37.5812 23.6989C37.5812 18.1234 37.5433 8.84957 37.5035 2.72844C37.5017 2.43575 37.7384 2.19727 38.0329 2.19727H42.2118L42.2136 2.19907Z" fill="#EFEAE8"></path>
    <path d="M56.2391 15.809C56.5372 15.7945 56.7865 16.0312 56.7919 16.3293C57.0033 29.2202 56.1759 32.877 50.6004 32.877C45.556 32.877 43.9697 29.7243 43.9697 16.9526C43.9697 4.18101 45.6789 1.83771 50.7214 1.83771C55.2779 1.83771 56.8642 3.73656 56.8642 10.8911C56.8642 11.5939 56.8371 12.351 56.8028 13.1658C56.7919 13.453 56.5517 13.6807 56.2644 13.6753C55.7097 13.6644 55.081 13.6409 54.2192 13.6409C53.464 13.6409 52.7991 13.6409 52.2246 13.6572C51.9174 13.6662 51.6699 13.4115 51.6826 13.1044C51.7133 12.4323 51.7368 11.8107 51.7368 11.3374C51.7368 8.54783 51.4116 7.86128 50.6383 7.86128C49.5814 7.86128 49.1333 9.15488 49.1333 16.9545C49.1333 24.754 49.5814 26.2897 50.8009 26.2897C51.6916 26.2897 52.0295 25.4839 52.0945 21.95C52.0999 21.6483 51.8506 21.4008 51.5489 21.4098C51.4007 21.4152 51.2544 21.4206 51.1117 21.4261C50.8081 21.4369 50.5588 21.193 50.5624 20.8913C50.5733 20.1325 50.5985 19.0376 50.5985 18.4089C50.5985 17.6898 50.5985 16.9707 50.5823 16.3835C50.5733 16.08 50.8226 15.8343 51.1261 15.8415C51.8867 15.8614 52.6492 15.8614 53.202 15.8614C54.0385 15.8614 55.1442 15.8614 56.2373 15.8108L56.2391 15.809Z" fill="#EFEAE8"></path>
    <path d="M70.6059 2.19907C70.9004 2.19907 71.1371 2.43936 71.1353 2.73205C71.0956 6.82064 71.0594 11.1965 71.0594 17.3538C71.0594 23.511 71.0974 27.7875 71.1353 31.9755C71.1389 32.27 70.9004 32.5102 70.6059 32.5102H66.3132C66.0169 32.5102 65.7784 32.2682 65.7838 31.9719C65.8489 28.9149 65.8525 24.6709 65.8525 21.2382C65.8525 20.9455 65.6158 20.7088 65.3231 20.7088H64.1036C63.8109 20.7088 63.5742 20.9455 63.5742 21.2382C63.5742 24.6727 63.5742 28.9203 63.6085 31.9773C63.6122 32.2718 63.3737 32.5102 63.0792 32.5102H58.8244C58.5281 32.5102 58.2896 32.2682 58.295 31.9719C58.3673 27.7857 58.3673 23.5544 58.3673 17.3538C58.3673 11.1531 58.3673 6.82244 58.295 2.73567C58.2896 2.43936 58.5281 2.19727 58.8244 2.19727H63.0792C63.3737 2.19727 63.6122 2.43575 63.6085 2.73025C63.576 5.733 63.5742 10.0456 63.5742 13.5506C63.5742 13.8433 63.8109 14.08 64.1036 14.08H65.3231C65.6158 14.08 65.8525 13.8433 65.8525 13.5506C65.8525 10.0781 65.8489 5.74022 65.7838 2.73567C65.7766 2.43936 66.0169 2.19727 66.3132 2.19727H70.6059V2.19907Z" fill="#EFEAE8"></path>
    <path d="M81.6577 2.1991C81.9558 2.1991 82.1943 2.443 82.1871 2.74111C82.1636 3.65169 82.1636 4.86038 82.1636 5.95705C82.1636 7.05373 82.1636 8.30036 82.1871 9.29766C82.1943 9.59396 81.9558 9.83787 81.6577 9.83787H80.5773C80.2846 9.83787 80.0479 10.0727 80.0479 10.3654C80.0479 18.7504 80.0841 28.9059 80.1202 31.9574C80.1238 32.2573 79.8781 32.4994 79.5782 32.4904C78.8374 32.4705 77.9124 32.4705 77.2403 32.4705C76.5068 32.4705 75.5998 32.4705 74.8699 32.4904C74.5682 32.4976 74.3206 32.2537 74.3279 31.9502C74.3965 28.9113 74.4327 18.7395 74.4345 10.3654C74.4345 10.0727 74.1978 9.83787 73.9051 9.83787H72.7434C72.4471 9.83787 72.2068 9.59396 72.214 9.29766C72.2375 8.30036 72.2375 7.04289 72.2375 5.95705C72.2375 4.87122 72.2375 3.66615 72.214 2.7393C72.2068 2.443 72.4453 2.1991 72.7434 2.1991H81.6559H81.6577Z" fill="#EFEAE8"></path>
    <path d="M95.2026 2.80973C94.5196 7.09344 92.8792 18.3041 92.2558 22.4089C92.2522 22.436 92.2504 22.4613 92.2504 22.4884C92.2504 26.9239 92.2829 30.3277 92.3173 31.9538C92.3245 32.2555 92.0788 32.5012 91.7771 32.494C90.8936 32.4723 89.8565 32.4723 88.9568 32.4723C87.9848 32.4723 86.9568 32.4723 86.057 32.4958C85.7553 32.503 85.5078 32.2573 85.515 31.9556C85.5493 30.3657 85.5819 27.0467 85.5819 22.7323C85.5819 22.7052 85.58 22.6799 85.5764 22.6528C84.9531 18.5877 83.2078 7.03562 82.5466 2.80973C82.496 2.48813 82.7453 2.20087 83.0687 2.20087H87.5494C87.8348 2.20087 88.0679 2.4249 88.0787 2.71036C88.1528 4.80434 88.4166 9.83241 88.7147 14.4883C88.8375 15.8217 88.9586 17.7205 89.0399 19.2165H89.2838C89.4067 17.7205 89.5277 15.8217 89.6506 14.5281C89.9848 9.86855 90.3209 4.80434 90.4058 2.70675C90.4166 2.42309 90.6497 2.20087 90.9351 2.20087H94.6841C95.0093 2.20087 95.2586 2.49175 95.2062 2.81153L95.2026 2.80973Z" fill="#EFEAE8"></path>
    <path d="M106.69 2.1991C111.205 2.1991 112.668 4.0582 112.668 13.6771C112.668 23.8616 111.488 25.923 106.525 25.923H106.047C105.75 25.923 105.512 26.1669 105.517 26.4614C105.555 28.5102 105.62 30.3802 105.687 31.961C105.7 32.261 105.459 32.5103 105.158 32.5103H100.876C100.581 32.5103 100.345 32.27 100.346 31.9773C100.383 27.7893 100.383 23.558 100.383 17.3556C100.383 11.1532 100.383 6.82066 100.346 2.73208C100.345 2.43758 100.581 2.1991 100.876 2.1991H106.688H106.69ZM105.389 8.39431C105.389 12.3275 105.389 16.183 105.425 19.7404C105.429 20.0295 105.664 20.2626 105.953 20.2626C105.954 20.2626 105.956 20.2626 105.958 20.2626C107.382 20.2626 107.707 19.4134 107.707 14.2806C107.707 8.58221 107.219 7.8541 106.039 7.8541L105.884 7.86313C105.606 7.8812 105.387 8.11246 105.387 8.3925L105.389 8.39431Z" fill="#EFEAE8"></path>
    <path d="M120.598 31.9881C120.589 30.8734 120.555 29.0901 120.493 26.9239C120.486 26.6366 120.251 26.409 119.964 26.409H118.388C118.103 26.409 117.868 26.6366 117.859 26.9221C117.794 29.0251 117.731 30.7939 117.716 31.9917C117.713 32.2808 117.478 32.512 117.187 32.512H113.134C112.82 32.512 112.576 32.241 112.609 31.9303C113.398 24.2716 114.717 7.17293 114.963 2.69952C114.979 2.41948 115.21 2.20087 115.49 2.20087H123.243C123.519 2.20087 123.749 2.41406 123.77 2.68868C124.119 7.19461 125.445 24.2283 126.273 31.9285C126.307 32.241 126.061 32.5139 125.747 32.5139H121.129C120.838 32.5139 120.602 32.2808 120.6 31.9899L120.598 31.9881ZM120.213 19.7964C120.09 16.6961 119.899 13.482 119.707 10.6996C119.707 10.6906 119.707 10.6816 119.704 10.6725C119.543 9.41867 119.461 7.44755 119.38 5.95702H119.136C119.055 7.45297 118.932 9.39338 118.811 10.6852C118.582 13.5073 118.386 16.6889 118.229 19.7892C118.213 20.0909 118.455 20.3439 118.759 20.3439H119.686C119.985 20.3439 120.228 20.0945 120.215 19.7946L120.213 19.7964Z" fill="#EFEAE8"></path>
    <path d="M136.098 20.548C138.253 20.9527 139.107 22.1253 139.474 25.7622C139.691 27.699 139.843 30.2718 140.016 31.9285C140.049 32.2411 139.805 32.5121 139.491 32.5121H135.406C134.755 32.5121 134.632 32.1887 134.551 31.2185C134.226 23.054 133.982 22.3277 132.923 22.3277H132.685C132.39 22.3277 132.152 22.5679 132.155 22.8624C132.195 26.4361 132.265 29.5816 132.368 31.961C132.381 32.2628 132.141 32.5121 131.839 32.5121H127.557C127.263 32.5121 127.026 32.2718 127.028 31.9773C127.068 27.7893 127.104 23.558 127.104 17.3556C127.104 11.1532 127.104 6.92726 127.031 2.7375C127.026 2.4412 127.265 2.1991 127.561 2.1991H133.693C137.883 2.1991 139.631 3.6535 139.631 11.1315C139.631 17.5579 138.737 19.7802 136.092 20.3457V20.548H136.098ZM134.511 12.5443C134.511 8.50271 134.063 7.93721 132.965 7.93721C132.864 7.93721 132.73 7.93721 132.578 7.94263C132.294 7.95166 132.07 8.18653 132.07 8.47199C132.07 11.2814 132.072 14.1125 132.105 16.7937C132.108 17.0828 132.345 17.3158 132.634 17.3158H132.925C134.144 17.3158 134.511 16.3059 134.511 12.5461V12.5443Z" fill="#EFEAE8"></path>
    <path d="M150.172 20.548C152.327 20.9527 153.182 22.1253 153.548 25.7622C153.765 27.699 153.917 30.2718 154.091 31.9285C154.123 32.2411 153.879 32.5121 153.565 32.5121H149.48C148.829 32.5121 148.707 32.1887 148.625 31.2185C148.3 23.054 148.056 22.3277 146.997 22.3277H146.759C146.464 22.3277 146.226 22.5679 146.23 22.8624C146.269 26.4361 146.34 29.5816 146.443 31.961C146.455 32.2628 146.215 32.5121 145.913 32.5121H141.631C141.337 32.5121 141.1 32.2718 141.102 31.9773C141.142 27.7893 141.178 23.558 141.178 17.3556C141.178 11.1532 141.178 6.92726 141.106 2.7375C141.1 2.4412 141.339 2.1991 141.635 2.1991H147.767C151.957 2.1991 153.706 3.6535 153.706 11.1315C153.706 17.5579 152.811 19.7802 150.166 20.3457V20.548H150.172ZM148.585 12.5443C148.585 8.50271 148.137 7.93721 147.039 7.93721C146.938 7.93721 146.804 7.93721 146.652 7.94263C146.369 7.95166 146.145 8.18653 146.145 8.47199C146.145 11.2814 146.146 14.1125 146.179 16.7937C146.183 17.0828 146.419 17.3158 146.708 17.3158H146.999C148.219 17.3158 148.585 16.3059 148.585 12.5461V12.5443Z" fill="#EFEAE8"></path>
    <path d="M161.236 32.8752C156.396 32.8752 154.687 29.2781 154.687 16.6275C154.687 3.97689 156.761 1.83594 161.195 1.83594C165.628 1.83594 167.784 4.42315 167.784 16.6275C167.784 28.8318 166.035 32.8752 161.234 32.8752H161.236ZM162.497 16.5877C162.497 8.82791 162.172 7.97875 161.236 7.97875C160.3 7.97875 159.935 8.82791 159.935 16.5877C159.935 24.8733 160.302 25.9646 161.236 25.9646C162.17 25.9646 162.497 24.8733 162.497 16.5877Z" fill="#EFEAE8"></path>
    <path d="M177.773 2.1991C178.071 2.1991 178.31 2.443 178.302 2.74111C178.279 3.65169 178.279 4.86038 178.279 5.95705C178.279 7.05373 178.279 8.30036 178.302 9.29766C178.31 9.59396 178.071 9.83787 177.773 9.83787H176.693C176.4 9.83787 176.163 10.0727 176.163 10.3654C176.163 18.7504 176.199 28.9059 176.235 31.9574C176.239 32.2573 175.993 32.4994 175.693 32.4904C174.953 32.4705 174.028 32.4705 173.356 32.4705C172.622 32.4705 171.715 32.4705 170.985 32.4904C170.683 32.4976 170.436 32.2537 170.443 31.9502C170.512 28.9113 170.548 18.7395 170.55 10.3654C170.55 10.0727 170.313 9.83787 170.02 9.83787H168.859C168.562 9.83787 168.322 9.59396 168.329 9.29766C168.353 8.30036 168.353 7.04289 168.353 5.95705C168.353 4.87122 168.353 3.66615 168.329 2.7393C168.322 2.443 168.561 2.1991 168.859 2.1991H177.771H177.773Z" fill="#EFEAE8"></path>
    <path d="M186.463 9.07519C183.961 9.07519 181.927 7.03903 181.927 4.53854C181.927 2.03805 183.963 0.00189209 186.463 0.00189209C188.964 0.00189209 191 2.03805 191 4.53854C191 7.03903 188.964 9.07519 186.463 9.07519ZM186.463 0.921508C184.469 0.921508 182.846 2.54393 182.846 4.53854C182.846 6.53315 184.469 8.15558 186.463 8.15558C188.458 8.15558 190.08 6.53315 190.08 4.53854C190.08 2.54393 188.458 0.921508 186.463 0.921508Z" fill="#1E1D1E"></path>
    <path d="M186.214 4.16993C186.467 4.16993 186.651 4.11934 186.761 4.02178C186.872 3.92964 186.931 3.77245 186.931 3.55204C186.931 3.33162 186.872 3.18347 186.761 3.0859C186.651 2.99376 186.467 2.94859 186.214 2.94859H185.697V4.16993H186.214ZM185.699 5.01186V6.80773H184.474V2.05969H186.344C186.971 2.05969 187.426 2.16629 187.717 2.37767C188.012 2.58545 188.154 2.91607 188.154 3.37317C188.154 3.68573 188.08 3.94409 187.929 4.14644C187.777 4.34518 187.551 4.49694 187.242 4.58909C187.412 4.63064 187.56 4.71736 187.694 4.85106C187.827 4.98476 187.961 5.18711 188.095 5.46353L188.763 6.80953H187.459L186.879 5.62975C186.763 5.39488 186.644 5.22866 186.525 5.14555C186.406 5.05883 186.243 5.01186 186.046 5.01186H185.701" fill="#1E1D1E"></path>
  </g>
  <defs>
    <clipPath id="clip0_237_3150">
      <rect width="191" height="39.5218" fill="white"></rect>
    </clipPath>
  </defs>
</svg>
