<?xml version="1.0" encoding="UTF-8"?>
<svg xmlns="http://www.w3.org/2000/svg" width="88" height="69" viewBox="0 0 88 69" fill="none">
  <g clip-path="url(#clip0_237_3209)">
    <path d="M44.0695 49.8233C43.8882 49.8755 43.7041 49.9249 43.5227 49.9716C43.4265 49.9964 43.3276 50.0211 43.2315 50.0431C43.0529 50.087 42.8743 50.1255 42.6957 50.1667C42.5995 50.186 42.5061 50.2079 42.4099 50.2272C42.2039 50.2684 41.9978 50.3068 41.7917 50.3426C41.723 50.3536 41.6571 50.3673 41.5884 50.3783C41.3136 50.4223 41.0416 50.4635 40.7641 50.4964C40.6981 50.5047 40.6322 50.5102 40.5663 50.5184C40.3547 50.5431 40.1431 50.5651 39.9316 50.5844C39.8354 50.5926 39.7365 50.5981 39.6403 50.6063C39.4562 50.6201 39.2694 50.6311 39.0853 50.6393C38.9836 50.6448 38.882 50.6476 38.7803 50.6531C38.588 50.6585 38.3956 50.664 38.2033 50.664C38.1374 50.664 38.0742 50.6668 38.0082 50.6668C37.9862 50.6668 37.9643 50.6668 37.9395 50.6668C37.6318 50.6668 37.3268 50.6585 37.0218 50.6448C36.9586 50.6421 36.8982 50.6366 36.835 50.6338C36.5849 50.6201 36.3349 50.6036 36.0849 50.5816C35.9969 50.5734 35.909 50.5651 35.8211 50.5569C35.5463 50.5294 35.2716 50.4964 34.9968 50.458C34.9638 50.4525 34.9309 50.4497 34.8979 50.4442C34.5957 50.4003 34.2934 50.3481 33.9912 50.2904C33.9087 50.2739 33.8291 50.2574 33.7466 50.2409C33.5131 50.1942 33.2795 50.142 33.046 50.0843C32.9691 50.0651 32.8921 50.0486 32.8152 50.0293C32.5184 49.9552 32.2272 49.8727 31.9359 49.7848C31.8892 49.7711 31.8453 49.7546 31.7986 49.7408C31.5513 49.6639 31.304 49.5815 31.0594 49.4936C30.977 49.4633 30.8946 49.4331 30.8122 49.4029C30.5704 49.3122 30.3341 49.2188 30.0978 49.1171C30.0511 49.0979 30.0044 49.0787 29.9576 49.0594C29.6801 48.9385 29.4081 48.8121 29.1361 48.6775C29.0674 48.6418 28.9987 48.6061 28.93 48.5703C28.7185 48.4632 28.5124 48.3505 28.3063 48.2324C28.2349 48.1912 28.1634 48.1527 28.092 48.1087C27.831 47.9549 27.5727 47.7983 27.3227 47.6307C27.2979 47.6142 27.276 47.5977 27.2512 47.5812C27.0232 47.4273 26.8006 47.268 26.5781 47.1031C26.5094 47.0509 26.4407 46.9987 26.372 46.9437C26.1769 46.7926 25.9873 46.6388 25.8005 46.4794C25.751 46.4382 25.7016 46.397 25.6549 46.3558C25.4268 46.1552 25.2042 45.9491 24.9899 45.7348C24.9377 45.6826 24.8883 45.6304 24.8388 45.5782C24.6685 45.4051 24.5036 45.2292 24.3415 45.0479C24.2838 44.9819 24.2261 44.9187 24.1684 44.85C23.9651 44.6138 23.7672 44.3747 23.5776 44.1247C22.6544 42.88 21.962 41.4622 21.6845 39.9757C21.5829 39.429 21.5389 38.8794 21.5581 38.3272C21.5939 38.3134 21.6378 38.3052 21.6845 38.2997C21.6928 38.2997 21.7038 38.2969 21.712 38.2969C21.7587 38.2914 21.8082 38.2887 21.8604 38.2859C21.8714 38.2859 21.8796 38.2859 21.8878 38.2859C21.9098 38.2859 21.9291 38.2859 21.951 38.2859C21.973 38.2859 21.995 38.2859 22.0197 38.2859C22.0362 38.2859 22.05 38.2859 22.0664 38.2859C22.1159 38.2859 22.1654 38.2887 22.2066 38.2914C22.9594 38.3519 23.748 38.5607 24.5008 38.764C24.6108 38.797 24.7234 38.83 24.8361 38.8602C24.8718 38.8712 24.9075 38.8794 24.9432 38.8877C25.0229 38.9097 25.0998 38.9289 25.1795 38.9481C25.2207 38.9591 25.2647 38.9674 25.3059 38.9784C25.3801 38.9948 25.4543 39.0113 25.5285 39.0278C25.5724 39.0361 25.6136 39.0443 25.6576 39.0525C25.7345 39.0663 25.8142 39.08 25.8911 39.0938C25.9296 39.0992 25.9681 39.1075 26.0093 39.113C26.1165 39.1295 26.2236 39.1405 26.3308 39.1515C26.3418 39.1515 26.35 39.1515 26.3582 39.1542C26.4764 39.1652 26.5918 39.1734 26.7099 39.1789C26.7457 39.1789 26.7814 39.1789 26.8171 39.1789C26.8913 39.1789 26.9682 39.1817 27.0424 39.1789C27.1935 39.1789 27.3446 39.1734 27.493 39.1597C28.0783 39.701 28.7157 40.201 29.3916 40.6462C32.2327 42.5146 35.8184 43.5394 39.764 43.6164C39.9206 43.6191 40.0799 43.6219 40.2365 43.6219C43.5557 43.6219 46.4874 42.9404 48.9575 41.5941C49.4768 41.3111 49.9714 40.9979 50.4385 40.6572C51.054 42.5255 51.0622 44.1549 50.466 45.5095C49.7049 47.235 47.9079 48.5731 45.1218 49.4826C45.1163 49.4853 45.1108 49.4853 45.1054 49.4881C44.8471 49.576 44.5861 49.6584 44.325 49.7381C44.2399 49.7628 44.1574 49.7848 44.0722 49.8095L44.0695 49.8233Z" fill="#EFEAE8"></path>
    <path d="M1.33826 22.2037C3.85234 14.6917 8.54256 8.64687 14.9061 4.72324C19.7694 1.72008 25.6493 6.10352e-05 31.0347 6.10352e-05C31.543 6.10352e-05 32.0431 0.0165468 32.5239 0.0467708C35.0627 0.206134 38.5797 1.22001 41.5032 4.98427C43.6491 4.87436 45.8774 4.81941 48.147 4.81941C56.769 4.81941 65.8802 5.63546 73.8071 7.11918C74.211 7.19337 74.6506 7.2703 75.0683 7.33899H75.0875C77.6785 7.78411 80.9015 8.33364 83.7316 10.1168C87.7733 12.6667 87.4711 16.3705 87.2788 17.4448C86.4874 22.0004 81.6956 24.1518 76.6344 25.7976C73.2796 26.8912 69.9742 27.644 69.0427 27.8501C65.7455 28.581 62.627 29.2129 59.5853 29.7652C59.9453 31.4495 60.0579 33.3701 59.5551 35.2824C59.1128 36.964 58.3846 38.5549 57.3872 40.0276C58.0329 42.9401 57.8131 45.7344 56.7361 48.1771C55.7194 50.4878 54.0132 52.4029 51.6557 53.8839C51.6557 53.9169 51.6557 53.9471 51.6557 53.9801C51.5458 58.162 49.8944 61.7861 46.8775 64.4568C44.0228 66.9846 39.5743 68.5563 35.2688 68.5563C30.694 68.5563 26.3225 66.839 22.8687 63.6985C16.4063 62.7862 10.8039 59.1401 6.62196 53.1146C3.62979 48.8008 1.4674 43.2808 0.530453 37.5712C-0.390004 31.9715 -0.10425 26.5147 1.33826 22.2064V22.2037ZM2.97035 37.1673C3.8496 42.5279 5.8691 47.688 8.65246 51.7023C12.6091 57.4036 17.8873 60.7145 23.9788 61.341C27.0671 64.4074 31.0264 66.0807 35.2688 66.0807C38.9946 66.0807 42.8138 64.7481 45.2372 62.6022C47.7293 60.3958 49.0921 57.3899 49.1828 53.9114C49.1965 53.4003 49.1801 52.914 49.1471 52.4634C51.7106 51.1638 53.4993 49.3943 54.4748 47.1797C55.4694 44.9211 55.5408 42.3026 54.7001 39.5138C55.8651 38.0465 56.7058 36.3952 57.1647 34.6532C57.7307 32.4991 57.3076 30.0482 56.4008 27.8089C60.242 27.1659 64.2426 26.3828 68.5124 25.4349C69.4246 25.2343 72.6503 24.4952 75.8706 23.4456C81.7862 21.5223 84.3855 19.6594 84.8443 17.0162C85.001 16.1287 85.0724 13.8866 82.4127 12.2105C79.9948 10.6856 77.1592 10.2048 74.6589 9.77889C74.2 9.70196 73.7631 9.62777 73.351 9.55084C65.5724 8.09459 56.6207 7.29228 48.147 7.29228C45.4405 7.29228 42.8028 7.37196 40.2777 7.53133C37.8076 3.69563 34.6918 2.65977 32.3645 2.51415C31.9359 2.48667 31.488 2.47293 31.0347 2.47293C26.0917 2.47293 20.6843 4.06106 16.203 6.82518C10.3368 10.4438 6.00924 16.0325 3.68199 22.9868C2.36587 26.9214 2.11309 31.9578 2.97035 37.1673Z" fill="#EFEAE8"></path>
    <path d="M40.0827 12.2518C40.8245 12.1859 41.5664 12.1282 42.3137 12.0787C42.55 12.0623 42.7891 12.0485 43.0254 12.0348C43.5419 12.0018 44.0612 11.9743 44.5778 11.9496C44.8471 11.9359 45.1163 11.9249 45.3883 11.9139C45.8967 11.8947 46.4077 11.8782 46.916 11.8644C47.1716 11.8589 47.4243 11.8507 47.6799 11.8452C48.3118 11.8315 48.9465 11.826 49.5812 11.8232C49.6884 11.8232 49.7928 11.8205 49.9 11.8205C49.9247 11.8205 49.9467 11.8205 49.9714 11.8205C50.0456 11.8205 50.1225 11.8205 50.1967 11.8205C50.7243 11.8205 51.2518 11.8287 51.7793 11.837C51.9415 11.837 52.1036 11.8424 52.2684 11.8452C52.8372 11.8562 53.4087 11.8727 53.9802 11.8919C54.0104 11.8919 54.0406 11.8919 54.0736 11.8947C54.6699 11.9166 55.2661 11.9441 55.8651 11.9743C56.0299 11.9826 56.1948 11.9908 56.3624 12.0018C56.868 12.0293 57.3763 12.0623 57.8818 12.0952C57.989 12.1035 58.0962 12.109 58.2006 12.1172C58.7968 12.1584 59.3903 12.2079 59.9893 12.2573C60.1486 12.2711 60.3053 12.2848 60.4646 12.2986C60.9509 12.3425 61.44 12.3892 61.9291 12.4387C62.0692 12.4524 62.2121 12.4662 62.3522 12.4826C62.9512 12.5458 63.5502 12.6118 64.1519 12.686C64.2866 12.7025 64.4212 12.7189 64.5586 12.7354C65.0532 12.7959 65.5505 12.8618 66.0478 12.9278C66.2044 12.9497 66.3638 12.969 66.5204 12.991C67.1249 13.0761 67.7321 13.1641 68.3393 13.2547C68.43 13.2685 68.5207 13.285 68.6113 13.2987C69.1416 13.3811 69.6747 13.469 70.205 13.557C70.3698 13.5844 70.5347 13.6119 70.6996 13.6421C71.315 13.7493 71.9305 13.8565 72.546 13.9719C72.9938 14.057 73.4554 14.134 73.928 14.2137C76.1234 14.5873 78.3957 14.9747 80.0745 16.0298C80.352 16.2084 80.4784 16.3431 80.5168 16.4063C80.2613 17.1069 76.7443 19.2308 67.5672 21.2668C58.228 23.3385 49.9027 24.6684 42.1654 25.3223C42.1736 20.8904 41.7175 16.4228 40.0854 12.2518H40.0827Z" fill="#EFEAE8"></path>
    <path d="M50.2432 38.0136C50.2432 38.0136 50.2404 38.0191 50.2377 38.0191C50.1827 38.0713 50.1278 38.1236 50.0728 38.173H50.0701C49.4299 38.7528 48.7073 39.2666 47.9132 39.6979C47.6384 39.8491 47.3554 39.9892 47.0669 40.1183C46.9707 40.1623 46.8691 40.198 46.7729 40.2392C46.5778 40.3217 46.38 40.4068 46.1794 40.481C46.0585 40.525 45.9321 40.5635 45.8112 40.6047C45.6244 40.6679 45.4403 40.7311 45.2507 40.7888C45.1161 40.8272 44.976 40.8602 44.8413 40.8959C44.6545 40.9454 44.4704 40.9948 44.2808 41.036C44.1352 41.069 43.9868 41.0937 43.8384 41.124C43.6489 41.1597 43.462 41.1982 43.2697 41.2284C43.1158 41.2531 42.9592 41.2723 42.8026 41.2916C42.6103 41.3163 42.4179 41.341 42.2228 41.3603C42.0607 41.3768 41.8959 41.3877 41.731 41.3987C41.5332 41.4125 41.3381 41.4262 41.1375 41.4345C40.9672 41.4427 40.7968 41.4454 40.6237 41.4482C40.4946 41.4482 40.3709 41.4592 40.2418 41.4592C40.0989 41.4592 39.9533 41.4592 39.8077 41.4537C36.2742 41.385 33.0842 40.481 30.5894 38.8407C27.8252 37.0218 25.9019 34.1972 25.443 31.2792C25.2809 30.2433 25.4211 29.0344 26.0942 28.625C26.4459 28.6415 27.3994 29.2459 27.9736 29.6114C29.0727 30.3093 30.2899 31.0786 31.54 31.227C31.8588 32.0238 32.1335 32.8811 32.3671 33.7988C32.6995 35.0462 32.9331 36.3376 33.0924 37.629C33.1117 37.8186 33.1556 38.0356 33.1996 38.2307C33.2271 38.3461 33.2628 38.4588 33.304 38.5687C33.315 38.5989 33.326 38.6264 33.337 38.6538C33.3755 38.7473 33.4167 38.8407 33.4661 38.9286C33.4744 38.9423 33.4799 38.9561 33.4854 38.9698C33.5403 39.0687 33.6035 39.1622 33.6695 39.2528C33.6859 39.2748 33.7052 39.2995 33.7217 39.3215C33.7794 39.3957 33.8398 39.4671 33.903 39.5358C33.9195 39.5523 33.9332 39.5688 33.9497 39.5853C34.0266 39.665 34.1091 39.7392 34.1942 39.8106C34.2135 39.8271 34.2327 39.8408 34.2547 39.8573C34.3261 39.915 34.4003 39.9672 34.4773 40.0194C34.4992 40.0332 34.5212 40.0496 34.5432 40.0634C34.6366 40.1211 34.7355 40.176 34.8344 40.2255C34.8509 40.2337 34.8702 40.242 34.8894 40.2502C34.9746 40.2914 35.0625 40.3272 35.1504 40.3601C35.1779 40.3711 35.2054 40.3794 35.2329 40.3904C35.34 40.4261 35.4444 40.459 35.5543 40.4865C35.5653 40.4865 35.5736 40.4893 35.5846 40.492C35.6862 40.514 35.7851 40.5332 35.8895 40.547C35.9198 40.5497 35.9472 40.5552 35.9775 40.558C36.0819 40.5689 36.189 40.5772 36.2934 40.5772C36.3017 40.5772 36.3072 40.5772 36.3154 40.5772C36.4281 40.5772 36.538 40.5689 36.6506 40.558C36.6754 40.558 36.6973 40.5525 36.7221 40.5497C36.832 40.536 36.9419 40.5167 37.049 40.492C37.0655 40.4893 37.082 40.4838 37.0985 40.4783C37.1974 40.4535 37.2963 40.4206 37.3925 40.3849C37.4117 40.3794 37.4282 40.3711 37.4474 40.3656C37.5519 40.3244 37.6535 40.2777 37.7524 40.2227C37.7744 40.2118 37.7964 40.198 37.8156 40.187C37.9173 40.1293 38.019 40.0661 38.1151 39.9947C38.5273 39.7089 38.8515 39.3105 39.0933 38.8764C41.0359 35.4116 41.9288 31.4468 42.1239 27.5067C44.9787 27.2731 47.9077 26.9462 50.9356 26.523C50.9466 26.5368 50.9603 26.5505 50.9741 26.5615C52.8342 28.1799 53.62 31.0319 52.9331 33.6532C52.5072 35.2715 51.5703 36.78 50.2542 38.0136H50.2432Z" fill="#EFEAE8"></path>
    <path d="M22.1349 49.5288C22.2448 49.4574 22.4838 49.3695 22.7283 49.3255C22.8465 49.3035 22.9674 49.2843 23.0883 49.2678C23.1268 49.2623 23.168 49.2596 23.2064 49.2541C23.2889 49.2458 23.3713 49.2348 23.4537 49.2293C23.4977 49.2266 23.5416 49.2238 23.5884 49.2211C23.6653 49.2156 23.745 49.2101 23.8247 49.2074C23.8796 49.2074 23.9346 49.2074 23.9895 49.2046C24.0555 49.2046 24.1214 49.2019 24.1901 49.2019C24.1901 49.2019 24.1928 49.2019 24.1956 49.2019C24.4429 49.2019 24.6929 49.2101 24.9429 49.2238C24.9429 49.2238 24.9484 49.2238 24.9512 49.2238C25.204 49.2376 25.454 49.2596 25.7068 49.2815C26.042 49.3173 26.3855 49.3585 26.7179 49.4134C26.9844 49.5865 27.2564 49.7514 27.5312 49.9107C27.6081 49.9547 27.6851 49.9987 27.7648 50.0426C27.9846 50.1663 28.2099 50.2872 28.4352 50.4026C28.4984 50.4355 28.5616 50.4685 28.6275 50.5015C28.9105 50.6416 29.1963 50.7762 29.4875 50.9026C29.5507 50.9301 29.6167 50.9576 29.6826 50.9851C29.9189 51.0867 30.1552 51.1802 30.3942 51.2736C30.4767 51.3065 30.5619 51.3368 30.6443 51.3697C30.9383 51.4769 31.2323 51.5813 31.5318 51.6747C31.54 51.6747 31.5455 51.6802 31.5537 51.683C31.8587 51.7791 32.1692 51.8671 32.477 51.9495C32.5621 51.9715 32.6501 51.9935 32.7352 52.0154C32.9825 52.0786 33.2298 52.1363 33.4798 52.1913C33.5513 52.2078 33.6255 52.2243 33.6969 52.2407C34.0101 52.3067 34.3234 52.3644 34.6393 52.4166C34.708 52.4276 34.7767 52.4358 34.8454 52.4468C35.1009 52.4853 35.3592 52.521 35.6148 52.554C35.7054 52.565 35.7961 52.576 35.8868 52.5842C36.1918 52.6172 36.4967 52.6446 36.8017 52.6666C36.8182 52.6666 36.832 52.6694 36.8484 52.6694C37.1699 52.6914 37.4914 52.7023 37.8101 52.7106C37.9008 52.7106 37.9887 52.7133 38.0794 52.7161C38.3789 52.7216 38.6811 52.7216 38.9806 52.7161C38.9888 52.7161 38.9998 52.7161 39.0081 52.7161C39.335 52.7078 39.6593 52.6914 39.9835 52.6694C40.0329 52.6666 40.0824 52.6639 40.1319 52.6584C40.4423 52.6364 40.7528 52.6062 41.0606 52.5705C41.1183 52.565 41.176 52.5567 41.2337 52.5485C41.5441 52.51 41.8519 52.4688 42.1569 52.4166C42.2036 52.4083 42.2475 52.4001 42.2942 52.3919C42.6157 52.3369 42.9372 52.2792 43.2532 52.2105C43.7203 52.1171 44.1846 52.0127 44.649 51.889C44.9512 53.5596 45.1188 56.9557 42.3217 59.4285C42.2311 59.5082 42.1349 59.5879 42.0332 59.6676C42.0003 59.6951 41.9645 59.7198 41.9288 59.7445C41.8601 59.7967 41.7887 59.8489 41.7145 59.9011C41.6705 59.9314 41.6238 59.9616 41.5799 59.9918C41.5084 60.0385 41.4397 60.0852 41.3656 60.1319C41.3161 60.1622 41.2611 60.1951 41.2117 60.2254C41.1375 60.2693 41.0661 60.3133 40.9891 60.3545C40.9342 60.3847 40.8765 60.4149 40.8188 60.4479C40.7418 60.4891 40.6649 60.5304 40.5852 60.5688C40.5248 60.599 40.4643 60.6293 40.4011 60.6567C40.3214 60.6952 40.239 60.7337 40.1538 60.7694C40.0906 60.7969 40.0247 60.8271 39.9588 60.8546C39.8736 60.8903 39.7857 60.926 39.6977 60.9617C39.6318 60.9892 39.5631 61.0139 39.4944 61.0387C39.4037 61.0716 39.3103 61.1046 39.2169 61.1376C39.1482 61.1623 39.0795 61.1843 39.0108 61.209C38.9147 61.242 38.813 61.2695 38.7141 61.2997C38.6454 61.3189 38.5767 61.3409 38.508 61.3601C38.3981 61.3904 38.2882 61.4178 38.1783 61.4453C38.1151 61.4618 38.0519 61.4783 37.9887 61.492C37.8513 61.525 37.7112 61.5525 37.5711 61.5799C37.5299 61.5882 37.4914 61.5964 37.4502 61.6047C37.2688 61.6376 37.0847 61.6679 36.8979 61.6926C36.8484 61.6981 36.8017 61.7036 36.7523 61.7091C36.6121 61.7256 36.472 61.7421 36.3319 61.7558C36.2604 61.7613 36.189 61.7668 36.1203 61.7695C35.9994 61.7778 35.8785 61.786 35.7549 61.7915C35.6752 61.7943 35.5955 61.7943 35.5158 61.797C35.4307 61.797 35.3455 61.8025 35.2576 61.8025C35.2328 61.8025 35.2081 61.8025 35.1834 61.8025C34.9416 61.8025 34.6998 61.7943 34.4552 61.7778C32.2846 61.6267 29.1221 60.7804 26.358 57.5904C26.3552 57.5876 26.3525 57.5821 26.3497 57.5794C26.3387 57.5684 26.3305 57.5547 26.3168 57.5437C24.4044 55.3263 22.22 52.5869 22.1266 49.592V49.5261L22.1349 49.5288Z" fill="#EFEAE8"></path>
    <path d="M22.0773 49.5816C22.0773 49.5816 22.0828 49.5733 22.091 49.5651C22.0965 49.5596 22.1048 49.5541 22.113 49.5486C22.1048 49.5596 22.0993 49.5678 22.0938 49.5733C22.0938 49.5733 22.091 49.5733 22.0883 49.5761C22.0855 49.5788 22.0828 49.5816 22.08 49.5816H22.0773Z" fill="#EFEAE8"></path>
    <path d="M8.2786 23.2642C8.28959 23.2368 8.29783 23.212 8.30882 23.1846C8.45444 22.8054 8.60831 22.4344 8.76492 22.069C8.78141 22.0278 8.80064 21.9866 8.81713 21.9454C8.971 21.5937 9.13036 21.2502 9.29522 20.915C9.31994 20.8683 9.34193 20.8188 9.36391 20.7721C9.52602 20.4424 9.69362 20.1237 9.86398 19.8077C9.89145 19.7583 9.91894 19.706 9.94641 19.6566C10.1168 19.3461 10.2926 19.0439 10.4712 18.7499C10.5014 18.7004 10.5317 18.6537 10.5591 18.6042C10.7405 18.3103 10.9246 18.0245 11.1114 17.7442C11.1416 17.7003 11.1719 17.6563 11.2021 17.6096C11.3944 17.3293 11.5868 17.0546 11.7846 16.7881C11.8121 16.7496 11.8423 16.7139 11.8698 16.6754C12.0731 16.4061 12.2792 16.1424 12.488 15.8868C12.51 15.8594 12.5347 15.8319 12.5567 15.8044C12.7737 15.5406 12.9935 15.2851 13.2161 15.0378C13.2298 15.0213 13.2436 15.0076 13.2573 14.9939C13.4826 14.7466 13.7079 14.5048 13.9387 14.2712C13.9525 14.2575 13.9634 14.2438 13.9772 14.23C14.208 13.9965 14.4388 13.7712 14.6751 13.5541C14.6998 13.5294 14.7273 13.5046 14.752 13.4799C14.9773 13.2711 15.2081 13.0678 15.4389 12.8699C15.4746 12.8397 15.5076 12.8095 15.5433 12.7793C15.7686 12.5869 15.9967 12.4028 16.2247 12.2242C16.266 12.1913 16.3072 12.161 16.3456 12.1281C16.571 11.9522 16.799 11.7819 17.0298 11.617C17.0738 11.5868 17.1177 11.5538 17.1617 11.5236C17.3898 11.3615 17.6206 11.2049 17.8514 11.0537C17.8953 11.0235 17.9393 10.996 17.986 10.9658C18.2168 10.8147 18.4503 10.6691 18.6839 10.529C18.7278 10.5042 18.7691 10.4767 18.813 10.452C19.0493 10.3119 19.2856 10.1745 19.5247 10.0454C19.5631 10.0234 19.6016 10.0042 19.6401 9.98217C19.8819 9.85029 20.1264 9.72389 20.3709 9.60025C20.4012 9.58651 20.4314 9.57003 20.4589 9.55629C20.7061 9.43264 20.9562 9.3145 21.2035 9.20184C21.2227 9.1936 21.2419 9.18536 21.2612 9.17712C21.5085 9.06446 21.753 8.96005 22.0003 8.85839C22.0278 8.8474 22.0552 8.83641 22.0827 8.82542C22.3272 8.7265 22.569 8.63034 22.8108 8.53966C22.8493 8.52593 22.8878 8.51219 22.9235 8.4957C23.1598 8.40778 23.3933 8.3281 23.6269 8.24842C23.6708 8.23468 23.7121 8.21819 23.756 8.20445C23.9868 8.12752 24.2149 8.05608 24.4402 7.99014C24.4869 7.9764 24.5336 7.96266 24.5776 7.94892C24.8029 7.88298 25.0254 7.81978 25.248 7.76208C25.2947 7.75109 25.3387 7.73736 25.3854 7.72636C25.6079 7.66866 25.8277 7.61646 26.0475 7.56425C26.0915 7.55326 26.1355 7.54502 26.1767 7.53403C26.3965 7.48457 26.6163 7.43786 26.8306 7.39665C26.8691 7.38841 26.9076 7.38291 26.9433 7.37467C27.1631 7.33345 27.3829 7.29499 27.5972 7.25927C27.6274 7.25377 27.6549 7.25102 27.6851 7.24553C27.9077 7.20981 28.1303 7.17684 28.3473 7.14936C28.3638 7.14936 28.3803 7.14661 28.3968 7.14387C28.6166 7.11639 28.8336 7.09166 29.048 7.06968C29.059 7.06968 29.0699 7.06968 29.0809 7.06693C29.2952 7.04495 29.5068 7.02847 29.7156 7.01473C29.7376 7.01473 29.7569 7.01198 29.7788 7.00923C29.9794 6.99549 30.1772 6.98725 30.3696 6.97901C30.3943 6.97901 30.4218 6.97901 30.4465 6.97626C30.6361 6.97076 30.8202 6.96802 31.0015 6.96802C31.0153 6.96802 31.0318 6.96802 31.0482 6.96802C31.062 6.96802 31.073 6.96802 31.084 6.96802C31.2406 6.96802 31.3944 6.96802 31.5456 6.97626C31.573 6.97626 31.6005 6.97626 31.628 6.97901C31.7819 6.9845 31.9357 6.99 32.0813 7.00099C34.4498 7.14661 36.3429 8.8996 37.7085 12.205C37.7113 12.2105 37.714 12.2187 37.714 12.2242C38.4806 14.3674 38.9175 16.6644 39.1757 18.9807C39.4368 21.3052 39.5027 23.6599 39.4285 26.0009C39.3379 29.4601 38.8405 32.8947 37.4667 36.0765C37.2167 36.648 36.9639 37.2414 36.6424 37.7662C36.6177 37.7992 36.5902 37.8267 36.56 37.8514C36.549 37.8597 36.538 37.8652 36.527 37.8707C36.505 37.8844 36.4831 37.9009 36.4583 37.9091C36.4446 37.9146 36.4309 37.9174 36.4171 37.9229C36.3924 37.9311 36.3704 37.9394 36.3457 37.9448C36.3292 37.9476 36.3127 37.9476 36.2962 37.9503C36.2715 37.9503 36.2495 37.9558 36.2248 37.9558C36.2028 37.9558 36.1808 37.9531 36.1588 37.9503C36.1396 37.9503 36.1231 37.9503 36.1039 37.9448C36.0819 37.9421 36.0599 37.9339 36.0407 37.9284C36.0242 37.9229 36.005 37.9201 35.9885 37.9146C35.9665 37.9064 35.9473 37.8954 35.9253 37.8844C35.9116 37.8762 35.8951 37.8707 35.8786 37.8624C35.8456 37.8432 35.8126 37.8185 35.7852 37.7937C35.645 37.6756 35.6121 37.4613 35.5846 37.2799L35.5104 36.8156C34.6614 31.8753 32.6309 26.5586 28.1 23.8907C26.968 23.234 25.7288 22.7779 24.4677 22.5444C24.2863 22.5114 24.105 22.4839 23.9236 22.4592C23.8659 22.4509 23.8082 22.4454 23.7505 22.4372C23.6241 22.4207 23.5005 22.407 23.3741 22.396C23.3109 22.3905 23.245 22.385 23.1818 22.3795C23.0581 22.3685 22.9345 22.363 22.8108 22.3548C22.7531 22.352 22.6954 22.3493 22.6377 22.3465C22.4729 22.341 22.308 22.3355 22.1432 22.3355C22.1294 22.3355 22.1157 22.3355 22.1019 22.3355C21.9069 22.3355 21.7145 22.341 21.5222 22.3493C21.4672 22.3493 21.415 22.3548 21.3601 22.3575C21.209 22.3658 21.0606 22.374 20.9095 22.3877C20.86 22.3905 20.8133 22.396 20.7638 22.3987C20.5715 22.4152 20.3819 22.4372 20.1923 22.4592C20.1621 22.4619 20.1291 22.4674 20.0989 22.4729C19.9368 22.4949 19.7774 22.5169 19.6153 22.5444C19.5604 22.5526 19.5054 22.5608 19.4505 22.5718C19.2939 22.5993 19.1372 22.6268 18.9834 22.657C18.9504 22.6625 18.9147 22.6707 18.8817 22.6762C18.6949 22.7147 18.5108 22.7532 18.3239 22.7971C18.2772 22.8081 18.2305 22.8191 18.1838 22.8301C18.0409 22.8631 17.8953 22.8988 17.7552 22.9373C17.703 22.951 17.6508 22.9647 17.5986 22.9785C17.4172 23.0279 17.2359 23.0774 17.0545 23.1296C17.0106 23.1433 16.9721 23.1653 16.9391 23.19C16.9391 23.19 16.9336 23.1928 16.9336 23.1955C16.9034 23.2203 16.8814 23.2505 16.8622 23.2807C16.8622 23.2835 16.8567 23.2862 16.8567 23.2917C16.8402 23.3219 16.8292 23.3549 16.8237 23.3906C16.8237 23.3961 16.8237 23.3989 16.821 23.4044C16.8155 23.4373 16.8155 23.4731 16.821 23.506C16.821 23.5115 16.821 23.517 16.821 23.5225C16.8265 23.5555 16.8375 23.5885 16.8512 23.6187C16.8512 23.6242 16.8567 23.6269 16.8595 23.6324C16.8759 23.6626 16.8952 23.6901 16.9172 23.7121C16.9199 23.7148 16.9254 23.7203 16.9281 23.7231C16.9529 23.7451 16.9831 23.7643 17.0161 23.7808C17.0216 23.7808 17.0243 23.7835 17.0298 23.7863C17.0655 23.8 17.1012 23.8083 17.1452 23.8083C17.1672 23.8083 17.1892 23.8083 17.2139 23.8028C17.5491 23.7478 17.8761 23.7011 18.1976 23.6599C18.2965 23.6489 18.3954 23.6379 18.4943 23.6269C18.7224 23.6022 18.9477 23.5802 19.173 23.5637C19.2774 23.5555 19.3818 23.55 19.4834 23.5417C19.7225 23.528 19.956 23.5198 20.1868 23.517C20.2583 23.517 20.3325 23.5115 20.4039 23.5115C20.4259 23.5115 20.4479 23.5115 20.4698 23.5115C20.7501 23.5115 21.0249 23.5198 21.2941 23.5335C21.3573 23.5363 21.4205 23.5445 21.4837 23.5472C21.709 23.561 21.9343 23.5802 22.1541 23.6049C22.2503 23.6159 22.3437 23.6297 22.4399 23.6434C22.6267 23.6681 22.8136 23.6984 22.9949 23.7313C23.0911 23.7478 23.1845 23.7671 23.2779 23.7863C23.4703 23.8248 23.6571 23.8715 23.8439 23.9182C23.9181 23.9374 23.9923 23.9539 24.0665 23.9731C24.322 24.0446 24.5721 24.1215 24.8139 24.2094C24.8578 24.2259 24.899 24.2424 24.943 24.2589C25.1436 24.3331 25.3414 24.4127 25.5337 24.4979C25.6134 24.5336 25.6904 24.5694 25.7673 24.6078C25.9239 24.682 26.0778 24.7589 26.2289 24.8386C26.3086 24.8826 26.3883 24.9238 26.4652 24.9705C26.6191 25.0584 26.7729 25.1519 26.9213 25.248C26.9845 25.2892 27.0504 25.3277 27.1164 25.3717C27.3252 25.5118 27.5285 25.6602 27.7263 25.8168C27.7483 25.8333 27.7703 25.8553 27.7923 25.8717C27.9681 26.0146 28.1385 26.1602 28.3061 26.3169C28.3665 26.3746 28.427 26.4323 28.4874 26.49C28.6138 26.6136 28.7402 26.7372 28.8611 26.8691C28.9243 26.9351 28.9875 27.0038 29.048 27.0725C29.1689 27.2071 29.287 27.3472 29.4024 27.4928C29.4546 27.5588 29.5096 27.622 29.559 27.6879C29.7211 27.8995 29.8805 28.1166 30.0344 28.3419C29.7266 28.1605 29.4216 27.9682 29.1359 27.7868C29.0232 27.7154 28.9106 27.644 28.7979 27.5725C28.765 27.5533 28.7347 27.5341 28.7018 27.5121C28.5809 27.4379 28.4627 27.3637 28.3418 27.2923C28.3418 27.2923 28.3391 27.2923 28.3363 27.2895C28.2209 27.2208 28.1083 27.1549 27.9956 27.0917C27.9654 27.0752 27.9379 27.0587 27.9077 27.0422C27.7923 26.979 27.6769 26.9186 27.5642 26.8636C27.5642 26.8636 27.5642 26.8636 27.5615 26.8636C27.4488 26.8087 27.3362 26.7592 27.2263 26.7153C27.1988 26.7043 27.1686 26.6933 27.1411 26.6823C27.0284 26.6383 26.9185 26.5999 26.8059 26.5669C26.8059 26.5669 26.8059 26.5669 26.8031 26.5669C26.6932 26.5339 26.5833 26.5119 26.4734 26.4927C26.446 26.4872 26.4185 26.4845 26.391 26.479C26.2811 26.4625 26.1712 26.4542 26.064 26.4542C25.9953 26.4542 25.9266 26.4597 25.8607 26.4652C25.847 26.4652 25.836 26.4652 25.8222 26.4652C25.7508 26.4735 25.6794 26.4872 25.6079 26.5037C25.5997 26.5037 25.5914 26.5037 25.5832 26.5092C25.4238 26.5477 25.2645 26.6081 25.1106 26.6933C23.3521 27.6412 23.0196 29.8613 23.2972 31.6253C23.6434 33.8344 24.6765 35.9913 26.2069 37.8212C26.152 37.8075 26.0997 37.791 26.0448 37.7745C25.9624 37.7525 25.8744 37.7278 25.7838 37.7031C25.7563 37.6948 25.7288 37.6866 25.7013 37.6783C25.6326 37.6591 25.564 37.6371 25.4925 37.6151C25.465 37.6069 25.4403 37.5986 25.4128 37.5904C25.3167 37.5602 25.2205 37.53 25.1188 37.497C25.0282 37.4695 24.9375 37.4393 24.8441 37.4091C24.8111 37.3981 24.7754 37.3871 24.7424 37.3761C24.66 37.3486 24.5748 37.3239 24.4896 37.2964C24.4622 37.2882 24.4347 37.2799 24.4072 37.2717C24.2973 37.2387 24.1874 37.2057 24.0775 37.1728C24.0583 37.1673 24.0363 37.1618 24.017 37.1563C23.9264 37.1315 23.8357 37.1041 23.745 37.0821C23.7121 37.0738 23.6791 37.0656 23.6461 37.0546C23.5554 37.0326 23.4648 37.0106 23.3768 36.9887C23.3521 36.9832 23.3301 36.9777 23.3054 36.9722C23.1955 36.9475 23.0828 36.9255 22.9729 36.9035C22.9455 36.898 22.9207 36.8952 22.8933 36.8898C22.8081 36.8733 22.7229 36.8623 22.6377 36.8485C22.6048 36.843 22.5718 36.8403 22.5388 36.8348C22.4454 36.8238 22.352 36.8128 22.2586 36.8073C22.2421 36.8073 22.2256 36.8046 22.2118 36.8046C22.1102 36.7991 22.0085 36.7963 21.9069 36.7963C21.8409 36.7963 21.775 36.8018 21.709 36.8073C21.6596 36.8101 21.6074 36.8128 21.5579 36.8183C21.492 36.8266 21.426 36.8375 21.3628 36.8513C21.3189 36.8595 21.2722 36.865 21.2282 36.876C21.1568 36.8925 21.0908 36.9172 21.0249 36.9392C20.9892 36.9502 20.9534 36.9584 20.9205 36.9722C20.8215 37.0106 20.7254 37.0574 20.6347 37.1151C20.283 37.3294 20.0247 37.8349 20.0192 38.2306C19.9753 38.9093 20.0137 39.5962 20.1209 40.2638C20.4094 42.0553 21.1925 43.7039 22.2064 45.1381C22.9043 46.1081 23.6956 46.9818 24.5638 47.7621C24.3935 47.7429 24.2231 47.7319 24.0528 47.7209C24.0198 47.7209 23.9868 47.7154 23.9566 47.7154C23.7917 47.7072 23.6296 47.7017 23.4703 47.7017C23.4043 47.7017 23.3356 47.7017 23.2697 47.7017C23.245 47.7017 23.2175 47.7017 23.1928 47.7017C23.0938 47.7044 22.9949 47.7099 22.8988 47.7154C22.8768 47.7154 22.8548 47.7182 22.8328 47.7209C22.7586 47.7264 22.6844 47.7347 22.6103 47.7429C22.5773 47.7457 22.5471 47.7512 22.5141 47.7539C22.4509 47.7621 22.3877 47.7731 22.3272 47.7814C22.297 47.7869 22.2641 47.7924 22.2338 47.7979C22.1651 47.8116 22.0964 47.8253 22.0305 47.8418C22.0113 47.8473 21.992 47.8501 21.9728 47.8556C21.8876 47.8775 21.8079 47.9023 21.7283 47.927C21.7063 47.9352 21.6871 47.9435 21.6651 47.949C21.6074 47.971 21.5497 47.9929 21.4975 48.0149C21.4727 48.0259 21.448 48.0369 21.4233 48.0506C21.3738 48.0754 21.3244 48.1001 21.2777 48.1248C21.2557 48.1386 21.2337 48.1496 21.2117 48.1633C21.154 48.199 21.1018 48.2347 21.0496 48.2732C21.0414 48.2787 21.0331 48.2842 21.0249 48.2924C20.9672 48.3391 20.9122 48.3886 20.86 48.4408C20.8463 48.4573 20.8325 48.4738 20.816 48.4875C20.7803 48.526 20.7474 48.5672 20.7171 48.6084C20.7034 48.6276 20.6869 48.6496 20.6732 48.6716C20.6457 48.7156 20.6182 48.7595 20.5935 48.8062C20.5825 48.8282 20.5715 48.8475 20.5605 48.8694C20.5275 48.9381 20.5001 49.0096 20.4781 49.0838C20.1017 51.7242 21.5304 54.568 23.1405 56.9035C17.8706 55.8979 14.3646 52.3369 12.2709 49.3228C6.89928 41.5827 5.80847 30.6197 7.85546 24.4924C7.99559 24.0748 8.14121 23.6681 8.29508 23.2697L8.2786 23.2642Z" fill="#EFEAE8"></path>
    <path d="M3.68195 22.9868C6.00919 16.0325 10.3367 10.4438 16.2029 6.82521C20.6843 4.06109 26.0917 2.47296 31.0346 2.47296C31.488 2.47296 31.9359 2.4867 32.3645 2.51418C34.6917 2.6598 37.8076 3.69566 40.2777 7.53136C42.8028 7.37199 45.4405 7.29231 48.1469 7.29231C56.6206 7.29231 65.5724 8.09462 73.351 9.55087C73.7631 9.6278 74.2 9.70199 74.6588 9.77892C77.1592 10.2048 79.9947 10.6856 82.4127 12.2106C85.0724 13.8866 85.0009 16.1287 84.8443 17.0162C84.3855 19.6594 81.7862 21.5223 75.8705 23.4457C72.6503 24.4952 69.4246 25.2344 68.5124 25.4349C64.2426 26.3829 60.242 27.1659 56.4008 27.8089C57.3075 30.0482 57.7307 32.4991 57.1646 34.6533C56.7058 36.3953 55.865 38.0466 54.7 39.5138C55.5408 42.3027 55.4694 44.9212 54.4747 47.1797C53.4993 49.3943 51.7106 51.1638 49.147 52.4634C49.18 52.914 49.1965 53.4004 49.1828 53.9114C49.0921 57.3899 47.7293 60.3958 45.2372 62.6022C42.8138 64.7481 38.9945 66.0807 35.2687 66.0807C31.0264 66.0807 27.0671 64.4074 23.9787 61.341C17.8872 60.7146 12.609 57.4037 8.65242 51.7023C5.86906 47.688 3.84955 42.528 2.97031 37.1673C2.11305 31.9578 2.36583 26.9214 3.68195 22.9868ZM67.5644 21.2668C76.7415 19.2308 80.2585 17.1069 80.514 16.4062C80.4756 16.343 80.3492 16.2084 80.0717 16.0298C78.3929 14.9747 76.1206 14.5873 73.9252 14.2136C73.4526 14.1339 72.991 14.057 72.5432 13.9718C61.4702 11.9001 50.5511 11.3203 40.0826 12.2518C41.7147 16.4227 42.1708 20.8904 42.1626 25.3223C49.8999 24.6684 58.2252 23.3385 67.5644 21.2668ZM52.9223 33.6531C53.6092 31.0319 52.8234 28.1798 50.9632 26.5615C50.9495 26.5505 50.9358 26.5367 50.9248 26.523C47.8969 26.9461 44.9679 27.2731 42.1131 27.5067C41.918 31.4468 41.025 35.4116 39.0825 38.8764C38.8407 39.3105 38.5165 39.7089 38.1043 39.9947C36.3815 41.2805 33.6861 40.3271 33.1943 38.2334C33.1503 38.0383 33.1064 37.8213 33.0871 37.6317C32.9278 36.3403 32.6942 35.0489 32.3618 33.8015C32.1282 32.8838 31.8534 32.0265 31.5347 31.2297C30.2845 31.0813 29.0673 30.312 27.9683 29.6141C27.394 29.2487 26.4406 28.6442 26.0889 28.6277C25.4157 29.0371 25.2756 30.246 25.4377 31.2819C25.8966 34.1999 27.8199 37.0245 30.584 38.8434C33.0789 40.4837 36.2689 41.3877 39.8023 41.4564C42.9319 41.5168 45.6631 40.9261 47.9134 39.6979C48.7074 39.2665 49.4301 38.7527 50.0703 38.1757H50.073C50.1225 38.118 50.1774 38.0631 50.2379 38.0191C50.2406 38.0191 50.2434 38.0191 50.2434 38.0136C51.5595 36.7799 52.4964 35.2715 52.9223 33.6531ZM45.119 49.496C47.9051 48.5865 49.7021 47.2484 50.4632 45.5229C51.0594 44.1683 51.0512 42.539 50.4357 40.6706C49.9686 41.0113 49.474 41.3245 48.9547 41.6075C46.4846 42.9539 43.5529 43.6353 40.2337 43.6353C40.0771 43.6353 39.9177 43.6325 39.7611 43.6298C35.8155 43.5528 32.2299 42.528 29.3888 40.6596C28.7129 40.2145 28.0754 39.7144 27.4902 39.1731C26.4791 39.261 25.4542 39.066 24.4925 38.772C23.7397 38.5686 22.9511 38.3598 22.1983 38.2994C22.0087 38.2884 21.7064 38.2801 21.5498 38.3351C21.5306 38.8874 21.5745 39.4369 21.6762 39.9837C21.9537 41.4701 22.6461 42.8879 23.5693 44.1326C28.4464 50.5703 37.7581 52.0183 45.1025 49.5015C45.108 49.4987 45.1135 49.4987 45.119 49.496ZM26.3252 57.5465C26.3252 57.5465 26.3472 57.5713 26.3582 57.5823C26.3609 57.585 26.3637 57.5905 26.3664 57.5932C29.1305 60.7833 32.2931 61.6295 34.4637 61.7806C37.8076 62.0087 40.8245 60.764 42.3274 59.4314C45.1245 56.9585 44.9569 53.5625 44.6547 51.8919C44.1903 52.0156 43.726 52.12 43.2589 52.2134C37.7032 53.4031 31.4825 52.5266 26.7126 49.4135C26.3802 49.3586 26.0367 49.3174 25.7015 49.2817C24.7068 49.191 23.6875 49.1415 22.7285 49.3256C22.484 49.3696 22.245 49.4575 22.1351 49.5289V49.5949C22.2285 52.5898 24.4128 55.3292 26.3252 57.5465ZM12.2546 49.3174C14.3483 52.3315 17.8542 55.8925 23.1242 56.8981C21.5141 54.5626 20.0853 51.7188 20.4617 49.0783C20.8602 47.754 22.7148 47.5616 24.5502 47.754C23.682 46.9736 22.8907 46.0999 22.1928 45.13C21.1789 43.6957 20.3958 42.0471 20.1073 40.2557C20.0001 39.588 19.9617 38.9011 20.0056 38.2224C20.0111 37.8268 20.2694 37.3212 20.6211 37.1069C22.0306 36.2414 24.5695 37.3871 26.0367 37.7691C26.0917 37.7856 26.1439 37.802 26.1988 37.8158C24.6684 35.9859 23.6353 33.829 23.2891 31.6199C23.0116 29.8559 23.344 27.6358 25.1025 26.6879C26.3527 26.0147 27.7018 26.872 29.1333 27.7787C29.419 27.96 29.724 28.1524 30.0318 28.3337C27.3666 24.3771 23.0967 22.8027 17.2086 23.7946C16.7799 23.8605 16.6563 23.2561 17.0547 23.1269C19.3984 22.4428 21.9317 22.0801 24.4705 22.5472C25.7317 22.7807 26.9709 23.2368 28.1029 23.8935C32.6338 26.5615 34.6643 31.8781 35.5133 36.8184L35.5875 37.2827C35.615 37.4641 35.6479 37.6784 35.7881 37.7965C36.0134 38.0081 36.4557 38.0301 36.6481 37.7691C36.9695 37.2443 37.2223 36.6508 37.4724 36.0793C38.8462 32.8975 39.3435 29.463 39.4342 26.0037C39.5084 23.6627 39.4424 21.308 39.1814 18.9835C38.9231 16.6672 38.4862 14.3702 37.7196 12.2271C37.7196 12.2216 37.7169 12.2133 37.7141 12.2078C36.3486 8.90243 34.4554 7.14943 32.087 7.00381C25.8526 6.6109 12.7656 9.75969 7.83912 24.487C5.79213 30.6142 6.88294 41.5773 12.2546 49.3174ZM22.1131 49.5482C22.1131 49.5482 22.0966 49.5592 22.0911 49.5647C22.0581 49.5976 22.0883 49.5894 22.1131 49.5482Z" fill="#1E1D1E"></path>
  </g>
  <defs>
    <clipPath id="clip0_237_3209">
      <rect width="87.3748" height="68.5535" fill="white" transform="matrix(-1 0 0 1 87.3748 0)"></rect>
    </clipPath>
  </defs>
</svg>
