<?xml version="1.0" encoding="UTF-8"?>
<svg xmlns="http://www.w3.org/2000/svg" width="125" height="136" viewBox="0 0 125 136" fill="none">
  <g clip-path="url(#clip0_237_3119)">
    <path d="M74.4135 111.372C60.3244 117.907 29.954 112.956 26.8391 91.838C16.9767 85.1181 18.3447 73.7554 21.6364 69.0741C26.085 62.7534 34.0419 64.5013 34.0419 64.5013C37.6519 47.0248 54.4395 58.422 54.4395 58.422C55.5732 47.5726 50.8915 34.8842 47.5047 27.3815C46.3392 24.8016 48.9966 22.1723 51.5732 23.3447C71.0441 32.1802 72.0972 53.1938 72.0972 53.1938C76.4984 45.0521 78.6169 35.2098 79.624 28.3001C80.0863 25.1168 84.3438 24.3689 85.8914 27.1902C96.4833 46.5025 86.1026 67.2299 85.9089 67.6173C90.5438 68.9461 93.9238 71.4042 94.6223 75.3816C96.2676 84.7088 93.1206 102.691 74.4105 111.371L74.4135 111.372Z" fill="#EFEAE8"></path>
    <path d="M84.2421 25.6911C84.9014 25.9602 85.4937 26.4547 85.9006 27.1939C96.4924 46.5062 86.1117 67.2337 85.918 67.6211C86.6768 67.8382 87.4012 68.0875 88.0849 68.3665C91.5859 69.7951 94.0448 72.0589 94.6272 75.3872C96.2724 84.7144 93.1254 102.697 74.4153 111.377C66.5981 115.002 53.7677 115.093 43.3622 110.847C35.014 107.44 28.2285 101.242 26.8409 91.8423C16.9784 85.1225 18.3464 73.7598 21.6382 69.0785C26.0867 62.7577 34.0436 64.5056 34.0436 64.5056C36.4836 52.6973 44.9383 54.0715 50.167 56.2051C52.676 57.2289 54.4413 58.4264 54.4413 58.4264C55.5749 47.5769 50.8932 34.8885 47.5065 27.3858C46.3603 24.8459 48.9146 22.2599 51.4541 23.2962C51.4938 23.3124 51.5335 23.3286 51.5762 23.346C71.0472 32.1814 72.1002 53.1951 72.1002 53.1951C76.5014 45.0533 78.6199 35.211 79.627 28.3014C79.9696 25.9523 82.3771 24.9301 84.236 25.6887M85.4877 22.6388C83.5952 21.8665 81.3945 22.0154 79.6066 23.0376C77.8456 24.0459 76.663 25.7923 76.3661 27.8288C75.7632 31.9588 74.7447 37.2295 73.0351 42.4924C72.7781 41.7786 72.493 41.0463 72.1773 40.3015C68.3217 31.2081 61.669 24.3097 52.9414 20.3496C52.8632 20.3141 52.7851 20.2787 52.7058 20.2463C50.2822 19.2573 47.5392 19.8365 45.7183 21.7247C43.9042 23.6051 43.4315 26.3603 44.5065 28.7431C46.9912 34.2505 50.7812 43.9936 51.2703 53.0911C46.119 51.0211 41.4894 50.9444 37.8807 52.8686C34.9767 54.4181 32.8647 57.1419 31.5806 60.9867C28.1408 60.9788 22.6564 61.9063 18.9497 67.1767C16.39 70.8144 15.3252 76.408 16.2394 81.4276C16.8734 84.9087 18.7167 89.7627 23.8318 93.7193C25.6602 102.676 32.1025 109.802 42.1234 113.891C52.9929 118.327 66.8431 118.52 75.8112 114.36C84.7879 110.197 91.4891 103.478 95.1878 94.9287C97.9657 88.5138 98.9704 80.9907 97.8819 74.8104C97.3937 72.0191 95.6659 68.2519 90.3119 65.736C91.2728 63.2155 92.4699 59.4704 93.2305 54.9277C95.0123 44.2786 93.478 34.1386 88.7956 25.6051C88.0466 24.2384 86.9034 23.2094 85.4932 22.6339L85.4877 22.6388Z" fill="#EFEAE8"></path>
    <path d="M84.2421 25.6912C84.9014 25.9603 85.4936 26.4547 85.9005 27.194C96.4924 46.5063 86.1116 67.2338 85.9179 67.6212C86.6768 67.8383 87.4011 68.0876 88.0848 68.3666C91.5859 69.7952 94.0447 72.059 94.6271 75.3873C96.2723 84.7145 93.1253 102.697 74.4152 111.377C66.5981 115.002 53.7676 115.093 43.3621 110.847C35.0139 107.44 28.2284 101.243 26.8408 91.8424C16.9784 85.1226 18.3464 73.7599 21.6381 69.0786C26.0867 62.7578 34.0436 64.5057 34.0436 64.5057C36.4836 52.6974 44.9383 54.0716 50.167 56.2052C52.676 57.229 54.4412 58.4265 54.4412 58.4265C55.5749 47.577 50.8932 34.8886 47.5065 27.3859C46.3603 24.846 48.9145 22.26 51.4541 23.2963C51.4938 23.3125 51.5334 23.3287 51.5762 23.3461C71.0471 32.1815 72.1002 53.1952 72.1002 53.1952C76.5014 45.0534 78.6198 35.2111 79.627 28.3015C79.9696 25.9524 82.3771 24.9302 84.239 25.69L84.2421 25.6912ZM85.8613 21.7232C83.688 20.8363 81.1682 21.0081 79.1166 22.1791C77.0877 23.338 75.7313 25.3445 75.3881 27.6863C74.8939 31.0701 74.1182 35.2222 72.9101 39.5004C68.931 30.378 62.1726 23.4507 53.3498 19.4446C53.2595 19.4042 53.1692 19.3638 53.0776 19.3264C50.2755 18.183 47.1064 18.8553 45.0031 21.0342C42.9097 23.2065 42.3574 26.3922 43.6013 29.1465C45.9184 34.2793 49.3869 43.1435 50.1681 51.6303C45.3191 49.997 40.9338 50.116 37.4104 51.9967C34.448 53.5759 32.2549 56.2629 30.8699 60.0061C30.2594 60.0276 29.6052 60.0775 28.9189 60.1713C24.3818 60.8017 20.651 63.025 18.1315 66.6079C15.9786 69.6674 14.0925 75.2144 15.2561 81.6033C16.1714 86.6377 18.8129 90.9842 22.9292 94.2733C24.9181 103.395 31.5353 110.642 41.7393 114.806C52.8438 119.338 67.0186 119.521 76.2151 115.255C85.416 110.988 92.2886 104.093 96.0856 95.3201C98.9376 88.7324 99.9676 80.9989 98.8461 74.6378C98.3425 71.7619 96.6378 67.9293 91.5372 65.2463C92.4528 62.7144 93.5024 59.2261 94.1953 55.0936C96.0135 44.2244 94.4416 33.8625 89.651 25.1318C88.792 23.5635 87.479 22.3833 85.8552 21.7207L85.8613 21.7232Z" fill="#1E1D1E"></path>
    <path d="M85.8614 21.7231C87.4853 22.3857 88.7952 23.5647 89.6573 25.1343C94.4479 33.8649 96.0168 44.2256 94.2016 55.0961C93.5118 59.2297 92.4579 62.7199 91.5435 65.2487C96.6441 67.9318 98.3458 71.7631 98.8523 74.6402C99.9757 81.0057 98.9438 88.7349 96.0919 95.3225C92.2936 104.098 85.4223 110.99 76.2214 115.258C67.0248 119.523 52.847 119.339 41.7456 114.809C31.5416 110.645 24.9243 103.398 22.9355 94.2757C18.8192 90.9866 16.1777 86.6401 15.2624 81.6058C14.1001 75.2137 15.9849 69.6699 18.1377 66.6103C20.656 63.0305 24.3881 60.8041 28.9252 60.1738C29.6115 60.0799 30.2669 60.0269 30.8762 60.0085C32.2612 56.2653 34.4513 53.577 37.4167 51.9991C40.94 50.1184 45.3254 49.9994 50.1743 51.6327C49.3932 43.1459 45.9234 34.2848 43.6076 29.1489C42.3637 26.3946 42.9159 23.2089 45.0094 21.0366C47.1139 18.8546 50.2818 18.1854 53.0839 19.3288C53.1754 19.3662 53.267 19.4036 53.3561 19.447C62.1801 23.4501 68.9373 30.3805 72.9164 39.5028C74.1245 35.2246 74.9014 31.0695 75.3944 27.6887C75.7375 25.347 77.094 23.3404 79.1229 22.1815C81.1714 21.0092 83.6943 20.8388 85.8675 21.7256M72.1022 53.1994C72.1022 53.1994 71.0491 32.1858 51.5781 23.3503C51.5385 23.3341 51.4957 23.3167 51.4561 23.3005C48.9165 22.2642 46.3592 24.8489 47.5084 27.3902C50.8952 34.8929 55.5738 47.58 54.4432 58.4307C54.4432 58.4307 52.678 57.2333 50.1689 56.2094C44.9403 54.0758 36.4855 52.7016 34.0455 64.5099C34.0455 64.5099 26.0856 62.7608 21.6401 69.0828C18.3484 73.7641 16.9773 85.1255 26.8428 91.8466C28.2274 101.245 35.0159 107.445 43.3641 110.851C53.7696 115.097 66.6 115.006 74.4172 111.381C93.1273 102.701 96.2743 84.7187 94.6291 75.3915C94.0467 72.0632 91.5879 69.7994 88.0868 68.3708C87.4031 68.0918 86.6775 67.8456 85.9199 67.6254C86.1105 67.2368 96.4944 46.5106 85.9025 27.1983C85.4956 26.459 84.9064 25.9658 84.244 25.6955C82.3852 24.9369 79.9746 25.9579 79.632 28.307C78.6236 35.2197 76.5064 45.0589 72.1052 53.2006M87.107 18.6708C84.0027 17.404 80.4044 17.6448 77.4831 19.3154C74.5703 20.9825 72.6164 23.8597 72.1286 27.2106C71.968 28.3022 71.7958 29.3785 71.6048 30.44C67.3268 24.3361 61.5985 19.5703 54.7133 16.4438C54.5846 16.3842 54.4533 16.3306 54.322 16.277C50.2655 14.6217 45.6746 15.5933 42.6303 18.752C39.5928 21.9027 38.7962 26.5162 40.5959 30.5086C42.2456 34.162 44.8803 40.6456 46.21 47.3517C42.409 46.8937 38.8928 47.4742 35.861 49.0927C32.7309 50.76 30.3019 53.3793 28.6155 56.8927C28.5671 56.8979 28.5174 56.9061 28.469 56.9113C23.0042 57.6686 18.495 60.3684 15.4394 64.7153C12.9039 68.3201 10.6727 74.8086 12.0161 82.1967C13.0027 87.6233 15.7489 92.4114 19.9805 96.1071C22.4885 105.772 29.7331 113.471 40.4988 117.864C46.3257 120.242 52.9474 121.545 59.6553 121.633C66.4445 121.722 72.6511 120.552 77.6093 118.252C87.5571 113.638 94.9932 106.165 99.1168 96.6352C102.215 89.4787 103.329 81.0424 102.097 74.0701C101.567 71.0514 99.9661 67.0157 95.5008 63.8227C96.3335 61.1538 96.9892 58.4127 97.4504 55.642C99.3925 44.0329 97.6965 32.9367 92.5468 23.5503C91.3171 21.3109 89.4377 19.6254 87.1057 18.6738L87.107 18.6708ZM82.8968 28.7526C82.9226 28.7418 82.9594 28.739 82.9832 28.7416C82.9869 28.7502 82.9966 28.7613 83.0068 28.7797C92.6091 46.2853 83.3638 65.3469 82.9653 66.1492L81.2057 69.6932L85.0066 70.7885C85.6598 70.9766 86.276 71.1854 86.8377 71.4146C90.8729 73.0612 91.2533 75.2353 91.3775 75.9518C91.7074 77.8133 92.5128 84.487 89.1251 92.3088C86.033 99.4501 80.6156 104.856 73.0214 108.379C65.7084 111.772 53.7539 111.523 44.5999 107.788C33.9747 103.452 30.8471 96.4573 30.0951 91.3543L29.884 89.9258L28.6892 89.1107C25.3824 86.8569 23.3699 83.8744 22.7113 80.2444C22.0196 76.4336 23.0643 72.7652 24.3287 70.9668C27.4764 66.4902 33.2722 67.7051 33.3309 67.7184L36.5914 68.4364L37.2673 65.1659C37.9615 61.8066 39.2084 59.6236 40.9731 58.6845C43.3216 57.4317 46.5878 58.3016 48.9167 59.2519C51.0442 60.1201 52.5774 61.1445 52.5914 61.1538L57.1409 64.2102L57.7156 58.7619C58.3574 52.6254 57.6578 42.089 50.7665 26.6047C57.7128 29.9127 62.8374 35.3117 66.011 42.6562C68.5061 48.4348 68.8034 53.3167 68.8043 53.3669L69.3956 65.1375L74.9968 54.7616C79.6374 46.1728 81.8507 35.8885 82.8838 28.7758C82.8876 28.7667 82.8882 28.7562 82.8877 28.7489L82.8968 28.7526Z" fill="#EFEAE8"></path>
    <path d="M42.7818 112.155C41.5303 111.645 40.3264 111.079 39.17 110.457C31.5314 106.332 26.8202 100.191 25.5151 92.6651C20.4349 88.9898 18.6554 84.3719 18.0592 81.0949C17.0543 75.5647 18.7261 70.7173 20.4598 68.2487C24.2654 62.8406 30.2343 62.6628 32.9422 62.9025C34.1374 58.3769 36.3863 55.4135 39.645 54.0942C44.4784 52.1356 50.1559 54.4345 53.1551 56.0109C53.2885 50.7279 52.2572 41.4056 46.1958 27.9798C45.4168 26.259 45.7806 24.2853 47.1147 22.9533C48.4555 21.6133 50.4482 21.2585 52.1716 22.0437C62.6501 26.8002 67.9053 34.9941 70.4659 41.031C71.6381 43.7952 72.3685 46.3507 72.819 48.3967C75.8141 41.3797 77.3904 33.7124 78.2086 28.1036C78.5106 26.0371 80.0331 24.4614 82.0896 24.09C84.1577 23.7162 86.1481 24.6673 87.1596 26.5078C91.6376 34.6694 93.1001 44.3921 91.3928 54.6229C90.4648 60.1691 88.8287 64.5539 87.8921 66.7532C92.5739 68.4643 95.3811 71.3403 96.0454 75.1399C97.075 80.9757 96.1153 88.1006 93.4756 94.1944C89.9616 102.317 83.5786 108.71 75.0202 112.677C66.3376 116.704 53.1323 116.379 42.7849 112.156L42.7818 112.155ZM49.5945 57.5204C46.9848 56.4555 43.5575 55.6052 40.7223 56.7592C38.1095 57.8222 36.3362 60.5275 35.4526 64.7957C35.3734 65.1729 35.1502 65.5019 34.8261 65.7115C34.502 65.9211 34.1097 65.9924 33.7338 65.9102C33.4483 65.8507 26.6386 64.4677 22.8102 69.9057C21.2818 72.0806 20.093 76.2243 20.8843 80.585C21.4015 83.4273 22.9933 87.4843 27.6461 90.6541C27.9781 90.8786 28.1991 91.2358 28.2576 91.6335C29.5357 100.316 35.6391 105.288 40.5325 107.93C51.4914 113.847 66.0569 113.666 73.804 110.073C81.7096 106.406 87.5975 100.519 90.829 93.054C93.2535 87.4526 94.1404 80.9425 93.2044 75.6363C92.662 72.5415 90.0726 70.3099 85.5134 69.0049C85.1052 68.8882 84.7663 68.5932 84.5933 68.2057C84.4215 67.8152 84.4289 67.3696 84.6201 66.9883C85.0404 66.1415 94.6925 46.2311 84.6302 27.8898C84.1387 26.9913 83.256 26.7985 82.591 26.9188C82.2759 26.9754 81.2271 27.2595 81.042 28.5157C80.0259 35.4822 77.8705 45.5373 73.3564 53.8857C73.0507 54.4517 72.4034 54.7466 71.7745 54.6039C71.1455 54.4612 70.687 53.9181 70.6572 53.2757C70.6551 53.2285 70.3599 48.1232 67.7676 42.0592C64.3289 34.0119 58.6773 28.1593 50.9744 24.6635C50.0064 24.2258 49.3247 24.8058 49.1379 24.993C48.9524 25.1772 48.3802 25.8553 48.8089 26.8029C52.6514 35.3176 56.9934 47.7392 55.8622 58.5825C55.8104 59.0848 55.4963 59.5228 55.0381 59.7381C54.5812 59.9505 54.0428 59.9088 53.6248 59.6243C53.5919 59.6002 51.9124 58.4805 49.5835 57.5301L49.5945 57.5204Z" fill="#1E1D1E"></path>
    <path d="M73.341 97.657C73.9372 86.7983 68.6183 80.7148 57.9618 79.2219C56.2732 78.9708 54.5415 78.8517 52.822 78.8337C52.5679 78.8368 52.2761 78.8103 52.0137 78.7815C49.1901 78.4412 47.5405 75.0406 48.9754 72.5889C49.2916 72.0059 49.7664 71.5231 50.3035 71.1405C55.0847 67.7043 60.886 65.9128 66.6657 65.2127C73.2036 64.3911 79.9086 64.268 86.3107 66.2396C88.0293 66.8447 87.3383 69.3756 85.5434 69.0099C82.6085 68.3144 79.5149 68.0774 76.4245 68.0768C73.3329 68.0793 70.2285 68.34 67.1626 68.7767C62.6298 69.4052 58.1907 70.5634 54.211 72.8383C53.4961 73.2551 52.7561 73.6724 52.1111 74.1711C51.7975 74.4598 51.889 75.0383 52.2036 75.3056C52.3788 75.4696 52.6652 75.4833 52.907 75.4929C58.1151 75.731 63.4866 76.7906 67.8718 79.7871C72.2349 82.7069 74.6546 87.6928 74.6499 92.8787C74.677 94.5312 74.5102 96.1616 74.2359 97.7587C74.1926 98.0045 73.957 98.1719 73.7112 98.1285C73.4819 98.0884 73.3211 97.8803 73.3349 97.6545L73.341 97.657Z" fill="#1E1D1E"></path>
    <path d="M60.2353 78.519C58.0701 79.7327 56.295 81.2906 55.8774 83.8584C55.3404 86.7975 56.2916 89.824 57.3457 92.5722C58.0828 95.0414 55.6798 97.3615 53.2222 96.6043C42.0555 93.2725 32.8213 84.4982 32.1123 72.4054C31.949 69.6469 32.1068 66.9305 32.6393 64.2032C32.7929 63.4255 33.5481 62.9183 34.327 63.0688C35.1224 63.2225 35.6306 64.0102 35.4525 64.7957C32.3666 78.9112 40.1648 90.0441 53.4532 94.6334L53.6779 94.7109L53.7903 94.7496C54.6745 95.0784 55.7071 94.3105 55.6506 93.3581C55.5967 92.827 55.2849 92.2475 55.1392 91.7145C53.8766 87.863 53.2731 82.9808 56.2611 79.7244C57.2155 78.6683 58.4656 77.8823 59.8381 77.5379C60.1251 77.4628 60.4147 77.6344 60.4898 77.9214C60.5525 78.1606 60.4412 78.4072 60.2341 78.522L60.2353 78.519Z" fill="#1E1D1E"></path>
    <path d="M38.6878 85.3396C38.054 86.9538 38.4491 88.7779 39.103 90.3692C39.4822 91.3856 40.2264 92.3017 40.1947 93.4353C40.2034 94.8275 39.3291 96.1585 38.0055 96.6972C36.8418 97.2193 35.6073 96.8153 34.4491 96.5385C31.4882 95.7932 28.6424 94.696 26.0319 93.0219C25.3633 92.5924 25.1668 91.704 25.5963 91.0354C26.0401 90.3405 26.9878 90.1647 27.6517 90.6492C29.8592 92.255 32.4553 93.4319 35.0894 94.254C35.7783 94.4069 36.505 94.8423 37.2098 94.6421C38.0105 94.3813 38.3976 93.3892 37.9951 92.6303C37.3198 91.1441 36.8021 89.6119 36.7083 87.9393C36.6429 86.8694 36.8075 85.7331 37.2841 84.7134C37.4631 84.3271 37.9222 84.1619 38.3054 84.3397C38.6825 84.5149 38.8478 84.9562 38.6903 85.3335L38.6878 85.3396Z" fill="#1E1D1E"></path>
    <path d="M54.8923 48.8828C56.0102 53.2984 56.3544 57.9608 55.2919 62.4231C54.9021 63.9019 54.2682 65.3595 53.2927 66.5459C53.1791 66.6847 52.9751 66.7047 52.8363 66.5911C52.7292 66.5046 52.6946 66.3624 52.734 66.2396C52.9354 65.5455 53.0975 64.8604 53.221 64.1737C53.6968 61.4197 53.6489 58.6051 53.2879 55.8336C53.0336 53.7608 52.6124 51.6342 52.1127 49.6215C51.6993 47.79 54.3305 47.0834 54.8893 48.8816L54.8923 48.8828Z" fill="#1E1D1E"></path>
    <path d="M73.3904 53.8284C71.8968 56.014 70.3291 58.1195 68.5062 60.0389C68.1886 60.3722 67.6373 59.9693 67.8623 59.5662C69.0587 57.3411 69.9936 54.9454 70.8096 52.5616C71.6153 50.5261 74.5079 51.945 73.3904 53.8284Z" fill="#1E1D1E"></path>
  </g>
  <defs>
    <clipPath id="clip0_237_3119">
      <rect width="90" height="109.451" fill="white" transform="translate(41.3521) rotate(22.1984)"></rect>
    </clipPath>
  </defs>
</svg>
