<?xml version="1.0" encoding="UTF-8"?>
<svg xmlns="http://www.w3.org/2000/svg" width="105" height="123" viewBox="0 0 105 123" fill="none">
  <g clip-path="url(#clip0_237_3184)">
    <path d="M98.7126 44.2487C96.971 37.3821 92.7848 31.1469 87.2345 27.1356C82.9244 24.0235 78.0098 22.3676 72.9851 22.2712C70.7109 15.9333 66.1777 10.8598 59.8069 7.53758C51.5073 3.21772 41.1003 2.41378 31.9667 5.38717C20.5215 9.1111 12.0087 17.6812 7.3448 30.1673C3.52537 40.392 2.38334 52.9381 4.12868 65.5009C5.3047 73.9705 7.34972 82.5638 10.2129 91.0362L10.2299 91.0911C15.5162 106.742 19.2464 107.333 20.4746 107.528C21.3418 107.666 23.0246 107.602 24.4978 105.619C25.587 104.157 26.0935 102.508 26.5822 100.913C27.0577 99.3583 27.5094 97.8882 28.4421 96.9597C29.4149 95.9938 30.7867 95.8229 31.8605 96.5438C33.5171 97.6555 34.3823 100.18 35.1427 102.407C35.255 102.735 35.3642 103.056 35.4753 103.366C35.6689 103.916 35.8629 104.471 36.0541 105.024C36.9202 107.522 37.8157 110.1 39.0629 112.556C40.2513 114.888 41.6474 117.26 43.8076 118.813C45.1705 119.795 46.7032 120.243 48.2926 120.137C48.6641 120.113 49.0363 120.059 49.4117 119.973C51.9508 119.399 54.4252 117.403 55.8762 114.762C56.7206 113.226 57.3531 111.467 57.7606 109.53C58.3311 106.794 58.3306 104.087 58.3332 101.468C58.3325 99.4836 58.3339 97.6114 58.5645 95.7399C59.1106 91.346 60.4591 89.1711 62.571 89.2686C64.3059 89.3483 65.4015 91.3666 66.3203 93.5325L66.4463 93.8256C68.1921 97.9369 70.5822 103.568 76.2414 104.796C78.3858 105.265 80.2298 104.94 81.7212 103.836C84.4577 101.814 85.1458 97.8351 85.4524 94.2117C85.8415 89.6602 85.6474 85.0753 85.4603 80.6367C85.458 80.6021 85.4558 80.5676 85.4561 80.5329C90.1059 79.1527 93.7462 76.37 96.2845 72.2388C98.5608 68.5383 99.8664 63.902 100.157 58.4663C100.402 53.871 99.9009 48.9571 98.7073 44.2491L98.7126 44.2487ZM81.6905 78.6809L81.7109 79.1916C81.7328 79.7235 81.7548 80.2581 81.7769 80.7927C81.9614 85.1115 82.1479 89.5823 81.7828 93.8922C81.6482 95.4426 81.2994 99.5567 79.536 100.858C79.3097 101.022 78.6316 101.528 77.0281 101.179C73.2372 100.355 71.4376 96.1164 69.8468 92.3735L69.7233 92.0776C68.9189 90.1921 67.0408 85.7721 62.7501 85.571C60.2851 85.4543 55.9876 86.5605 54.904 95.2757C54.6456 97.373 54.6472 99.4504 54.6441 101.459C54.6446 104.003 54.6435 106.403 54.1523 108.767C53.822 110.341 53.3162 111.758 52.6475 112.971C51.703 114.687 50.1146 116.016 48.5996 116.359C47.6491 116.574 46.7843 116.394 45.9644 115.803C44.364 114.656 43.2615 112.654 42.3545 110.869C41.2185 108.642 40.4074 106.293 39.5446 103.806C39.3501 103.243 39.153 102.68 38.9562 102.122C38.8511 101.823 38.7454 101.515 38.6368 101.202C37.7318 98.5604 36.6082 95.2745 33.9143 93.4688C32.7209 92.6705 31.3576 92.3261 30.0123 92.4152C28.4998 92.5154 27.0158 93.1658 25.8405 94.3345C24.2529 95.9171 23.6146 97.9916 23.0534 99.8209C22.6368 101.177 22.2419 102.459 21.5373 103.41C21.2412 103.808 21.0642 103.873 21.0644 103.876C20.3786 103.863 17.5628 101.262 13.7303 89.9017L13.7109 89.8496C10.9233 81.5936 8.93075 73.2288 7.78576 64.9866C6.12523 53.0209 7.20028 41.1139 10.804 31.4556C15.1218 19.9018 22.6229 12.3135 33.1078 8.89856C41.1953 6.26651 50.7741 6.99997 58.1024 10.8161C63.2805 13.5133 67.0533 17.5277 69.1176 22.5061C68.4521 22.5982 67.7886 22.7195 67.1216 22.8704C57.0584 25.1266 48.9434 32.4996 46.4496 41.6523C46.252 42.3721 46.0966 43.0838 45.9814 43.7608C45.035 49.4347 46.102 55.6926 48.9132 60.9228C51.9618 66.5987 56.7292 70.5392 62.341 72.0182C67.7819 73.4499 74.1703 72.9706 80.1576 70.7391C81.3418 74.3383 81.625 77.5305 81.6906 78.6836L81.6905 78.6809ZM93.1473 70.2998C91.2587 73.3745 88.6 75.5242 85.2355 76.7152C84.7153 71.9946 82.5586 61.5125 73.6242 56.1786C67.1704 52.3258 63.2646 53.7127 61.882 54.487C60.1553 55.4575 59.1562 57.1132 59.1367 59.0347C59.1086 61.7114 60.9619 64.3462 64.2173 66.2587C66.3026 67.486 68.1866 68.4093 69.8791 69.0972C67.5613 69.1894 65.3193 68.978 63.2825 68.4435C53.1546 65.7756 48.0396 53.8414 49.6221 44.3677C49.7157 43.8094 49.8474 43.222 50.0103 42.6218C52.1507 34.7726 59.1854 28.434 67.9303 26.4731C78.3797 24.1326 91.4106 30.4779 95.1348 45.1552C97.0405 52.6509 97.5171 63.1963 93.1473 70.2998Z" fill="#1E1D1E"></path>
    <path d="M93.1474 70.2996C91.2588 73.3744 88.6 75.5241 85.2356 76.7151C84.7154 71.9944 82.5587 61.5124 73.6243 56.1785C67.1704 52.3257 63.2646 53.7126 61.882 54.4869C60.1553 55.4574 59.1562 57.1131 59.1368 59.0345C59.1087 61.7113 60.962 64.3461 64.2173 66.2586C66.3026 67.4859 68.1866 68.4092 69.8792 69.0971C67.5613 69.1893 65.3194 68.9778 63.2825 68.4434C53.1547 65.7755 48.0397 53.8413 49.6222 44.3676C49.7158 43.8093 49.8475 43.2219 50.0103 42.6217C52.1507 34.7725 59.1855 28.4339 67.9304 26.473C78.3798 24.1325 91.4107 30.4778 95.1348 45.155C97.0406 52.6508 97.5171 63.1962 93.1474 70.2996Z" fill="#FF6707"></path>
    <path d="M80.1576 70.7363C74.1705 72.9705 67.7819 73.4471 62.3411 72.0154C56.7292 70.5364 51.9592 66.5961 48.9133 60.92C46.1045 55.687 45.035 49.4319 45.9815 43.758C46.0938 43.0785 46.2519 42.3667 46.4496 41.6495C48.9435 32.4968 57.0586 25.1265 67.1217 22.8676C67.7888 22.7193 68.4524 22.598 69.1177 22.5033C67.0533 17.5249 63.2805 13.5105 58.1024 10.8133C50.7742 6.99716 41.198 6.26352 33.1079 8.89575C22.6229 12.3107 15.1192 19.8992 10.8017 31.4583C7.19536 41.1167 6.12032 53.0237 7.7835 64.9893C8.92831 73.2289 10.9211 81.5963 13.7087 89.8523L13.7281 89.9044C17.5632 101.265 20.379 103.865 21.0622 103.878C21.062 103.876 21.2389 103.811 21.535 103.412C22.2423 102.461 22.6345 101.179 23.0512 99.8236C23.6124 97.9943 24.2507 95.9198 25.8383 94.3371C27.0135 93.1685 28.4975 92.5181 30.01 92.4179C31.3526 92.329 32.7186 92.6732 33.9121 93.4715C36.6058 95.2745 37.7295 98.563 38.6345 101.205C38.7407 101.52 38.8463 101.828 38.9539 102.125C39.1507 102.683 39.3479 103.246 39.5424 103.809C40.4052 106.296 41.2162 108.645 42.3523 110.871C43.2594 112.659 44.3644 114.658 45.9621 115.806C46.7821 116.397 47.6442 116.577 48.5973 116.362C50.1124 116.019 51.7007 114.69 52.6452 112.974C53.3137 111.758 53.8169 110.341 54.15 108.769C54.6439 106.406 54.6423 104.006 54.6419 101.462C54.6423 99.4533 54.6435 97.3784 54.9017 95.2784C55.9827 86.5633 60.2802 85.4572 62.7478 85.5737C67.0385 85.7748 68.9167 90.1948 69.721 92.0803L69.8445 92.3762C71.4327 96.1193 73.2349 100.358 77.0258 101.181C78.6292 101.528 79.3101 101.025 79.5337 100.86C81.2972 99.5594 81.6459 95.4453 81.7805 93.8949C82.1481 89.5821 81.9591 85.1142 81.7746 80.7954C81.7526 80.2608 81.7305 79.7262 81.7087 79.1943L81.6882 78.6836C81.6226 77.5305 81.3422 74.3408 80.1552 70.7391L80.1576 70.7363ZM29.9381 64.5855C24.6957 65.1862 19.6798 58.9393 18.7306 50.6361C17.7843 42.3353 21.2672 35.1199 26.5124 34.5217C31.7575 33.9208 36.7733 40.1677 37.7197 48.4685C38.666 56.7692 35.1831 63.9846 29.9381 64.5855Z" fill="#FCACDB"></path>
    <path d="M29.9381 64.5858C24.6957 65.1865 19.6798 58.9395 18.7307 50.6363C17.7844 42.3356 21.2672 35.1202 26.5124 34.522C31.7575 33.9211 36.7734 40.168 37.7197 48.4688C38.666 56.7695 35.1831 63.9849 29.9381 64.5858Z" fill="#1E1D1E"></path>
  </g>
  <defs>
    <clipPath id="clip0_237_3184">
      <rect width="96.8204" height="116.677" fill="white" transform="matrix(0.997812 -0.0661123 0.066021 0.997818 0 6.40103)"></rect>
    </clipPath>
  </defs>
</svg>
