<?xml version="1.0" encoding="UTF-8"?>
<svg xmlns="http://www.w3.org/2000/svg" width="14" height="14" viewBox="0 0 14 14" fill="none">
  <path fill-rule="evenodd" clip-rule="evenodd" d="M11.6842 -8.3449e-08C12.7385 -3.73614e-08 13.5933 0.854729 13.5933 1.90909L13.5933 12.0909C13.5933 13.1453 12.7385 14 11.6842 14C10.6298 14 9.77508 13.1453 9.77508 12.0909L9.77508 1.90909C9.77508 0.854729 10.6298 -1.29537e-07 11.6842 -8.3449e-08Z" fill="#1E1D1E"></path>
  <path fill-rule="evenodd" clip-rule="evenodd" d="M2.77524 -8.3449e-08C3.8296 -3.73614e-08 4.68433 0.854729 4.68433 1.90909L4.68433 12.0909C4.68433 13.1453 3.8296 14 2.77523 14C1.72087 14 0.866144 13.1453 0.866144 12.0909L0.866145 1.90909C0.866145 0.854729 1.72087 -1.29537e-07 2.77524 -8.3449e-08Z" fill="#1E1D1E"></path>
</svg>
