<?xml version="1.0" encoding="UTF-8"?>
<svg xmlns="http://www.w3.org/2000/svg" width="87" height="69" viewBox="0 0 87 69" fill="none">
  <g clip-path="url(#clip0_237_3208)">
    <path d="M43.1194 49.6096C43.3 49.6615 43.4833 49.7108 43.6639 49.7573C43.7596 49.7819 43.8581 49.8065 43.9539 49.8284C44.1317 49.8722 44.3095 49.9105 44.4874 49.9515C44.5831 49.9707 44.6761 49.9926 44.7719 50.0117C44.9771 50.0528 45.1823 50.0911 45.3875 50.1266C45.4559 50.1376 45.5215 50.1513 45.5899 50.1622C45.8635 50.206 46.1343 50.247 46.4107 50.2798C46.4763 50.288 46.542 50.2935 46.6076 50.3017C46.8183 50.3263 47.029 50.3482 47.2396 50.3674C47.3354 50.3756 47.4339 50.3811 47.5296 50.3893C47.7129 50.4029 47.899 50.4139 48.0823 50.4221C48.1835 50.4276 48.2847 50.4303 48.386 50.4358C48.5775 50.4413 48.769 50.4467 48.9605 50.4467C49.0261 50.4467 49.0891 50.4495 49.1547 50.4495C49.1766 50.4495 49.1985 50.4495 49.2231 50.4495C49.5295 50.4495 49.8332 50.4413 50.1369 50.4276C50.1998 50.4248 50.26 50.4194 50.3229 50.4166C50.5719 50.4029 50.8209 50.3865 51.0698 50.3646C51.1574 50.3564 51.2449 50.3482 51.3325 50.34C51.606 50.3127 51.8796 50.2798 52.1532 50.2415C52.186 50.2361 52.2189 50.2333 52.2517 50.2279C52.5527 50.1841 52.8536 50.1321 53.1545 50.0746C53.2366 50.0582 53.316 50.0418 53.398 50.0254C53.6306 49.9789 53.8631 49.9269 54.0957 49.8695C54.1723 49.8503 54.2489 49.8339 54.3255 49.8147C54.621 49.7409 54.911 49.6588 55.201 49.5712C55.2475 49.5576 55.2912 49.5412 55.3377 49.5275C55.584 49.4509 55.8302 49.3688 56.0737 49.2812C56.1558 49.2512 56.2378 49.2211 56.3199 49.191C56.5607 49.1007 56.796 49.0077 57.0312 48.9064C57.0777 48.8873 57.1243 48.8681 57.1708 48.849C57.4471 48.7286 57.7179 48.6028 57.9888 48.4687C58.0572 48.4331 58.1256 48.3976 58.194 48.362C58.4046 48.2553 58.6098 48.1431 58.815 48.0255C58.8861 47.9845 58.9573 47.9462 59.0284 47.9024C59.2883 47.7492 59.5455 47.5932 59.7944 47.4263C59.8191 47.4099 59.841 47.3935 59.8656 47.3771C60.0927 47.2239 60.3143 47.0652 60.5359 46.9011C60.6043 46.8491 60.6727 46.7971 60.741 46.7424C60.9353 46.5919 61.1241 46.4387 61.3101 46.28C61.3593 46.239 61.4086 46.1979 61.4551 46.1569C61.6822 45.9572 61.9038 45.752 62.1172 45.5386C62.1692 45.4866 62.2184 45.4346 62.2677 45.3827C62.4373 45.2103 62.6014 45.0352 62.7628 44.8546C62.8203 44.789 62.8777 44.7261 62.9352 44.6577C63.1376 44.4224 63.3346 44.1844 63.5234 43.9354C64.4427 42.6961 65.1321 41.2844 65.4084 39.8043C65.5096 39.2598 65.5534 38.7127 65.5343 38.1628C65.4987 38.1491 65.4549 38.1409 65.4084 38.1354C65.4002 38.1354 65.3893 38.1327 65.381 38.1327C65.3345 38.1272 65.2853 38.1245 65.2333 38.1217C65.2224 38.1217 65.2142 38.1217 65.206 38.1217C65.1841 38.1217 65.1649 38.1217 65.143 38.1217C65.1211 38.1217 65.0993 38.1217 65.0746 38.1217C65.0582 38.1217 65.0445 38.1217 65.0281 38.1217C64.9789 38.1217 64.9296 38.1245 64.8886 38.1272C64.139 38.1874 63.3538 38.3953 62.6042 38.5978C62.4947 38.6306 62.3826 38.6634 62.2704 38.6935C62.2348 38.7045 62.1993 38.7127 62.1637 38.7209C62.0843 38.7428 62.0077 38.7619 61.9284 38.7811C61.8874 38.792 61.8436 38.8002 61.8026 38.8112C61.7287 38.8276 61.6548 38.844 61.581 38.8604C61.5372 38.8686 61.4961 38.8768 61.4524 38.885C61.3758 38.8987 61.2964 38.9124 61.2198 38.9261C61.1815 38.9315 61.1432 38.9397 61.1022 38.9452C60.9955 38.9616 60.8888 38.9726 60.7821 38.9835C60.7711 38.9835 60.7629 38.9835 60.7547 38.9862C60.6371 38.9972 60.5222 39.0054 60.4045 39.0109C60.369 39.0109 60.3334 39.0109 60.2978 39.0109C60.224 39.0109 60.1474 39.0136 60.0735 39.0109C59.923 39.0109 59.7726 39.0054 59.6248 38.9917C59.0421 39.5307 58.4074 40.0286 57.7343 40.4718C54.9055 42.3322 51.3352 43.3527 47.4065 43.4293C47.2506 43.432 47.0919 43.4347 46.936 43.4347C43.631 43.4347 40.7119 42.7562 38.2524 41.4157C37.7353 41.1339 37.2428 40.822 36.7777 40.4828C36.1649 42.3431 36.1567 43.9655 36.7504 45.3143C37.5082 47.0324 39.2975 48.3647 42.0716 49.2703C42.0771 49.273 42.0826 49.273 42.088 49.2758C42.3452 49.3633 42.6051 49.4454 42.865 49.5247C42.9498 49.5494 43.0319 49.5712 43.1167 49.5959L43.1194 49.6096Z" fill="#EFEAE8"></path>
    <path d="M85.6675 22.1084C83.1642 14.6286 78.4941 8.60972 72.1579 4.70292C67.3154 1.71264 61.4607 0 56.0984 0C55.5923 0 55.0944 0.0164151 54.6156 0.0465094C52.0877 0.205189 48.5858 1.21472 45.6748 4.96283C43.5381 4.8534 41.3194 4.79868 39.0596 4.79868C30.4745 4.79868 21.4024 5.61123 13.5095 7.08858C13.1073 7.16245 12.6696 7.23906 12.2537 7.30745H12.2346C9.65465 7.75066 6.4455 8.29783 3.62757 10.0734C-0.39686 12.6123 -0.0959161 16.3002 0.0955933 17.3699C0.883518 21.9059 5.65484 24.0481 10.6943 25.6869C14.0347 26.7758 17.326 27.5254 18.2534 27.7306C21.5364 28.4583 24.6416 29.0875 27.6702 29.6375C27.3118 31.3145 27.1996 33.2269 27.7003 35.131C28.1408 36.8054 28.8658 38.3894 29.8589 39.8558C29.216 42.7558 29.4348 45.5382 30.5073 47.9704C31.5196 50.2712 33.2185 52.1781 35.5659 53.6527C35.5659 53.6856 35.5659 53.7157 35.5659 53.7485C35.6753 57.9125 37.3195 61.521 40.3235 64.1803C43.1661 66.6973 47.5954 68.2622 51.8825 68.2622C56.4377 68.2622 60.7904 66.5523 64.2294 63.4252C70.6641 62.5169 76.2425 58.8864 80.4064 52.8867C83.3858 48.5914 85.5389 43.0951 86.4718 37.41C87.3883 31.8343 87.1038 26.4009 85.6675 22.1111V22.1084ZM84.0424 37.0078C83.1669 42.3455 81.1561 47.4834 78.3846 51.4805C74.445 57.1574 69.1895 60.4541 63.1241 61.0778C60.049 64.131 56.1066 65.7972 51.8825 65.7972C48.1727 65.7972 44.3698 64.4703 41.9568 62.3336C39.4754 60.1367 38.1184 57.1437 38.0281 53.6801C38.0145 53.1712 38.0309 52.687 38.0637 52.2383C35.5112 50.9442 33.7301 49.1824 32.7589 46.9773C31.7685 44.7284 31.6974 42.1211 32.5346 39.3442C31.3746 37.8833 30.5374 36.2391 30.0805 34.5045C29.5169 32.3596 29.9382 29.9192 30.8411 27.6895C27.0163 27.0493 23.033 26.2696 18.7814 25.3258C17.8731 25.126 14.6613 24.3901 11.4548 23.345C5.56455 21.4299 2.97644 19.575 2.51956 16.9431C2.36361 16.0594 2.29248 13.827 4.94078 12.1581C7.34833 10.6397 10.1717 10.1609 12.6613 9.73689C13.1182 9.66028 13.5532 9.58641 13.9636 9.50981C21.7088 8.05981 30.6222 7.26094 39.0596 7.26094C41.7544 7.26094 44.3808 7.34028 46.895 7.49896C49.3545 3.67972 52.457 2.6483 54.7743 2.5033C55.2011 2.47594 55.647 2.46226 56.0984 2.46226C61.0202 2.46226 66.4044 4.04358 70.8665 6.79585C76.7076 10.399 81.0165 15.9637 83.3338 22.8881C84.6443 26.8058 84.896 31.8207 84.0424 37.0078Z" fill="#EFEAE8"></path>
    <path d="M47.0891 12.1993C46.3504 12.1336 45.6118 12.0762 44.8676 12.0269C44.6323 12.0105 44.3943 11.9968 44.159 11.9831C43.6447 11.9503 43.1276 11.923 42.6133 11.8983C42.3452 11.8847 42.077 11.8737 41.8062 11.8628C41.3001 11.8436 40.7912 11.8272 40.2851 11.8135C40.0306 11.808 39.7789 11.7998 39.5245 11.7944C38.8953 11.7807 38.2633 11.7752 37.6313 11.7725C37.5246 11.7725 37.4206 11.7697 37.3139 11.7697C37.2893 11.7697 37.2674 11.7697 37.2428 11.7697C37.1689 11.7697 37.0923 11.7697 37.0185 11.7697C36.4932 11.7697 35.9679 11.778 35.4426 11.7862C35.2812 11.7862 35.1198 11.7916 34.9556 11.7944C34.3893 11.8053 33.8203 11.8217 33.2512 11.8409C33.2211 11.8409 33.191 11.8409 33.1582 11.8436C32.5645 11.8655 31.9708 11.8929 31.3744 11.923C31.2103 11.9312 31.0461 11.9394 30.8792 11.9503C30.3758 11.9777 29.8697 12.0105 29.3663 12.0433C29.2596 12.0515 29.1529 12.057 29.0489 12.0652C28.4553 12.1063 27.8643 12.1555 27.2679 12.2047C27.1092 12.2184 26.9533 12.2321 26.7946 12.2458C26.3104 12.2896 25.8234 12.3361 25.3364 12.3853C25.1969 12.399 25.0546 12.4127 24.9151 12.4291C24.3187 12.492 23.7222 12.5577 23.1231 12.6315C22.989 12.648 22.855 12.6644 22.7182 12.6808C22.2257 12.741 21.7305 12.8066 21.2354 12.8723C21.0794 12.8942 20.9207 12.9133 20.7648 12.9352C20.1629 13.02 19.5583 13.1076 18.9537 13.1979C18.8634 13.2115 18.7731 13.228 18.6828 13.2416C18.1548 13.3237 17.624 13.4113 17.096 13.4988C16.9319 13.5262 16.7677 13.5535 16.6036 13.5836C15.9907 13.6903 15.3779 13.797 14.7651 13.9119C14.3191 13.9967 13.8595 14.0733 13.3889 14.1527C11.203 14.5247 8.94044 14.9105 7.26884 15.9611C6.99252 16.1389 6.86667 16.273 6.82837 16.3359C7.0828 17.0335 10.5847 19.1483 19.7224 21.1756C29.0216 23.2384 37.3112 24.5626 45.0153 25.2137C45.0071 20.8008 45.4613 16.3523 47.0864 12.1993H47.0891Z" fill="#EFEAE8"></path>
    <path d="M36.9723 37.8506C36.9723 37.8506 36.975 37.8561 36.9777 37.8561C37.0324 37.908 37.0872 37.96 37.1419 38.0093H37.1446C37.7821 38.5865 38.5016 39.0981 39.2923 39.5277C39.5658 39.6781 39.8476 39.8177 40.1349 39.9463C40.2307 39.99 40.3319 40.0256 40.4276 40.0666C40.6219 40.1487 40.8189 40.2335 41.0186 40.3074C41.139 40.3512 41.2648 40.3895 41.3852 40.4305C41.5712 40.4934 41.7545 40.5563 41.9433 40.6138C42.0774 40.6521 42.2169 40.6849 42.3509 40.7205C42.537 40.7697 42.7203 40.819 42.909 40.86C43.054 40.8929 43.2018 40.9175 43.3495 40.9476C43.5383 40.9831 43.7243 41.0214 43.9158 41.0515C44.0691 41.0762 44.225 41.0953 44.3809 41.1145C44.5724 41.1391 44.764 41.1637 44.9582 41.1829C45.1196 41.1993 45.2838 41.2102 45.4479 41.2212C45.6449 41.2348 45.8391 41.2485 46.0389 41.2567C46.2085 41.2649 46.3781 41.2677 46.5505 41.2704C46.679 41.2704 46.8022 41.2813 46.9307 41.2813C47.073 41.2813 47.218 41.2813 47.363 41.2759C50.8813 41.2075 54.0576 40.3074 56.5418 38.6741C59.294 36.863 61.2091 34.0505 61.666 31.145C61.8274 30.1136 61.6879 28.9098 61.0176 28.5022C60.6674 28.5186 59.7181 29.1205 59.1463 29.4844C58.052 30.1793 56.84 30.9453 55.5952 31.093C55.2778 31.8864 55.0042 32.74 54.7717 33.6538C54.4407 34.8959 54.2081 36.1817 54.0494 37.4676C54.0303 37.6563 53.9865 37.8725 53.9427 38.0667C53.9154 38.1816 53.8798 38.2938 53.8388 38.4032C53.8278 38.4333 53.8169 38.4607 53.8059 38.488C53.7676 38.5811 53.7266 38.6741 53.6774 38.7616C53.6691 38.7753 53.6637 38.789 53.6582 38.8027C53.6035 38.9012 53.5406 38.9942 53.4749 39.0845C53.4585 39.1063 53.4393 39.131 53.4229 39.1529C53.3655 39.2267 53.3053 39.2979 53.2424 39.3663C53.2259 39.3827 53.2123 39.3991 53.1958 39.4155C53.1192 39.4948 53.0372 39.5687 52.9524 39.6398C52.9332 39.6563 52.9141 39.6699 52.8922 39.6863C52.821 39.7438 52.7472 39.7958 52.6706 39.8478C52.6487 39.8614 52.6268 39.8779 52.6049 39.8915C52.5119 39.949 52.4134 40.0037 52.3149 40.0529C52.2985 40.0612 52.2793 40.0694 52.2602 40.0776C52.1754 40.1186 52.0878 40.1542 52.0003 40.187C51.9729 40.198 51.9456 40.2062 51.9182 40.2171C51.8115 40.2527 51.7075 40.2855 51.5981 40.3129C51.5872 40.3129 51.579 40.3156 51.568 40.3183C51.4668 40.3402 51.3683 40.3594 51.2643 40.373C51.2342 40.3758 51.2069 40.3813 51.1768 40.384C51.0728 40.3949 50.9661 40.4031 50.8622 40.4031C50.854 40.4031 50.8485 40.4031 50.8403 40.4031C50.7281 40.4031 50.6187 40.3949 50.5065 40.384C50.4819 40.384 50.46 40.3785 50.4354 40.3758C50.3259 40.3621 50.2165 40.3429 50.1098 40.3183C50.0934 40.3156 50.077 40.3101 50.0606 40.3047C49.9621 40.28 49.8636 40.2472 49.7678 40.2116C49.7487 40.2062 49.7323 40.198 49.7131 40.1925C49.6091 40.1514 49.5079 40.1049 49.4094 40.0502C49.3875 40.0393 49.3657 40.0256 49.3465 40.0146C49.2453 39.9572 49.1441 39.8943 49.0483 39.8231C48.6379 39.5386 48.3151 39.1419 48.0743 38.7097C46.1401 35.2597 45.2509 31.3119 45.0567 27.3887C42.2141 27.1562 39.2977 26.8306 36.2828 26.4093C36.2719 26.423 36.2582 26.4366 36.2445 26.4476C34.3924 28.059 33.6099 30.8988 34.2939 33.5088C34.7179 35.1202 35.6508 36.6222 36.9613 37.8506H36.9723Z" fill="#EFEAE8"></path>
    <path d="M64.96 49.3164C64.8506 49.2452 64.6126 49.1577 64.3691 49.1139C64.2514 49.092 64.1311 49.0729 64.0107 49.0565C63.9724 49.051 63.9313 49.0483 63.893 49.0428C63.811 49.0346 63.7289 49.0236 63.6468 49.0182C63.603 49.0154 63.5593 49.0127 63.5128 49.01C63.4362 49.0045 63.3568 48.999 63.2775 48.9963C63.2228 48.9963 63.168 48.9963 63.1133 48.9935C63.0477 48.9935 62.982 48.9908 62.9136 48.9908C62.9136 48.9908 62.9109 48.9908 62.9081 48.9908C62.6619 48.9908 62.413 48.999 62.164 49.0127C62.164 49.0127 62.1585 49.0127 62.1558 49.0127C61.9041 49.0264 61.6551 49.0483 61.4034 49.0702C61.0697 49.1057 60.7277 49.1468 60.3966 49.2015C60.1313 49.3738 59.8604 49.538 59.5868 49.6967C59.5102 49.7404 59.4336 49.7842 59.3543 49.828C59.1354 49.9511 58.9111 50.0715 58.6867 50.1864C58.6238 50.2192 58.5609 50.252 58.4952 50.2849C58.2134 50.4244 57.9289 50.5585 57.6389 50.6843C57.576 50.7117 57.5103 50.739 57.4447 50.7664C57.2094 50.8676 56.9741 50.9606 56.7361 51.0536C56.654 51.0865 56.5692 51.1166 56.4871 51.1494C56.1944 51.2561 55.9016 51.3601 55.6034 51.4531C55.5952 51.4531 55.5897 51.4585 55.5815 51.4613C55.2779 51.557 54.9687 51.6446 54.6623 51.7267C54.5775 51.7486 54.4899 51.7704 54.4051 51.7923C54.1589 51.8552 53.9127 51.9127 53.6637 51.9674C53.5926 51.9838 53.5187 52.0002 53.4476 52.0167C53.1357 52.0823 52.8238 52.1398 52.5092 52.1918C52.4408 52.2027 52.3724 52.2109 52.304 52.2219C52.0496 52.2602 51.7924 52.2957 51.538 52.3285C51.4477 52.3395 51.3574 52.3504 51.2671 52.3586C50.9634 52.3915 50.6597 52.4188 50.3561 52.4407C50.3396 52.4407 50.326 52.4435 50.3096 52.4435C49.9895 52.4653 49.6694 52.4763 49.352 52.4845C49.2617 52.4845 49.1742 52.4872 49.0839 52.49C48.7857 52.4954 48.4847 52.4954 48.1865 52.49C48.1783 52.49 48.1674 52.49 48.1592 52.49C47.8336 52.4818 47.5108 52.4653 47.188 52.4435C47.1387 52.4407 47.0895 52.438 47.0402 52.4325C46.7311 52.4106 46.4219 52.3805 46.1155 52.345C46.058 52.3395 46.0006 52.3313 45.9431 52.3231C45.634 52.2848 45.3276 52.2437 45.0239 52.1918C44.9774 52.1835 44.9336 52.1753 44.8871 52.1671C44.567 52.1124 44.2469 52.055 43.9323 51.9866C43.4672 51.8935 43.0048 51.7896 42.5425 51.6665C42.2415 53.3299 42.0746 56.7114 44.8597 59.1736C44.95 59.253 45.0458 59.3323 45.147 59.4117C45.1798 59.439 45.2154 59.4636 45.251 59.4883C45.3194 59.5402 45.3905 59.5922 45.4644 59.6442C45.5081 59.6743 45.5546 59.7044 45.5984 59.7345C45.6696 59.781 45.738 59.8275 45.8118 59.874C45.8611 59.9041 45.9158 59.9369 45.965 59.967C46.0389 60.0108 46.11 60.0546 46.1866 60.0956C46.2414 60.1257 46.2988 60.1558 46.3563 60.1886C46.4329 60.2297 46.5095 60.2707 46.5888 60.309C46.649 60.3391 46.7092 60.3692 46.7721 60.3966C46.8514 60.4349 46.9335 60.4732 47.0183 60.5087C47.0813 60.5361 47.1469 60.5662 47.2126 60.5935C47.2974 60.6291 47.3849 60.6647 47.4725 60.7002C47.5381 60.7276 47.6065 60.7522 47.6749 60.7768C47.7652 60.8097 47.8582 60.8425 47.9513 60.8753C48.0197 60.9 48.088 60.9219 48.1564 60.9465C48.2522 60.9793 48.3534 61.0067 48.4519 61.0368C48.5203 61.0559 48.5887 61.0778 48.6571 61.0969C48.7665 61.127 48.876 61.1544 48.9854 61.1818C49.0483 61.1982 49.1113 61.2146 49.1742 61.2283C49.311 61.2611 49.4505 61.2885 49.59 61.3158C49.6311 61.324 49.6694 61.3322 49.7104 61.3404C49.891 61.3733 50.0743 61.4034 50.2603 61.428C50.3096 61.4335 50.3561 61.4389 50.4053 61.4444C50.5448 61.4608 50.6844 61.4772 50.8239 61.4909C50.895 61.4964 50.9662 61.5018 51.0346 61.5046C51.1549 61.5128 51.2753 61.521 51.3984 61.5265C51.4778 61.5292 51.5571 61.5292 51.6364 61.5319C51.7213 61.5319 51.8061 61.5374 51.8936 61.5374C51.9182 61.5374 51.9429 61.5374 51.9675 61.5374C52.2082 61.5374 52.449 61.5292 52.6925 61.5128C54.8538 61.3623 58.0028 60.5197 60.755 57.3434C60.7578 57.3406 60.7605 57.3352 60.7632 57.3324C60.7742 57.3215 60.7824 57.3078 60.7961 57.2968C62.7002 55.089 64.8752 52.3614 64.9682 49.3793V49.3136L64.96 49.3164Z" fill="#EFEAE8"></path>
    <path d="M65.0177 49.3693C65.0177 49.3693 65.0122 49.361 65.0039 49.3526C64.9983 49.3471 64.99 49.3416 64.9817 49.336C64.99 49.3471 64.9955 49.3554 65.0011 49.361C65.0011 49.361 65.0039 49.361 65.0066 49.3637C65.0094 49.3665 65.0122 49.3693 65.015 49.3693H65.0177Z" fill="#EFEAE8"></path>
    <path d="M78.7569 23.1644C78.7459 23.1371 78.7377 23.1124 78.7268 23.0851C78.5818 22.7075 78.4286 22.3382 78.2726 21.9743C78.2562 21.9333 78.2371 21.8923 78.2206 21.8512C78.0674 21.501 77.9088 21.1591 77.7446 20.8253C77.72 20.7788 77.6981 20.7295 77.6762 20.683C77.5148 20.3547 77.3479 20.0374 77.1783 19.7227C77.1509 19.6735 77.1236 19.6215 77.0962 19.5723C76.9266 19.2631 76.7515 18.9622 76.5737 18.6694C76.5436 18.6202 76.5135 18.5737 76.4861 18.5244C76.3055 18.2317 76.1222 17.9472 75.9362 17.6681C75.9061 17.6243 75.876 17.5806 75.8459 17.5341C75.6544 17.255 75.4629 16.9814 75.2659 16.716C75.2386 16.6777 75.2085 16.6422 75.1811 16.6039C74.9787 16.3358 74.7735 16.0731 74.5655 15.8187C74.5437 15.7913 74.519 15.764 74.4971 15.7366C74.281 15.474 74.0621 15.2195 73.8405 14.9733C73.8269 14.9569 73.8132 14.9432 73.7995 14.9295C73.5752 14.6833 73.3508 14.4425 73.121 14.21C73.1073 14.1963 73.0964 14.1826 73.0827 14.169C72.8529 13.9364 72.6231 13.7121 72.3878 13.4959C72.3632 13.4713 72.3358 13.4467 72.3112 13.4221C72.0869 13.2141 71.8571 13.0117 71.6272 12.8147C71.5917 12.7846 71.5588 12.7545 71.5233 12.7244C71.2989 12.5329 71.0719 12.3496 70.8448 12.1718C70.8038 12.139 70.7627 12.1089 70.7244 12.076C70.5001 11.9009 70.273 11.7313 70.0432 11.5672C69.9994 11.5371 69.9556 11.5042 69.9119 11.4741C69.6848 11.3127 69.455 11.1568 69.2252 11.0063C69.1814 10.9762 69.1376 10.9489 69.0911 10.9188C68.8613 10.7683 68.6288 10.6233 68.3962 10.4838C68.3524 10.4591 68.3114 10.4318 68.2676 10.4072C68.0323 10.2676 67.7971 10.1308 67.559 10.0023C67.5207 9.98037 67.4824 9.96122 67.4441 9.93934C67.2034 9.80802 66.9599 9.68217 66.7164 9.55905C66.6863 9.54537 66.6562 9.52896 66.6288 9.51528C66.3826 9.39217 66.1337 9.27453 65.8874 9.16236C65.8683 9.15415 65.8491 9.14594 65.83 9.13773C65.5838 9.02556 65.3403 8.9216 65.094 8.82037C65.0667 8.80943 65.0393 8.79849 65.012 8.78754C64.7685 8.68905 64.5277 8.5933 64.287 8.50302C64.2487 8.48934 64.2104 8.47566 64.1748 8.45924C63.9395 8.3717 63.707 8.29236 63.4744 8.21302C63.4306 8.19934 63.3896 8.18292 63.3458 8.16924C63.116 8.09264 62.8889 8.02151 62.6646 7.95585C62.6181 7.94217 62.5716 7.92849 62.5278 7.91481C62.3035 7.84915 62.0819 7.78622 61.8603 7.72877C61.8138 7.71783 61.77 7.70415 61.7235 7.6932C61.5019 7.63575 61.283 7.58377 61.0641 7.53179C61.0204 7.52085 60.9766 7.51264 60.9355 7.5017C60.7167 7.45245 60.4978 7.40594 60.2844 7.3649C60.2461 7.3567 60.2078 7.35122 60.1722 7.34302C59.9534 7.30198 59.7345 7.26368 59.5211 7.22811C59.491 7.22264 59.4637 7.2199 59.4336 7.21443C59.212 7.17887 58.9904 7.14603 58.7742 7.11868C58.7578 7.11868 58.7414 7.11594 58.725 7.1132C58.5061 7.08585 58.29 7.06122 58.0766 7.03934C58.0656 7.03934 58.0547 7.03934 58.0438 7.0366C57.8304 7.01471 57.6197 6.9983 57.4118 6.98462C57.3899 6.98462 57.3707 6.98188 57.3488 6.97915C57.1491 6.96547 56.9521 6.95726 56.7606 6.94905C56.736 6.94905 56.7087 6.94905 56.684 6.94632C56.4953 6.94085 56.312 6.93811 56.1314 6.93811C56.1177 6.93811 56.1013 6.93811 56.0849 6.93811C56.0712 6.93811 56.0603 6.93811 56.0493 6.93811C55.8934 6.93811 55.7402 6.93811 55.5897 6.94632C55.5623 6.94632 55.535 6.94632 55.5076 6.94905C55.3544 6.95453 55.2012 6.96 55.0562 6.97094C52.6979 7.11594 50.8129 8.86141 49.4532 12.1526C49.4504 12.1581 49.4477 12.1663 49.4477 12.1718C48.6844 14.3058 48.2494 16.5929 47.9922 18.8992C47.7323 21.2138 47.6667 23.5584 47.7405 25.8893C47.8308 29.3338 48.326 32.7536 49.6939 35.9217C49.9429 36.4908 50.1946 37.0817 50.5147 37.6042C50.5393 37.6371 50.5667 37.6644 50.5968 37.6891C50.6077 37.6973 50.6187 37.7027 50.6296 37.7082C50.6515 37.7219 50.6734 37.7383 50.698 37.7465C50.7117 37.752 50.7254 37.7547 50.739 37.7602C50.7637 37.7684 50.7855 37.7766 50.8102 37.7821C50.8266 37.7848 50.843 37.7848 50.8594 37.7875C50.884 37.7875 50.9059 37.793 50.9305 37.793C50.9524 37.793 50.9743 37.7903 50.9962 37.7875C51.0154 37.7875 51.0318 37.7875 51.0509 37.7821C51.0728 37.7793 51.0947 37.7711 51.1138 37.7657C51.1303 37.7602 51.1494 37.7575 51.1658 37.752C51.1877 37.7438 51.2069 37.7328 51.2288 37.7219C51.2424 37.7137 51.2588 37.7082 51.2753 37.7C51.3081 37.6808 51.3409 37.6562 51.3683 37.6316C51.5078 37.514 51.5406 37.3006 51.568 37.12L51.6419 36.6576C52.4872 31.7386 54.509 26.4447 59.0204 23.7882C60.1476 23.1343 61.3815 22.6802 62.6372 22.4476C62.8178 22.4148 62.9984 22.3874 63.1789 22.3628C63.2364 22.3546 63.2938 22.3491 63.3513 22.3409C63.4771 22.3245 63.6003 22.3108 63.7261 22.2999C63.789 22.2944 63.8547 22.289 63.9176 22.2835C64.0407 22.2725 64.1638 22.2671 64.287 22.2589C64.3444 22.2561 64.4019 22.2534 64.4593 22.2507C64.6235 22.2452 64.7876 22.2397 64.9518 22.2397C64.9655 22.2397 64.9791 22.2397 64.9928 22.2397C65.1871 22.2397 65.3786 22.2452 65.5701 22.2534C65.6248 22.2534 65.6768 22.2589 65.7315 22.2616C65.882 22.2698 66.0297 22.278 66.1802 22.2917C66.2294 22.2944 66.2759 22.2999 66.3252 22.3026C66.5167 22.3191 66.7054 22.3409 66.8942 22.3628C66.9243 22.3656 66.9572 22.371 66.9872 22.3765C67.1487 22.3984 67.3073 22.4203 67.4688 22.4476C67.5235 22.4558 67.5782 22.4641 67.6329 22.475C67.7888 22.5024 67.9448 22.5297 68.098 22.5598C68.1308 22.5653 68.1664 22.5735 68.1992 22.579C68.3853 22.6173 68.5686 22.6556 68.7546 22.6993C68.8011 22.7103 68.8476 22.7212 68.8941 22.7322C69.0364 22.765 69.1814 22.8006 69.3209 22.8389C69.3729 22.8525 69.4249 22.8662 69.4769 22.8799C69.6574 22.9291 69.838 22.9784 70.0186 23.0304C70.0623 23.0441 70.1006 23.0659 70.1335 23.0906C70.1335 23.0906 70.1389 23.0933 70.1389 23.096C70.169 23.1207 70.1909 23.1508 70.2101 23.1808C70.2101 23.1836 70.2155 23.1863 70.2155 23.1918C70.232 23.2219 70.2429 23.2547 70.2484 23.2903C70.2484 23.2958 70.2484 23.2985 70.2511 23.304C70.2566 23.3368 70.2566 23.3724 70.2511 23.4052C70.2511 23.4107 70.2511 23.4161 70.2511 23.4216C70.2456 23.4544 70.2347 23.4873 70.221 23.5174C70.221 23.5228 70.2155 23.5256 70.2128 23.531C70.1964 23.5611 70.1772 23.5885 70.1554 23.6104C70.1526 23.6131 70.1472 23.6186 70.1444 23.6213C70.1198 23.6432 70.0897 23.6624 70.0569 23.6788C70.0514 23.6788 70.0487 23.6815 70.0432 23.6842C70.0076 23.6979 69.9721 23.7061 69.9283 23.7061C69.9064 23.7061 69.8845 23.7061 69.8599 23.7007C69.5261 23.6459 69.2005 23.5994 68.8805 23.5584C68.782 23.5474 68.6835 23.5365 68.585 23.5256C68.3579 23.5009 68.1336 23.4791 67.9092 23.4626C67.8053 23.4544 67.7013 23.449 67.6001 23.4408C67.3621 23.4271 67.1295 23.4189 66.8997 23.4161C66.8286 23.4161 66.7547 23.4107 66.6836 23.4107C66.6617 23.4107 66.6398 23.4107 66.6179 23.4107C66.3388 23.4107 66.0653 23.4189 65.7971 23.4325C65.7342 23.4353 65.6713 23.4435 65.6084 23.4462C65.384 23.4599 65.1597 23.4791 64.9408 23.5037C64.8451 23.5146 64.7521 23.5283 64.6563 23.542C64.4703 23.5666 64.2842 23.5967 64.1037 23.6295C64.0079 23.6459 63.9149 23.6651 63.8219 23.6842C63.6304 23.7225 63.4443 23.7691 63.2583 23.8156C63.1844 23.8347 63.1105 23.8511 63.0367 23.8703C62.7822 23.9414 62.5333 24.018 62.2925 24.1056C62.2488 24.122 62.2077 24.1384 62.1639 24.1548C61.9642 24.2287 61.7672 24.308 61.5757 24.3928C61.4964 24.4284 61.4198 24.464 61.3432 24.5023C61.1872 24.5761 61.034 24.6527 60.8836 24.7321C60.8042 24.7758 60.7249 24.8169 60.6483 24.8634C60.4951 24.9509 60.3419 25.044 60.1941 25.1397C60.1312 25.1808 60.0655 25.2191 59.9999 25.2628C59.792 25.4024 59.5895 25.5501 59.3925 25.706C59.3706 25.7224 59.3488 25.7443 59.3269 25.7608C59.1518 25.903 58.9821 26.048 58.8153 26.204C58.7551 26.2614 58.6949 26.3189 58.6347 26.3763C58.5088 26.4994 58.383 26.6225 58.2626 26.7539C58.1997 26.8195 58.1368 26.8879 58.0766 26.9563C57.9562 27.0904 57.8386 27.2299 57.7237 27.3749C57.6717 27.4406 57.617 27.5035 57.5677 27.5691C57.4063 27.7798 57.2476 27.9959 57.0944 28.2203C57.4008 28.0397 57.7045 27.8482 57.989 27.6676C58.1012 27.5965 58.2134 27.5254 58.3255 27.4542C58.3584 27.4351 58.3885 27.4159 58.4213 27.3941C58.5417 27.3202 58.6593 27.2463 58.7797 27.1752C58.7797 27.1752 58.7824 27.1752 58.7852 27.1724C58.9001 27.1041 59.0122 27.0384 59.1244 26.9755C59.1545 26.9591 59.1819 26.9426 59.212 26.9262C59.3269 26.8633 59.4418 26.8031 59.5539 26.7484C59.5539 26.7484 59.5539 26.7484 59.5567 26.7484C59.6688 26.6937 59.781 26.6444 59.8905 26.6007C59.9178 26.5897 59.9479 26.5788 59.9753 26.5678C60.0874 26.5241 60.1969 26.4858 60.309 26.4529C60.309 26.4529 60.309 26.4529 60.3118 26.4529C60.4212 26.4201 60.5306 26.3982 60.6401 26.3791C60.6674 26.3736 60.6948 26.3708 60.7221 26.3654C60.8316 26.349 60.941 26.3408 61.0477 26.3408C61.1161 26.3408 61.1845 26.3462 61.2502 26.3517C61.2638 26.3517 61.2748 26.3517 61.2885 26.3517C61.3596 26.3599 61.4307 26.3736 61.5019 26.39C61.5101 26.39 61.5183 26.39 61.5265 26.3955C61.6852 26.4338 61.8438 26.494 61.9971 26.5788C63.748 27.5226 64.079 29.7332 63.8027 31.4896C63.458 33.6892 62.4293 35.8369 60.9054 37.659C60.9602 37.6453 61.0122 37.6289 61.0669 37.6124C61.1489 37.5906 61.2365 37.5659 61.3268 37.5413C61.3541 37.5331 61.3815 37.5249 61.4088 37.5167C61.4772 37.4975 61.5456 37.4757 61.6168 37.4538C61.6441 37.4456 61.6688 37.4374 61.6961 37.4291C61.7919 37.3991 61.8876 37.369 61.9888 37.3361C62.0791 37.3088 62.1694 37.2787 62.2624 37.2486C62.2953 37.2376 62.3308 37.2267 62.3637 37.2158C62.4457 37.1884 62.5305 37.1638 62.6154 37.1364C62.6427 37.1282 62.6701 37.12 62.6974 37.1118C62.8069 37.079 62.9163 37.0461 63.0257 37.0133C63.0449 37.0078 63.0668 37.0024 63.0859 36.9969C63.1762 36.9723 63.2665 36.9449 63.3568 36.923C63.3896 36.9148 63.4224 36.9066 63.4553 36.8957C63.5455 36.8738 63.6358 36.8519 63.7234 36.83C63.748 36.8245 63.7699 36.8191 63.7945 36.8136C63.9039 36.789 64.0161 36.7671 64.1255 36.7452C64.1529 36.7397 64.1775 36.737 64.2049 36.7315C64.2897 36.7151 64.3745 36.7041 64.4593 36.6905C64.4921 36.685 64.525 36.6823 64.5578 36.6768C64.6508 36.6658 64.7438 36.6549 64.8369 36.6494C64.8533 36.6494 64.8697 36.6467 64.8834 36.6467C64.9846 36.6412 65.0858 36.6385 65.1871 36.6385C65.2527 36.6385 65.3184 36.644 65.384 36.6494C65.4333 36.6522 65.4853 36.6549 65.5345 36.6604C65.6002 36.6686 65.6658 36.6795 65.7288 36.6932C65.7725 36.7014 65.819 36.7069 65.8628 36.7178C65.9339 36.7342 65.9996 36.7589 66.0653 36.7808C66.1008 36.7917 66.1364 36.7999 66.1692 36.8136C66.2677 36.8519 66.3635 36.8984 66.4538 36.9558C66.8039 37.1692 67.0611 37.6726 67.0666 38.0666C67.1104 38.7424 67.0721 39.4263 66.9654 40.0911C66.6781 41.8749 65.8984 43.5164 64.8888 44.9445C64.1939 45.9103 63.406 46.7803 62.5415 47.5573C62.7111 47.5381 62.8807 47.5272 63.0504 47.5162C63.0832 47.5162 63.116 47.5108 63.1461 47.5108C63.3103 47.5025 63.4717 47.4971 63.6304 47.4971C63.696 47.4971 63.7644 47.4971 63.8301 47.4971C63.8547 47.4971 63.8821 47.4971 63.9067 47.4971C64.0052 47.4998 64.1037 47.5053 64.1994 47.5108C64.2213 47.5108 64.2432 47.5135 64.2651 47.5162C64.3389 47.5217 64.4128 47.5299 64.4867 47.5381C64.5195 47.5408 64.5496 47.5463 64.5824 47.5491C64.6454 47.5573 64.7083 47.5682 64.7685 47.5764C64.7986 47.5819 64.8314 47.5874 64.8615 47.5928C64.9299 47.6065 64.9983 47.6202 65.0639 47.6366C65.0831 47.6421 65.1022 47.6448 65.1214 47.6503C65.2062 47.6722 65.2855 47.6968 65.3649 47.7214C65.3868 47.7296 65.4059 47.7378 65.4278 47.7433C65.4853 47.7652 65.5427 47.7871 65.5947 47.809C65.6193 47.8199 65.6439 47.8308 65.6686 47.8445C65.7178 47.8691 65.7671 47.8938 65.8136 47.9184C65.8355 47.9321 65.8573 47.943 65.8792 47.9567C65.9367 47.9923 65.9887 48.0278 66.0406 48.0661C66.0488 48.0716 66.0571 48.0771 66.0653 48.0853C66.1227 48.1318 66.1774 48.181 66.2294 48.233C66.2431 48.2494 66.2568 48.2658 66.2732 48.2795C66.3088 48.3178 66.3416 48.3589 66.3717 48.3999C66.3854 48.4191 66.4018 48.4409 66.4154 48.4628C66.4428 48.5066 66.4702 48.5504 66.4948 48.5969C66.5057 48.6188 66.5167 48.6379 66.5276 48.6598C66.5605 48.7282 66.5878 48.7993 66.6097 48.8732C66.9845 51.5024 65.5619 54.334 63.9587 56.6594C69.206 55.6581 72.697 52.1124 74.7817 49.1112C80.1303 41.4043 81.2164 30.4883 79.1782 24.3874C79.0387 23.9715 78.8937 23.5666 78.7404 23.1699L78.7569 23.1644Z" fill="#EFEAE8"></path>
    <path d="M83.3337 22.8883C81.0164 15.9638 76.7075 10.3991 70.8664 6.79599C66.4042 4.04372 61.0201 2.4624 56.0983 2.4624C55.6469 2.4624 55.2009 2.47608 54.7742 2.50344C52.4569 2.64844 49.3544 3.67986 46.8949 7.4991C44.3807 7.34042 41.7542 7.26108 39.0594 7.26108C30.6221 7.26108 21.7087 8.05995 13.9635 9.50995C13.5531 9.58655 13.1181 9.66042 12.6612 9.73703C10.1716 10.1611 7.34821 10.6399 4.94066 12.1583C2.29236 13.8271 2.36349 16.0596 2.51943 16.9433C2.97632 19.5751 5.56443 21.43 11.4547 23.3451C14.6611 24.3902 17.873 25.1262 18.7813 25.3259C23.0328 26.2698 27.0162 27.0495 30.8409 27.6897C29.9381 29.9194 29.5168 32.3598 30.0804 34.5047C30.5373 36.2392 31.3744 37.8834 32.5344 39.3444C31.6973 42.1213 31.7684 44.7285 32.7588 46.9774C33.73 49.1825 35.511 50.9444 38.0636 52.2384C38.0308 52.6871 38.0143 53.1714 38.028 53.6802C38.1183 57.1438 39.4753 60.1368 41.9567 62.3337C44.3697 64.4704 48.1725 65.7973 51.8824 65.7973C56.1065 65.7973 60.0489 64.1312 63.124 61.078C69.1893 60.4542 74.4449 57.1575 78.3845 51.4806C81.1559 47.4835 83.1668 42.3456 84.0423 37.008C84.8958 31.8208 84.6442 26.806 83.3337 22.8883ZM19.7252 21.1756C10.5874 19.1483 7.08556 17.0335 6.83113 16.3359C6.86943 16.273 6.99528 16.1389 7.2716 15.9611C8.94321 14.9105 11.2058 14.5248 13.3917 14.1527C13.8623 14.0733 14.3219 13.9967 14.7678 13.9119C25.7933 11.8491 36.6656 11.2718 47.0891 12.1993C45.4641 16.3523 45.0099 20.8008 45.0181 25.2137C37.314 24.5626 29.0243 23.2384 19.7252 21.1756ZM34.3045 33.5088C33.6206 30.8988 34.403 28.059 36.2552 26.4476C36.2689 26.4366 36.2825 26.423 36.2935 26.4093C39.3084 26.8306 42.2248 27.1562 45.0674 27.3887C45.2616 31.3119 46.1508 35.2598 48.085 38.7097C48.3258 39.1419 48.6486 39.5386 49.059 39.8232C50.7743 41.1035 53.4582 40.1542 53.9479 38.0695C53.9917 37.8752 54.0355 37.6591 54.0546 37.4703C54.2133 36.1845 54.4458 34.8986 54.7769 33.6566C55.0094 32.7428 55.283 31.8892 55.6004 31.0958C56.8452 30.9481 58.0572 30.182 59.1515 29.4871C59.7233 29.1233 60.6726 28.5214 61.0228 28.505C61.6931 28.9126 61.8326 30.1164 61.6712 31.1478C61.2143 34.0533 59.2992 36.8657 56.547 38.6768C54.0628 40.3101 50.8865 41.2102 47.3682 41.2786C44.2521 41.3388 41.5326 40.7506 39.292 39.5277C38.5013 39.0982 37.7818 38.5866 37.1443 38.012H37.1416C37.0924 37.9546 37.0376 37.8999 36.9775 37.8561C36.9747 37.8561 36.972 37.8561 36.972 37.8506C35.6615 36.6222 34.7286 35.1202 34.3045 33.5088ZM42.0743 49.2837C39.3002 48.3782 37.5109 47.0458 36.7531 45.3277C36.1594 43.9789 36.1676 42.3566 36.7805 40.4962C37.2456 40.8354 37.738 41.1473 38.2551 41.4291C40.7146 42.7697 43.6338 43.4482 46.9387 43.4482C47.0946 43.4482 47.2533 43.4454 47.4092 43.4427C51.3379 43.3661 54.9082 42.3456 57.7371 40.4852C58.4101 40.042 59.0448 39.5441 59.6275 39.0051C60.6343 39.0927 61.6548 38.8984 62.6124 38.6057C63.362 38.4033 64.1472 38.1953 64.8968 38.1351C65.0856 38.1242 65.3865 38.116 65.5425 38.1707C65.5616 38.7206 65.5178 39.2678 65.4166 39.8122C65.1403 41.2923 64.4508 42.704 63.5316 43.9433C58.6755 50.3534 49.4037 51.7952 42.0908 49.2892C42.0853 49.2865 42.0798 49.2865 42.0743 49.2837ZM60.7875 57.2998C60.7875 57.2998 60.7657 57.3244 60.7547 57.3353C60.752 57.3381 60.7492 57.3435 60.7465 57.3463C57.9942 60.5226 54.8453 61.3652 52.684 61.5157C49.3544 61.7428 46.3505 60.5034 44.854 59.1766C42.0689 56.7143 42.2358 53.3328 42.5367 51.6694C42.9991 51.7925 43.4614 51.8965 43.9265 51.9895C49.4584 53.1741 55.6524 52.3014 60.4018 49.2017C60.7328 49.1469 61.0748 49.1059 61.4086 49.0703C62.399 48.98 63.414 48.9308 64.3688 49.1141C64.6123 49.1579 64.8503 49.2454 64.9597 49.3166V49.3822C64.8667 52.3643 62.6917 55.0919 60.7875 57.2998ZM74.7978 49.1059C72.7131 52.1071 69.2222 55.6528 63.9748 56.6541C65.578 54.3286 67.0007 51.497 66.6258 48.8679C66.2291 47.5492 64.3824 47.3577 62.5549 47.5492C63.4194 46.7722 64.2074 45.9022 64.9023 44.9365C65.9118 43.5083 66.6915 41.8668 66.9788 40.0831C67.0855 39.4183 67.1238 38.7343 67.08 38.0585C67.0745 37.6646 66.8174 37.1612 66.4672 36.9478C65.0637 36.086 62.5358 37.2268 61.0748 37.6071C61.0201 37.6235 60.9681 37.64 60.9134 37.6536C62.4373 35.8316 63.4659 33.6839 63.8107 31.4843C64.087 29.7279 63.7559 27.5173 62.005 26.5734C60.7602 25.9032 59.4169 26.7567 57.9915 27.6596C57.707 27.8401 57.4033 28.0317 57.0969 28.2122C59.7507 24.2726 64.0022 22.705 69.8651 23.6926C70.2919 23.7583 70.415 23.1564 70.0183 23.0278C67.6846 22.3466 65.1622 21.9854 62.6342 22.4505C61.3785 22.6831 60.1446 23.1372 59.0175 23.7911C54.506 26.4476 52.4842 31.7415 51.6389 36.6605L51.565 37.1229C51.5376 37.3034 51.5048 37.5168 51.3653 37.6345C51.1409 37.8451 50.7005 37.867 50.509 37.6071C50.1889 37.0846 49.9372 36.4936 49.6882 35.9246C48.3203 32.7565 47.8251 29.3367 47.7348 25.8922C47.6609 23.5613 47.7266 21.2166 47.9865 18.9021C48.2437 16.5958 48.6787 14.3086 49.442 12.1747C49.442 12.1692 49.4447 12.161 49.4475 12.1555C50.8072 8.86429 52.6922 7.11882 55.0505 6.97382C61.2581 6.58259 74.289 9.71788 79.1943 24.382C81.2325 30.483 80.1464 41.399 74.7978 49.1059ZM64.9816 49.3357C64.9816 49.3357 64.998 49.3467 65.0035 49.3521C65.0363 49.385 65.0062 49.3767 64.9816 49.3357Z" fill="#1E1D1E"></path>
  </g>
  <defs>
    <clipPath id="clip0_237_3208">
      <rect width="87" height="68.2594" fill="white"></rect>
    </clipPath>
  </defs>
</svg>
