<?xml version="1.0" encoding="UTF-8"?>
<svg xmlns="http://www.w3.org/2000/svg" width="33" height="16" viewBox="0 0 33 16" fill="none">
  <path d="M9.62645 15.1273H8.25124V4.03211C8.6748 3.71443 9.13 3.44214 9.62645 3.25374V15.1273ZM13.7521 15.1273H15.1273V2.44237C14.8123 2.8068 14.5181 3.19598 14.2733 3.62092L13.7521 3.36788V15.1273ZM11.0017 15.1273H12.3769V2.95944C11.6783 2.8508 11.5201 2.89068 11.0017 2.94569V15.1273ZM5.50083 15.1273H6.87603V5.47332C6.44697 6.10317 6.11279 6.80865 5.92439 7.58426L5.50083 7.33398V15.1273ZM1.37521 7.90744C0.541831 8.65968 0 9.76947 0 11.0264C0 12.2833 0.541831 13.3931 1.37521 14.1454V7.90744ZM27.3377 6.98467C27.0572 3.08321 24.0317 0 20.3008 0C18.8953 0 17.5999 0.451067 16.5025 1.20606V15.1273H29.0017C31.2117 15.1273 33.005 13.2116 33.005 10.8559C33.005 7.78504 30.0235 5.6686 27.3377 6.98467ZM4.12562 6.94754C3.71031 6.91454 3.40226 6.90629 2.75041 7.11532V14.9389C3.36376 15.1355 3.62504 15.1286 4.12562 15.1286V6.94754Z" fill="#1E1D1E"></path>
</svg>
