<?xml version="1.0" encoding="UTF-8"?>
<svg xmlns="http://www.w3.org/2000/svg" width="2023" height="1101" viewBox="0 0 2023 1101" fill="none">
  <path d="M1949.34 -3.59152e-05L2022.74 694.644C1930.14 765.611 1877.67 875.919 1775.3 940.73C1763.76 948.048 1751.57 954.782 1738.61 960.816C1636.28 1008.5 1509.74 1001.07 1396.97 982.57C1394.69 982.195 1392.39 981.814 1390.11 981.432C1279.61 962.948 1168.66 936.241 1054.47 947.919C929.901 960.66 818.606 1017.27 700.669 1054.28C697.166 1055.38 693.661 1056.46 690.153 1057.52C564.908 1095.39 429.035 1108.41 298.875 1096.74C226.416 1090.24 155.732 1076.1 89.6425 1054.33L0 205.98L1949.34 -3.59152e-05Z" fill="#2A3EF4"></path>
</svg>
