<?xml version="1.0" encoding="UTF-8"?>
<svg xmlns="http://www.w3.org/2000/svg" width="1440" height="921" viewBox="0 0 1440 921" fill="none">
  <path d="M1440 0V674.931C1366.87 733.719 1320.03 834.387 1240.24 886.269C1231.24 892.129 1221.81 897.362 1211.88 901.844C1133.44 937.271 1041.57 917.289 960.613 888.06C958.974 887.467 957.328 886.868 955.69 886.269C876.388 857.288 797.397 820.361 713.077 819.989C621.085 819.583 535.408 862.679 446.392 886.269C443.747 886.972 441.103 887.653 438.459 888.314C344.038 911.987 243.77 910.699 149.582 886.269C97.1485 872.67 46.6015 851.903 0 824.278V0H1440Z" fill="#FCACDB"></path>
</svg>
