<?xml version="1.0" encoding="UTF-8"?>
<svg xmlns="http://www.w3.org/2000/svg" width="1604" height="898" viewBox="0 0 1604 898" fill="none">
  <path d="M1367.42 4.1587e-05L1603.11 713.961C1580.16 776.782 1533.94 831.367 1474.22 861.762C1387.5 905.888 1276.34 896.997 1197.74 839.651C1132.93 792.36 1086.31 714.15 1008.22 695.706C944.25 680.594 878.136 711.527 825.694 751.161C773.251 790.79 727.6 840.14 669.638 871.152C611.681 902.162 534.343 910.55 484.045 868.231C458.585 846.808 443.735 815.758 425.324 788.039C406.918 760.318 381.237 733.606 348.165 729.938C299.493 724.538 261.663 769.238 217.707 790.823C186.207 806.294 149.094 809.276 115.203 800.384L0 451.414L1367.42 4.1587e-05Z" fill="#2A3EF4"></path>
</svg>
