<?xml version="1.0" encoding="UTF-8"?>
<svg xmlns="http://www.w3.org/2000/svg" width="82" height="82" viewBox="0 0 82 82" fill="none">
  <path d="M81.9667 20.9273C81.9667 18.4059 81.754 15.8947 81.1518 13.4399C80.0705 8.96847 77.5209 5.55276 73.7054 3.04415C71.7426 1.76294 69.5825 0.976282 67.2866 0.56117C65.5236 0.240867 63.7376 0.0948095 61.9491 0.0538108C61.8158 0.0409987 61.6698 0.0128121 61.5211 0H20.443C19.9228 0.0409987 19.4026 0.0666229 18.8825 0.0922471C16.3329 0.238305 13.7986 0.504797 11.3951 1.4657C6.83141 3.26709 3.53358 6.4163 1.61176 10.9543C0.945533 12.4892 0.609856 14.1164 0.371551 15.7717C0.171682 17.1067 0.0640605 18.4545 0.0256242 19.8024C0.0256242 19.91 0 20.0151 0 20.1227V61.8824C0.0256242 62.3642 0.0538108 62.8433 0.079435 63.3251C0.25368 66.1156 0.612418 68.8778 1.78857 71.4403C4.00506 76.2858 7.72826 79.4735 12.8403 81.0083C14.2676 81.4491 15.764 81.6489 17.2579 81.7822C19.1541 81.9693 21.0477 81.9949 22.9439 81.9949H60.632C62.4206 81.9949 64.2091 81.8744 65.9977 81.6489C68.8138 81.2876 71.4556 80.46 73.8464 78.8867C76.7163 76.9905 78.879 74.4819 80.2652 71.3455C80.9058 69.9028 81.2672 68.3705 81.5336 66.8202C81.9206 64.5115 82 62.1746 82 59.8402C81.9872 46.8667 82 33.8957 81.9872 20.9222L81.9667 20.9273ZM60.0247 34.5517V54.0645C60.0247 55.4918 59.8248 56.8934 59.1842 58.1874C58.1977 60.2015 56.5962 61.4699 54.4463 62.0849C53.2573 62.4308 52.0299 62.6179 50.7897 62.6717C47.5457 62.8331 44.7296 60.6294 44.1556 57.4264C43.6611 54.7845 44.9295 51.8736 47.7046 50.513C48.7987 49.98 49.9877 49.6597 51.1741 49.4188C52.4681 49.1395 53.7621 48.8858 55.0433 48.5912C55.9914 48.3785 56.6039 47.8045 56.7909 46.8282C56.8447 46.6155 56.8575 46.3875 56.8575 46.1748C56.8575 39.9686 56.8575 33.7624 56.8575 27.5716C56.8575 27.359 56.8165 27.1437 56.7653 26.9438C56.632 26.4237 56.2579 26.1162 55.7249 26.1418C55.1766 26.1674 54.6436 26.2622 54.1106 26.3699C51.5072 26.8772 48.9063 27.3974 46.3157 27.9304L33.6779 30.48C33.6241 30.4928 33.5574 30.521 33.5036 30.521C32.5555 30.7875 32.2224 31.2154 32.1814 32.2019C32.1686 32.348 32.1814 32.4966 32.1814 32.6427C32.1686 41.5317 32.1814 50.4207 32.1686 59.3072C32.1686 60.7499 32.0072 62.1643 31.4358 63.4968C30.4877 65.6851 28.8067 67.0611 26.539 67.7145C25.3372 68.0604 24.1098 68.2629 22.8542 68.3013C19.5846 68.4217 16.8607 66.2462 16.3021 63.0304C15.8204 60.2553 17.0888 57.265 20.238 55.9299C21.4654 55.4226 22.7338 55.1433 24.0278 54.8768C25.0015 54.6769 25.9906 54.477 26.9643 54.2772C28.2712 53.9979 28.9528 53.1702 29.0194 51.8352V51.3278C29.0194 41.2114 29.0194 31.095 29.0194 20.9785C29.0194 20.5506 29.0732 20.1252 29.1655 19.7101C29.4063 18.7364 30.1007 18.1752 31.0335 17.9472C31.9021 17.7191 32.7964 17.5603 33.6753 17.3732C36.1839 16.8658 38.6797 16.3585 41.1883 15.8639L48.9422 14.2881C51.2381 13.8345 53.5187 13.3681 55.8146 12.9146C56.5629 12.7685 57.3239 12.6071 58.0824 12.5533C59.1355 12.461 59.8709 13.1273 59.9786 14.1958C60.0042 14.4495 60.0196 14.7032 60.0196 14.9568C60.0196 21.4833 60.0196 28.0098 60.0196 34.5363L60.0247 34.5517Z" fill="#EFEAE8"></path>
</svg>
